<?xml version='1.0' encoding='utf-8'?>
<svg xmlns="http://www.w3.org/2000/svg" xmlns:inkscape="http://www.inkscape.org/namespaces/inkscape" xmlns:sodipodi="http://sodipodi.sourceforge.net/DTD/sodipodi-0.dtd" width="63.499584mm" height="88.899994mm" viewBox="0 0 63.499584 88.899994" version="1.1" id="svg1" inkscape:version="1.4 (86a8ad7, 2024-10-11)" sodipodi:docname="creature_template.svg" xml:space="preserve"><sodipodi:namedview id="namedview1" pagecolor="#ffffff" bordercolor="#000000" borderopacity="0.25" inkscape:showpageshadow="2" inkscape:pageopacity="0.0" inkscape:pagecheckerboard="0" inkscape:deskcolor="#d1d1d1" inkscape:document-units="mm" inkscape:zoom="2" inkscape:cx="56.75" inkscape:cy="135.25" inkscape:window-width="2560" inkscape:window-height="1369" inkscape:window-x="-8" inkscape:window-y="-8" inkscape:window-maximized="1" inkscape:current-layer="layer1" /><defs id="defs1" /><g inkscape:label="Layer 1" inkscape:groupmode="layer" id="layer1"><rect style="fill:none;stroke:#000000;stroke-width:0.254;stroke-linecap:round;stroke-linejoin:round;stroke-dasharray:none;paint-order:markers fill stroke" id="image_frame" width="61.186001" height="37.612637" x="1.1571789" y="11.712771" /><rect style="fill:#ffffff;stroke:#000000;stroke-width:0.254;stroke-linecap:round;stroke-linejoin:round;stroke-dasharray:none;paint-order:markers fill stroke" id="title_box" width="58.60799" height="6.9283738" x="-62.343182" y="3.1659403" ry="1.529641" rx="1.5296412" transform="scale(-1,1)" /><path sodipodi:type="star" style="fill:#ffffff;stroke:#000000;stroke-width:0.264583;stroke-linecap:round;stroke-linejoin:round;paint-order:markers fill stroke" id="power_star" inkscape:flatsided="true" sodipodi:sides="5" sodipodi:cx="34.479534" sodipodi:cy="108.15691" sodipodi:r1="4.0164261" sodipodi:r2="3.249357" sodipodi:arg1="-1.5707963" sodipodi:arg2="-0.9424778" inkscape:rounded="0.075532484" inkscape:randomized="0" d="m 34.479534,104.14049 c 0.356634,0 3.709643,2.4361 3.819848,2.77528 0.110206,0.33918 -1.170529,4.28088 -1.459052,4.4905 -0.288523,0.20962 -4.433069,0.20962 -4.721592,0 -0.288523,-0.20962 -1.569258,-4.15132 -1.459052,-4.4905 0.110206,-0.33918 3.463215,-2.77528 3.819848,-2.77528 z" inkscape:transform-center-y="-0.30492557" transform="matrix(-1,0,0,1,39.469949,-101.22185)" /><rect style="fill:none;stroke:#000000;stroke-width:0.264583;stroke-linecap:round;stroke-linejoin:round;paint-order:markers fill stroke" id="full_image" width="63.235001" height="88.635414" x="0.13229179" y="0.13229018" /><rect style="fill:#ffffff;stroke:#000000;stroke-width:0.264583;stroke-linecap:round;stroke-linejoin:round;paint-order:fill markers stroke" id="effect_box" width="61.185642" height="31.672569" x="1.1571789" y="53.56308" ry="1.529641" rx="1.529641" /><text xml:space="preserve" style="font-size:1.76389px;text-align:start;writing-mode:lr-tb;direction:ltr;text-anchor:start;fill:#000000;stroke:none;stroke-width:0.264583;stroke-linecap:round;stroke-linejoin:round;paint-order:markers fill stroke;-inkscape-font-specification:serif;font-family:serif;font-weight:normal;font-style:normal;font-stretch:normal;font-variant:normal" x="4.2525954" y="87.418266" id="writer" inkscape:label="language_model"><tspan sodipodi:role="line" id="sometspan" style="font-size:1.76389px;text-align:start;text-anchor:start;fill:#000000;stroke:none;stroke-width:0.264583;-inkscape-font-specification:serif;font-family:serif;font-weight:normal;font-style:normal;font-stretch:normal;font-variant:normal" x="4.2525954" y="87.418266">llama3.2:3b</tspan></text><text xml:space="preserve" style="font-size:4.93889px;text-align:start;writing-mode:lr-tb;direction:ltr;text-anchor:start;fill:#000000;stroke:none;stroke-width:0.264583;stroke-linecap:round;stroke-linejoin:round;paint-order:markers fill stroke;-inkscape-font-specification:serif;font-family:serif;font-weight:normal;font-style:normal;font-stretch:normal;font-variant:normal" x="9.5349436" y="9.0317097" id="title"><tspan sodipodi:role="line" id="tspan5" style="font-size:4.93889px;stroke-width:0.264583;-inkscape-font-specification:serif;font-family:serif;font-weight:normal;font-style:normal;font-stretch:normal;font-variant:normal" x="9.5349436" y="9.0317097">Khaos Keeper</tspan></text><text xml:space="preserve" style="font-size:4.93889px;text-align:center;writing-mode:lr-tb;direction:ltr;text-anchor:middle;fill:#000000;stroke:none;stroke-width:0.254;stroke-linecap:round;stroke-linejoin:round;stroke-dasharray:none;paint-order:fill markers stroke" x="4.9880033" y="9.0196514" id="power"><tspan sodipodi:role="line" id="tspan14" style="font-size:4.93889px;text-align:center;text-anchor:middle;fill:#000000;stroke:none;stroke-width:0.254" x="4.9880033" y="9.0196514">7</tspan></text><text xml:space="preserve" style="font-size:4.23333px;text-align:start;writing-mode:lr-tb;direction:ltr;text-anchor:start;white-space:pre;inline-size:58.4828;display:inline;fill:#000000;stroke:none;stroke-width:0.264583;stroke-linecap:round;stroke-linejoin:round;paint-order:markers fill stroke;-inkscape-font-specification:serif;font-family:serif;font-weight:normal;font-style:normal;font-stretch:normal;font-variant:normal" x="6.4598289" y="86.537384" id="effect" transform="translate(-4.27935,-28.368817)"><tspan x="6.4598289" y="86.537384" id="tspan3">On Play: Swap your deck and graveyard.</tspan></text><text xml:space="preserve" style="font-size:1.76389px;text-align:end;writing-mode:lr-tb;direction:ltr;text-anchor:end;fill:none;stroke:#000000;stroke-width:0.254;stroke-linecap:round;stroke-linejoin:round;paint-order:markers fill stroke;-inkscape-font-specification:serif;font-family:serif;font-weight:normal;font-style:normal;font-stretch:normal;font-variant:normal" x="59.546726" y="87.418266" id="artist"><tspan sodipodi:role="line" id="tspan1" style="font-size:1.76389px;text-align:end;direction:ltr;text-anchor:end;fill:#000000;stroke:none;stroke-width:0.254;-inkscape-font-specification:serif;font-family:serif;font-weight:normal;font-style:normal;font-stretch:normal;font-variant:normal" x="59.546726" y="87.418266">Sana:0.6b</tspan></text><text xml:space="preserve" style="font-size:2.82222px;text-align:start;writing-mode:lr-tb;direction:ltr;text-anchor:start;fill:#000000;stroke:none;stroke-width:0.264583;stroke-linecap:round;stroke-linejoin:round;paint-order:markers fill stroke;-inkscape-font-specification:serif;font-family:serif;font-weight:normal;font-style:normal;font-stretch:normal;font-variant:normal" x="2.5930455" y="52.18367" id="type"><tspan sodipodi:role="line" id="tspan2" style="font-size:2.82222px;text-align:start;text-anchor:start;fill:#000000;stroke:none;stroke-width:0.264583;-inkscape-font-specification:serif;font-family:serif;font-weight:normal;font-style:normal;font-stretch:normal;font-variant:normal" x="2.5930455" y="52.18367">Creature — Cerberian</tspan></text><text xml:space="preserve" style="font-size:1.76389px;text-align:end;writing-mode:lr-tb;direction:ltr;text-anchor:end;fill:none;stroke:#000000;stroke-width:0.254;stroke-linecap:round;stroke-linejoin:round;paint-order:markers fill stroke;-inkscape-font-specification:serif;font-family:serif;font-weight:normal;font-style:normal;font-stretch:normal;font-variant:normal" x="31.866066" y="87.414818" id="edition" inkscape:label="edition"><tspan sodipodi:role="line" id="tspan6" style="font-size:1.76389px;text-align:center;direction:ltr;text-anchor:middle;fill:#000000;stroke:none;stroke-width:0.254;-inkscape-font-specification:serif;font-family:serif;font-weight:normal;font-style:normal;font-stretch:normal;font-variant:normal" x="31.866066" y="87.414818">Alpha 0.1.0</tspan></text><path style="fill:#000000;stroke-width:0.999999" d="m 59.904273,87.402194 c -0.08329,-0.01582 -0.153558,-0.0707 -0.188404,-0.147165 -0.01877,-0.04117 -0.03866,-0.113335 -0.04727,-0.17149 -0.0055,-0.03708 -0.0047,-0.147509 0.0013,-0.185559 0.0143,-0.09002 0.04614,-0.177916 0.09137,-0.252249 0.05398,-0.08872 0.136927,-0.171173 0.226374,-0.225028 0.196792,-0.118491 0.441953,-0.12757 0.647059,-0.02395 0.03518,0.01776 0.102699,0.06045 0.102699,0.06491 0,0.0011 -0.05079,0.112231 -0.112879,0.246523 -0.06208,0.134286 -0.11495,0.250785 -0.11748,0.258885 -0.0025,0.0081 -0.0054,0.02137 -0.0064,0.02944 l -0.0018,0.01475 -0.02463,0.01189 c -0.02017,0.0097 -0.02852,0.01582 -0.04609,0.03347 -0.01296,0.01302 -0.02492,0.02815 -0.0302,0.03816 -0.0054,0.01023 -0.01101,0.01727 -0.01469,0.01841 -0.01503,0.0048 -0.06191,0.02895 -0.08494,0.04408 -0.0521,0.03417 -0.0953,0.07603 -0.133027,0.128845 -0.04468,0.06254 -0.09362,0.09738 -0.159497,0.11354 -0.02436,0.006 -0.07653,0.0073 -0.101502,0.0027 z m 0.04889,-0.295955 c 0.04855,-0.0092 0.08508,-0.04655 0.09378,-0.09593 0.008,-0.04521 -0.01859,-0.09635 -0.06125,-0.117883 -0.06901,-0.03482 -0.150788,0.0068 -0.164164,0.08365 -0.0083,0.04768 0.01861,0.0991 0.06271,0.11974 0.0262,0.01227 0.04459,0.01507 0.06893,0.01044 z m 0.171752,-0.338029 c 0.08814,-0.04236 0.08775,-0.16422 -7e-4,-0.206532 -0.01623,-0.0077 -0.0194,-0.0083 -0.047,-0.0083 -0.02876,0 -0.03016,2.58e-4 -0.04978,0.01 -0.02468,0.01222 -0.04217,0.03003 -0.05402,0.05503 -0.008,0.01685 -0.0085,0.01991 -0.0085,0.04747 0,0.02745 5.92e-4,0.03062 0.0083,0.04687 0.02134,0.04461 0.06084,0.06822 0.110163,0.0659 0.01845,-0.0011 0.02529,-0.0027 0.0415,-0.01033 z m 0.318949,-0.09165 c 0.08983,-0.01905 0.120704,-0.133748 0.05249,-0.195074 -0.0616,-0.05538 -0.157699,-0.03062 -0.184591,0.04752 -0.02195,0.06381 0.01961,0.135588 0.08607,0.148671 0.01721,0.0032 0.02572,0.0032 0.04602,-0.0011 z m -0.0197,0.729339 c 1.1e-5,-5.39e-4 0.0025,-0.0089 0.0055,-0.01846 0.0086,-0.02718 0.0097,-0.07095 0.0027,-0.113195 -0.0031,-0.01889 -0.0056,-0.04639 -0.0056,-0.06142 0,-0.06295 0.02533,-0.113162 0.06902,-0.136805 0.01863,-0.01006 0.04852,-0.0162 0.06847,-0.01399 l 0.01566,0.0016 -0.0072,-0.0094 c -0.01397,-0.0183 -0.01863,-0.04887 -0.01082,-0.07103 0.0097,-0.02755 0.305478,-0.66374 0.311737,-0.670558 0.02161,-0.02352 0.05619,-0.02352 0.07844,0 0.0092,0.0097 0.01289,0.01964 0.01289,0.03444 0,0.0088 -0.03097,0.09587 -0.125868,0.353658 -0.06923,0.188061 -0.128356,0.345952 -0.131397,0.350871 -0.01331,0.02153 -0.03918,0.03579 -0.06488,0.03579 h -0.01325 l 0.01064,0.01157 c 0.02178,0.02363 0.03292,0.0515 0.03281,0.08199 -8.6e-5,0.02389 -0.0036,0.03708 -0.01633,0.06274 -0.03655,0.07326 -0.100951,0.127527 -0.181192,0.152703 -0.01998,0.0063 -0.05148,0.012 -0.05142,0.0094 z m 0.323981,-0.311573 c 0,-5.38e-4 0.0037,-0.0064 0.0081,-0.01275 0.0053,-0.0075 0.0338,-0.0813 0.08291,-0.214647 0.04115,-0.111742 0.07533,-0.203673 0.07595,-0.204298 0.0032,-0.0032 0.03505,0.06314 0.04684,0.0975 0.01859,0.05413 0.01775,0.114627 -0.0024,0.17021 -0.02316,0.06402 -0.07888,0.12187 -0.142481,0.147945 -0.02448,0.01006 -0.06895,0.0204 -0.06895,0.01604 z" id="path7" inkscape:label="paint_icon" /><path style="fill:#000000;stroke-width:1" d="M 3.2400348,87.441427 C 3.17496,87.428609 3.1251811,87.37111 3.095789,87.27489 3.0607868,87.160307 3.0356706,87.009347 3.0096302,86.757089 3.0025448,86.688448 2.9933718,86.603388 2.9892469,86.56806 2.9625829,86.339669 2.9208529,86.20448 2.8543118,86.130951 l -0.019743,-0.02182 0.4270522,9.69e-4 0.4270522,9.68e-4 0.019137,0.0086 c 0.022545,0.01017 0.049947,0.03801 0.060134,0.06103 0.00488,0.01106 0.00894,0.03467 0.012695,0.07379 0.00303,0.03167 0.00505,0.05796 0.00449,0.05843 -5.584e-4,4.73e-4 -0.034884,0.01746 -0.076268,0.03773 -0.041381,0.02028 -0.090892,0.04724 -0.1100166,0.0599 -0.083745,0.05548 -0.1405092,0.130574 -0.1665851,0.220399 -0.00524,0.01804 -0.00811,0.02198 -0.021929,0.03007 -0.049198,0.02883 -0.072283,0.08573 -0.067177,0.165572 0.00305,0.04776 0.010472,0.07887 0.020808,0.08724 0.012019,0.0097 0.031373,0.0084 0.042736,-0.003 0.00923,-0.0092 0.0094,-0.01028 0.00626,-0.03762 -0.00177,-0.01548 -0.00315,-0.04713 -0.0031,-0.07034 1.205e-4,-0.03564 0.00134,-0.04449 0.00787,-0.05688 0.00981,-0.01865 0.017173,-0.02521 0.038554,-0.03438 0.021035,-0.0091 0.025821,-0.01619 0.035789,-0.05371 0.010718,-0.04034 0.040054,-0.09811 0.063463,-0.125003 0.045951,-0.05277 0.071291,-0.06884 0.2395817,-0.151901 0.1977343,-0.09759 0.2775552,-0.146788 0.3769704,-0.232351 0.01398,-0.01203 0.025845,-0.02129 0.026368,-0.02059 0.00284,0.0039 -0.00982,0.09769 -0.019635,0.145581 -0.033667,0.164347 -0.099976,0.299737 -0.1954992,0.399164 -0.064078,0.0667 -0.1369701,0.114619 -0.2153741,0.141594 -0.025869,0.0089 -0.037063,0.0193 -0.037063,0.03446 0,0.02661 -0.031642,0.05369 -0.082002,0.07015 -0.025837,0.0084 -0.038424,0.01006 -0.091762,0.01198 -0.059253,0.0021 -0.062104,0.0026 -0.068821,0.01084 -0.010259,0.01269 -0.00895,0.02849 0.00336,0.0408 0.00854,0.0085 0.014821,0.01084 0.035597,0.01308 0.109783,0.01176 0.2349296,-0.03908 0.2604029,-0.105778 0.00586,-0.01533 0.008,-0.01712 0.032502,-0.02698 0.014428,-0.0058 0.027296,-0.01106 0.028598,-0.01162 0.00131,-5.69e-4 0.00348,0.0035 0.00483,0.0092 0.00135,0.0056 0.015641,0.05524 0.031745,0.110236 0.016103,0.05498 0.03487,0.125184 0.041704,0.155995 0.00684,0.03081 0.016511,0.06879 0.021504,0.0844 l 0.00909,0.02837 -0.2935443,9.68e-4 -0.2935444,9.68e-4 -0.00886,0.01028 c -0.014309,0.01664 -0.0119,0.02965 0.0093,0.05007 0.020616,0.01987 0.023728,0.02835 0.021531,0.05871 -0.00186,0.026 -0.011683,0.04197 -0.035928,0.05851 -0.03526,0.02404 -0.071903,0.03107 -0.1165482,0.02223 z m 0.068639,-0.278696 c 0.00372,-0.002 0.012086,-0.01232 0.018615,-0.02294 0.014877,-0.02423 0.06527,-0.09229 0.104003,-0.140452 0.1916797,-0.238347 0.4318207,-0.474902 0.5555676,-0.547272 0.031313,-0.0183 0.037664,-0.02537 0.037664,-0.04183 0,-0.0233 -0.022864,-0.03885 -0.0434,-0.0295 -0.015,0.0068 -0.080295,0.05017 -0.1070897,0.07108 -0.1344213,0.104929 -0.3167855,0.290971 -0.4737337,0.483296 -0.092586,0.113454 -0.1392313,0.18066 -0.1392313,0.200603 0,0.02343 0.026359,0.03839 0.047606,0.02701 z m 0.1300963,0.265133 c 0.014305,-0.02197 0.021665,-0.0533 0.019546,-0.08321 -0.00104,-0.01429 -0.00305,-0.02888 -0.0045,-0.0324 -0.00254,-0.0061 0.01785,-0.0064 0.3980555,-0.0064 h 0.4007239 l -0.0024,0.0083 c -0.007,0.02404 -0.025616,0.05652 -0.042823,0.07471 -0.022662,0.02399 -0.042383,0.03634 -0.073179,0.04591 -0.021091,0.0066 -0.039527,0.0069 -0.3632952,0.0069 H 3.4298151 Z M 2.5930455,86.236551 c 0,-0.05222 0.00624,-0.07161 0.031023,-0.0964 0.034956,-0.03496 0.071674,-0.03841 0.1246478,-0.01176 0.027621,0.0139 0.057662,0.04208 0.077731,0.07289 0.014727,0.02262 0.034543,0.06273 0.034543,0.06991 0,0.0018 -0.059797,0.0032 -0.1339713,0.0032 H 2.593046 Z" id="path9" inkscape:label="write_icon" /></g><g><g transform="translate(8.0,1.9) scale(1)"><sodipodi:namedview id="namedview1" pagecolor="#ffffff" bordercolor="#000000" borderopacity="0.25" inkscape:showpageshadow="2" inkscape:pageopacity="0.0" inkscape:pagecheckerboard="0" inkscape:deskcolor="#d1d1d1" inkscape:document-units="mm" inkscape:zoom="33.268014" inkscape:cx="13.736919" inkscape:cy="-2.9608019" inkscape:window-width="2560" inkscape:window-height="1369" inkscape:window-x="-8" inkscape:window-y="-8" inkscape:window-maximized="1" inkscape:current-layer="layer1" />
  <defs id="defs1" />
  <g inkscape:label="Layer 1" inkscape:groupmode="layer" id="layer1" transform="translate(-115.62292,-109.27292)">
    <ellipse style="fill:#f9f9f9;stroke:#000000;stroke-width:0.254;stroke-linecap:round;stroke-linejoin:round;stroke-dasharray:none;paint-order:fill markers stroke" id="ellipse19" cx="116.86903" cy="110.5359" rx="1.1191123" ry="1.1359833" />
    <path d="m 117.18924,110.22862 c -0.60013,0.31281 -0.63179,0.79018 -0.68106,1.19627 l 0.14654,0.0108 0.0272,-0.18207 a 0.32958852,0.32958852 0 0 0 0.0972,-0.003 c 0.77995,-0.20899 0.66968,-1.47135 0.66968,-1.47135 -0.0329,0.1608 -0.52449,0.31152 -0.86,0.47742 -0.33553,0.16589 -0.39659,0.50523 -0.35859,0.64705 a 0.45657919,0.45657919 0 0 0 0.19533,0.23264 c 0.0547,-0.71761 0.76373,-0.9076 0.76373,-0.9076 z" id="path1" style="stroke-width:8.81946;fill:#5aa02c" />
  </g>
</g><g transform="translate(10.3,1.9) scale(1)"><sodipodi:namedview id="namedview1" pagecolor="#ffffff" bordercolor="#000000" borderopacity="0.25" inkscape:showpageshadow="2" inkscape:pageopacity="0.0" inkscape:pagecheckerboard="0" inkscape:deskcolor="#d1d1d1" inkscape:document-units="mm" inkscape:zoom="33.268014" inkscape:cx="13.736919" inkscape:cy="-2.9608019" inkscape:window-width="2560" inkscape:window-height="1369" inkscape:window-x="-8" inkscape:window-y="-8" inkscape:window-maximized="1" inkscape:current-layer="layer1" />
  <defs id="defs1" />
  <g inkscape:label="Layer 1" inkscape:groupmode="layer" id="layer1" transform="translate(-115.62292,-109.27292)">
    <ellipse style="fill:#f9f9f9;stroke:#000000;stroke-width:0.254;stroke-linecap:round;stroke-linejoin:round;stroke-dasharray:none;paint-order:fill markers stroke" id="ellipse19" cx="116.86903" cy="110.5359" rx="1.1191123" ry="1.1359833" />
    <path d="m 117.18924,110.22862 c -0.60013,0.31281 -0.63179,0.79018 -0.68106,1.19627 l 0.14654,0.0108 0.0272,-0.18207 a 0.32958852,0.32958852 0 0 0 0.0972,-0.003 c 0.77995,-0.20899 0.66968,-1.47135 0.66968,-1.47135 -0.0329,0.1608 -0.52449,0.31152 -0.86,0.47742 -0.33553,0.16589 -0.39659,0.50523 -0.35859,0.64705 a 0.45657919,0.45657919 0 0 0 0.19533,0.23264 c 0.0547,-0.71761 0.76373,-0.9076 0.76373,-0.9076 z" id="path1" style="stroke-width:8.81946;fill:#5aa02c" />
  </g>
</g><g transform="translate(12.6,1.9) scale(1)"><sodipodi:namedview id="namedview1" pagecolor="#ffffff" bordercolor="#000000" borderopacity="0.25" inkscape:showpageshadow="2" inkscape:pageopacity="0.0" inkscape:pagecheckerboard="0" inkscape:deskcolor="#d1d1d1" inkscape:document-units="mm" inkscape:zoom="45.254834" inkscape:cx="9.3249707" inkscape:cy="-0.54137863" inkscape:window-width="2560" inkscape:window-height="1369" inkscape:window-x="-8" inkscape:window-y="-8" inkscape:window-maximized="1" inkscape:current-layer="layer1" />
  <defs id="defs1" />
  <g inkscape:label="Layer 1" inkscape:groupmode="layer" id="layer1" transform="translate(-115.62292,-109.27292)">
    <ellipse style="fill:#f9f9f9;stroke:#000000;stroke-width:0.254;stroke-linecap:round;stroke-linejoin:round;stroke-dasharray:none;paint-order:fill markers stroke" id="ellipse19" cx="116.86903" cy="110.5359" rx="1.1191123" ry="1.1359833" />
    <path d="m 116.86903,109.58811 c 0,0 -0.65885,0.72428 -0.65885,1.23672 0,0.40428 0.25457,0.65886 0.65885,0.65886 0.40428,0 0.65886,-0.25458 0.65886,-0.65886 0,-0.51244 -0.65886,-1.23672 -0.65886,-1.23672 z" id="path1" style="stroke-width:0.413408;fill:#0000ff" sodipodi:nodetypes="csssc" />
    <path style="fill:none;stroke:#ffffff;stroke-width:0.1;stroke-linecap:round;stroke-linejoin:round;paint-order:fill markers stroke;stroke-dasharray:none" d="m 116.94448,111.19622 c 0.15821,-0.003 0.31287,-0.10617 0.33461,-0.30368" id="path2" sodipodi:nodetypes="cc" />
  </g>
</g><g transform="translate(14.899999999999999,1.9) scale(1)"><sodipodi:namedview id="namedview1" pagecolor="#ffffff" bordercolor="#000000" borderopacity="0.25" inkscape:showpageshadow="2" inkscape:pageopacity="0.0" inkscape:pagecheckerboard="0" inkscape:deskcolor="#d1d1d1" inkscape:document-units="mm" inkscape:zoom="45.254834" inkscape:cx="9.3249707" inkscape:cy="-0.54137863" inkscape:window-width="2560" inkscape:window-height="1369" inkscape:window-x="-8" inkscape:window-y="-8" inkscape:window-maximized="1" inkscape:current-layer="layer1" />
  <defs id="defs1" />
  <g inkscape:label="Layer 1" inkscape:groupmode="layer" id="layer1" transform="translate(-115.62292,-109.27292)">
    <ellipse style="fill:#f9f9f9;stroke:#000000;stroke-width:0.254;stroke-linecap:round;stroke-linejoin:round;stroke-dasharray:none;paint-order:fill markers stroke" id="ellipse19" cx="116.86903" cy="110.5359" rx="1.1191123" ry="1.1359833" />
    <path d="m 116.86903,109.58811 c 0,0 -0.65885,0.72428 -0.65885,1.23672 0,0.40428 0.25457,0.65886 0.65885,0.65886 0.40428,0 0.65886,-0.25458 0.65886,-0.65886 0,-0.51244 -0.65886,-1.23672 -0.65886,-1.23672 z" id="path1" style="stroke-width:0.413408;fill:#0000ff" sodipodi:nodetypes="csssc" />
    <path style="fill:none;stroke:#ffffff;stroke-width:0.1;stroke-linecap:round;stroke-linejoin:round;paint-order:fill markers stroke;stroke-dasharray:none" d="m 116.94448,111.19622 c 0.15821,-0.003 0.31287,-0.10617 0.33461,-0.30368" id="path2" sodipodi:nodetypes="cc" />
  </g>
</g></g><g /><image href="..\images\color\creatures\Khaos Keeper.png" x="1.1571789" y="11.712771" width="61.186001" height="37.612637" preserveAspectRatio="xMidYMid slice" /></svg>