<?xml version='1.0' encoding='utf-8'?>
<svg xmlns="http://www.w3.org/2000/svg" xmlns:inkscape="http://www.inkscape.org/namespaces/inkscape" xmlns:sodipodi="http://sodipodi.sourceforge.net/DTD/sodipodi-0.dtd" width="63.499584mm" height="88.899994mm" viewBox="0 0 63.499584 88.899994" version="1.1" id="svg1" inkscape:version="1.4 (86a8ad7, 2024-10-11)" sodipodi:docname="transform_template.svg" xml:space="preserve"><sodipodi:namedview id="namedview1" pagecolor="#ffffff" bordercolor="#000000" borderopacity="0.25" inkscape:showpageshadow="2" inkscape:pageopacity="0.0" inkscape:pagecheckerboard="0" inkscape:deskcolor="#d1d1d1" inkscape:document-units="mm" inkscape:zoom="2.0000001" inkscape:cx="253.49999" inkscape:cy="213.74999" inkscape:window-width="2560" inkscape:window-height="1369" inkscape:window-x="2552" inkscape:window-y="-8" inkscape:window-maximized="1" inkscape:current-layer="layer1" /><defs id="defs1"><sodipodi:namedview id="namedview5" pagecolor="#ffffff" bordercolor="#000000" borderopacity="0.25" inkscape:showpageshadow="2" inkscape:pageopacity="0.0" inkscape:pagecheckerboard="0" inkscape:deskcolor="#d1d1d1" inkscape:document-units="mm" inkscape:zoom="2" inkscape:cx="56.75" inkscape:cy="135.25" inkscape:window-width="2560" inkscape:window-height="1369" inkscape:window-x="-8" inkscape:window-y="-8" inkscape:window-maximized="1" inkscape:current-layer="layer1" /><defs id="defs5" /><sodipodi:namedview id="namedview5-1" pagecolor="#ffffff" bordercolor="#000000" borderopacity="0.25" inkscape:showpageshadow="2" inkscape:pageopacity="0.0" inkscape:pagecheckerboard="0" inkscape:deskcolor="#d1d1d1" inkscape:document-units="mm" inkscape:zoom="2" inkscape:cx="56.75" inkscape:cy="135.25" inkscape:window-width="2560" inkscape:window-height="1369" inkscape:window-x="-8" inkscape:window-y="-8" inkscape:window-maximized="1" inkscape:current-layer="layer1" /><defs id="defs5-7" /></defs><g inkscape:label="Layer 1" inkscape:groupmode="layer" id="layer1"><g inkscape:label="Layer 1" inkscape:groupmode="layer" id="g10" transform="translate(63.235417)" /><g id="g16" transform="translate(63.235417)" /><rect style="fill:none;stroke:#000000;stroke-width:0.264583;stroke-linecap:round;stroke-linejoin:round;paint-order:markers fill stroke" id="full_image" width="63.235001" height="88.635414" x="0.13229179" y="0.13229018" /><rect style="fill:#ffffff;stroke:#000000;stroke-width:0.254;stroke-linecap:round;stroke-linejoin:round;stroke-dasharray:none;paint-order:markers fill stroke" id="title_box" width="58.60799" height="6.9283738" x="-62.343182" y="2.9133298" ry="1.529641" rx="1.5296412" transform="scale(-1,1)" /><path sodipodi:type="star" style="fill:#ffffff;stroke:#000000;stroke-width:0.264583;stroke-linecap:round;stroke-linejoin:round;paint-order:markers fill stroke" id="power_star" inkscape:flatsided="true" sodipodi:sides="5" sodipodi:cx="34.479534" sodipodi:cy="108.15691" sodipodi:r1="4.0164261" sodipodi:r2="3.249357" sodipodi:arg1="-1.5707963" sodipodi:arg2="-0.9424778" inkscape:rounded="0.075532484" inkscape:randomized="0" d="m 34.479534,104.14049 c 0.356634,0 3.709643,2.4361 3.819848,2.77528 0.110206,0.33918 -1.170529,4.28088 -1.459052,4.4905 -0.288523,0.20962 -4.433069,0.20962 -4.721592,0 -0.288523,-0.20962 -1.569258,-4.15132 -1.459052,-4.4905 0.110206,-0.33918 3.463215,-2.77528 3.819848,-2.77528 z" inkscape:transform-center-y="-0.30492557" transform="matrix(-1,0,0,1,39.469949,-101.47447)" /><text xml:space="preserve" style="font-style:normal;font-variant:normal;font-weight:normal;font-stretch:normal;font-size:4.93889px;font-family:serif;-inkscape-font-specification:serif;text-align:start;writing-mode:lr-tb;direction:ltr;text-anchor:start;fill:#000000;stroke:none;stroke-width:0.264583;stroke-linecap:round;stroke-linejoin:round;paint-order:markers fill stroke" x="9.5349436" y="8.7790995" id="title" textLength="51.0"><tspan sodipodi:role="line" id="tspan5" style="font-style:normal;font-variant:normal;font-weight:normal;font-stretch:normal;font-size:4.93889px;font-family:serif;-inkscape-font-specification:serif;stroke-width:0.264583" x="9.5349436" y="8.7790995">Reckoning of the Wastes</tspan></text><text xml:space="preserve" style="font-size:4.93889px;text-align:center;writing-mode:lr-tb;direction:ltr;text-anchor:middle;fill:#000000;stroke:none;stroke-width:0.254;stroke-linecap:round;stroke-linejoin:round;stroke-dasharray:none;paint-order:fill markers stroke" x="4.9880033" y="8.7670412" id="power"><tspan sodipodi:role="line" id="tspan14" style="font-size:4.93889px;text-align:center;text-anchor:middle;fill:#000000;stroke:none;stroke-width:0.254" x="4.9880033" y="8.7670412">4</tspan></text><rect style="fill:#ffffff;stroke:#000000;stroke-width:0.254;stroke-linecap:round;stroke-linejoin:round;stroke-dasharray:none;paint-order:markers fill stroke" id="rect12" width="58.60799" height="6.9283738" x="1.156973" y="-85.986664" ry="1.529641" rx="1.5296412" transform="scale(1,-1)" inkscape:label="title_box2" /><path sodipodi:type="star" style="fill:#ffffff;stroke:#000000;stroke-width:0.264583;stroke-linecap:round;stroke-linejoin:round;paint-order:markers fill stroke" id="path12" inkscape:flatsided="true" sodipodi:sides="5" sodipodi:cx="34.479534" sodipodi:cy="108.15691" sodipodi:r1="4.0164261" sodipodi:r2="3.249357" sodipodi:arg1="-1.5707963" sodipodi:arg2="-0.9424778" inkscape:rounded="0.075532484" inkscape:randomized="0" d="m 34.479534,104.14049 c 0.356634,0 3.709643,2.4361 3.819848,2.77528 0.110206,0.33918 -1.170529,4.28088 -1.459052,4.4905 -0.288523,0.20962 -4.433069,0.20962 -4.721592,0 -0.288523,-0.20962 -1.569258,-4.15132 -1.459052,-4.4905 0.110206,-0.33918 3.463215,-2.77528 3.819848,-2.77528 z" transform="matrix(1,0,0,-1,24.0302,190.37446)" inkscape:transform-center-y="0.30491756" inkscape:label="power_star2" /><text xml:space="preserve" style="font-style:normal;font-variant:normal;font-weight:normal;font-stretch:normal;font-size:4.93889px;font-family:serif;-inkscape-font-specification:serif;text-align:start;writing-mode:lr-tb;direction:ltr;text-anchor:start;fill:#000000;stroke:none;stroke-width:0.264583;stroke-linecap:round;stroke-linejoin:round;paint-order:markers fill stroke" x="-53.965202" y="-80.120895" id="title2" transform="scale(-1)" inkscape:label="title2" textLength="51.0"><tspan sodipodi:role="line" id="tspan16" style="font-style:normal;font-variant:normal;font-weight:normal;font-stretch:normal;font-size:4.93889px;font-family:serif;-inkscape-font-specification:serif;stroke-width:0.264583" x="-53.965202" y="-80.120895">Pyroclastic Oblivion</tspan></text><text xml:space="preserve" style="font-size:4.93889px;text-align:center;writing-mode:lr-tb;direction:ltr;text-anchor:middle;fill:#000000;stroke:none;stroke-width:0.254;stroke-linecap:round;stroke-linejoin:round;stroke-dasharray:none;paint-order:fill markers stroke" x="-58.512138" y="-80.132965" id="power2" transform="scale(-1)" inkscape:label="power2"><tspan sodipodi:role="line" id="tspan17" style="font-size:4.93889px;text-align:center;text-anchor:middle;fill:#000000;stroke:none;stroke-width:0.254" x="-58.512138" y="-80.132965">8</tspan></text><rect style="fill:#ffffff;stroke:#000000;stroke-width:0.260005;stroke-linecap:round;stroke-linejoin:round;paint-order:fill markers stroke" id="rect30" width="61.190224" height="12.969657" x="1.1548898" y="29.159206" ry="1.5296409" rx="1.529641" /><text xml:space="preserve" style="font-style:normal;font-variant:normal;font-weight:normal;font-stretch:normal;font-size:4.23333px;line-height:1;font-family:serif;-inkscape-font-specification:serif;text-align:start;writing-mode:lr-tb;direction:ltr;text-anchor:start;white-space:pre;inline-size:58.4828;display:inline;fill:#000000;stroke:none;stroke-width:0.264583;stroke-linecap:round;stroke-linejoin:round;paint-order:markers fill stroke" x="6.4598289" y="86.537384" id="effect" transform="translate(-3.9402682,-53.875206)" inkscape:label="effect"><tspan x="6.4598289" y="86.537384" id="tspan3">On Play: Destroy all your creatures here. Transform if you have destroyed three or more creatures this way.</tspan></text><rect style="fill:#ffffff;stroke:#000000;stroke-width:0.264583;stroke-linecap:round;stroke-linejoin:round;paint-order:fill markers stroke" id="rect37" width="61.185642" height="13.431423" x="-62.342819" y="-59.738499" ry="1.5296409" rx="1.529641" transform="scale(-1)" /><text xml:space="preserve" style="font-style:normal;font-variant:normal;font-weight:normal;font-stretch:normal;font-size:4.23333px;font-family:serif;-inkscape-font-specification:serif;text-align:start;writing-mode:lr-tb;direction:ltr;text-anchor:start;white-space:pre;inline-size:58.4828;display:inline;fill:#000000;stroke:none;stroke-width:0.264583;stroke-linecap:round;stroke-linejoin:round;paint-order:markers fill stroke" x="6.4598289" y="86.537384" id="effect2" transform="rotate(180,33.720134,71.3876)" inkscape:label="effect2"><tspan x="6.4598289" y="86.537384" id="tspan4">No Effect.</tspan></text><text xml:space="preserve" style="font-style:normal;font-variant:normal;font-weight:normal;font-stretch:normal;font-size:3.52778px;font-family:serif;-inkscape-font-specification:serif;text-align:start;writing-mode:lr-tb;direction:ltr;text-anchor:start;fill:#000000;stroke:none;stroke-width:0.264583;stroke-linecap:round;stroke-linejoin:round;paint-order:markers fill stroke" x="2.9321272" y="45.004028" id="type" inkscape:label="type"><tspan sodipodi:role="line" id="tspan33" style="font-style:normal;font-variant:normal;font-weight:normal;font-stretch:normal;font-size:3.52778px;font-family:serif;-inkscape-font-specification:serif;text-align:start;text-anchor:start;fill:#000000;stroke:none;stroke-width:0.264583" x="2.9321272" y="45.004028">Creature — Demon</tspan></text><text xml:space="preserve" style="font-style:normal;font-variant:normal;font-weight:normal;font-stretch:normal;font-size:3.52778px;font-family:serif;-inkscape-font-specification:serif;text-align:start;writing-mode:lr-tb;direction:ltr;text-anchor:start;fill:#000000;stroke:none;stroke-width:0.264583;stroke-linecap:round;stroke-linejoin:round;paint-order:markers fill stroke" x="-60.567871" y="-43.429619" id="type2" transform="scale(-1)" inkscape:label="type2"><tspan sodipodi:role="line" id="tspan38" style="font-style:normal;font-variant:normal;font-weight:normal;font-stretch:normal;font-size:3.52778px;font-family:serif;-inkscape-font-specification:serif;text-align:start;text-anchor:start;fill:#000000;stroke:none;stroke-width:0.264583" x="-60.567871" y="-43.429619">Creature — Demon</tspan></text><rect style="fill:none;stroke:#000000;stroke-width:0.254;stroke-linecap:round;stroke-linejoin:round;stroke-dasharray:none;paint-order:markers fill stroke" id="image_frame2" width="61.186001" height="16.845797" x="1.157176" y="60.341431" inkscape:label="image_frame2" /><rect style="fill:none;stroke:#000000;stroke-width:0.254;stroke-linecap:round;stroke-linejoin:round;stroke-dasharray:none;paint-order:markers fill stroke" id="image_frame" width="61.186001" height="16.845797" x="1.1571789" y="11.712771" inkscape:label="image_frame1" /><g inkscape:label="Layer 1" inkscape:groupmode="layer" id="g10-1" transform="translate(63.632293)" /><g id="g16-7" transform="translate(63.632293)" /></g><g><g transform="translate(8.0,1.9)"><sodipodi:namedview id="namedview1" pagecolor="#ffffff" bordercolor="#000000" borderopacity="0.25" inkscape:showpageshadow="2" inkscape:pageopacity="0.0" inkscape:pagecheckerboard="0" inkscape:deskcolor="#d1d1d1" inkscape:document-units="mm" inkscape:zoom="32" inkscape:cx="7.640625" inkscape:cy="9.078125" inkscape:window-width="2560" inkscape:window-height="1369" inkscape:window-x="-8" inkscape:window-y="-8" inkscape:window-maximized="1" inkscape:current-layer="layer1" />
  <defs id="defs1" />
  <g inkscape:label="Layer 1" inkscape:groupmode="layer" id="layer1" transform="translate(-115.62292,-109.27292)">
    <ellipse style="fill:#f9f9f9;stroke:#000000;stroke-width:0.254;stroke-linecap:round;stroke-linejoin:round;stroke-dasharray:none;paint-order:fill markers stroke" id="ellipse19" cx="116.86903" cy="110.5359" rx="1.1191123" ry="1.1359833" inkscape:label="circle" />
    <text xml:space="preserve" style="font-size:2.11667px;text-align:center;writing-mode:lr-tb;direction:ltr;text-anchor:middle;fill:#000000;stroke-width:0.254;stroke-linecap:round;stroke-linejoin:round;paint-order:markers fill stroke" x="116.83803" y="111.30795" id="number" inkscape:label="number"><tspan sodipodi:role="line" id="tspan1" style="font-size:2.11667px;text-align:center;text-anchor:middle;fill:#000000;stroke-width:0.254" x="116.83803" y="111.30795">1</tspan></text>
  </g>
</g><g transform="translate(10.3,1.9) scale(1)"><sodipodi:namedview id="namedview1" pagecolor="#ffffff" bordercolor="#000000" borderopacity="0.25" inkscape:showpageshadow="2" inkscape:pageopacity="0.0" inkscape:pagecheckerboard="0" inkscape:deskcolor="#d1d1d1" inkscape:document-units="mm" inkscape:zoom="33.268014" inkscape:cx="6.192134" inkscape:cy="1.6081513" inkscape:window-width="2560" inkscape:window-height="1369" inkscape:window-x="-8" inkscape:window-y="-8" inkscape:window-maximized="1" inkscape:current-layer="layer1" />
  <defs id="defs1" />
  <g inkscape:label="Layer 1" inkscape:groupmode="layer" id="layer1" transform="translate(-115.62292,-109.27292)">
    <g id="g21" transform="translate(102.85442,83.671549)">
      <ellipse style="fill:#f9f9f9;stroke:#000000;stroke-width:0.254;stroke-linecap:round;stroke-linejoin:round;stroke-dasharray:none;paint-order:fill markers stroke" id="ellipse19" cx="14.014612" cy="26.864349" rx="1.1191123" ry="1.1359833" />
      <g style="fill:none;stroke-width:105.597" id="g20" transform="matrix(0.08351983,0,0,0.08351983,13.011781,25.84863)">
        <path d="m 5.926,20.574 a 7.26,7.26 0 0 0 3.039,1.511 C 9.072,22.12 9.144,21.98 9.072,21.91 6.677,19.625 7.993,17.152 8.965,16.037 c 0.693,-0.796 1.68,-2.107 1.608,-3.865 0,-0.176 0.18,-0.317 0.322,-0.211 1.359,0.703 2.288,2.25 2.538,3.515 0.394,-0.386 0.537,-0.984 0.537,-1.511 0,-0.176 0.214,-0.317 0.393,-0.176 1.287,1.16 3.503,5.097 -0.072,8.19 -0.071,0.071 0,0.212 0.072,0.177 a 8.761,8.761 0 0 0 3.003,-1.442 C 23.193,16.214 19.403,8.234 16.936,5.598 16.615,5.281 16.043,5.492 16.043,5.949 16.007,6.899 15.721,7.953 14.971,8.656 14.399,6.266 12.493,3.551 9.776,2.215 9.419,2.039 8.99,2.32 9.026,2.707 c 0.07,3.27 -2.063,5.352 -3.922,8.059 -1.645,2.425 -2.717,6.89 0.822,9.808 z" fill="#000000" id="path19" style="stroke-width:105.597;fill:#d40000" />
      </g>
    </g>
  </g>
</g><g transform="translate(12.6,1.9) scale(1)"><sodipodi:namedview id="namedview1" pagecolor="#ffffff" bordercolor="#000000" borderopacity="0.25" inkscape:showpageshadow="2" inkscape:pageopacity="0.0" inkscape:pagecheckerboard="0" inkscape:deskcolor="#d1d1d1" inkscape:document-units="mm" inkscape:zoom="33.268014" inkscape:cx="6.192134" inkscape:cy="1.6081513" inkscape:window-width="2560" inkscape:window-height="1369" inkscape:window-x="-8" inkscape:window-y="-8" inkscape:window-maximized="1" inkscape:current-layer="layer1" />
  <defs id="defs1" />
  <g inkscape:label="Layer 1" inkscape:groupmode="layer" id="layer1" transform="translate(-115.62292,-109.27292)">
    <g id="g21" transform="translate(102.85442,83.671549)">
      <ellipse style="fill:#f9f9f9;stroke:#000000;stroke-width:0.254;stroke-linecap:round;stroke-linejoin:round;stroke-dasharray:none;paint-order:fill markers stroke" id="ellipse19" cx="14.014612" cy="26.864349" rx="1.1191123" ry="1.1359833" />
      <g style="fill:none;stroke-width:105.597" id="g20" transform="matrix(0.08351983,0,0,0.08351983,13.011781,25.84863)">
        <path d="m 5.926,20.574 a 7.26,7.26 0 0 0 3.039,1.511 C 9.072,22.12 9.144,21.98 9.072,21.91 6.677,19.625 7.993,17.152 8.965,16.037 c 0.693,-0.796 1.68,-2.107 1.608,-3.865 0,-0.176 0.18,-0.317 0.322,-0.211 1.359,0.703 2.288,2.25 2.538,3.515 0.394,-0.386 0.537,-0.984 0.537,-1.511 0,-0.176 0.214,-0.317 0.393,-0.176 1.287,1.16 3.503,5.097 -0.072,8.19 -0.071,0.071 0,0.212 0.072,0.177 a 8.761,8.761 0 0 0 3.003,-1.442 C 23.193,16.214 19.403,8.234 16.936,5.598 16.615,5.281 16.043,5.492 16.043,5.949 16.007,6.899 15.721,7.953 14.971,8.656 14.399,6.266 12.493,3.551 9.776,2.215 9.419,2.039 8.99,2.32 9.026,2.707 c 0.07,3.27 -2.063,5.352 -3.922,8.059 -1.645,2.425 -2.717,6.89 0.822,9.808 z" fill="#000000" id="path19" style="stroke-width:105.597;fill:#d40000" />
      </g>
    </g>
  </g>
</g></g><g /><g /><image href="..\images\color\creatures\Reckoning of the Wastes.png" x="1.1571789" y="11.712771" width="61.186001" height="16.845797" preserveAspectRatio="xMidYMid slice" /><image href="..\images\color\creatures\Pyroclastic Oblivion.png" x="1.157176" y="60.341431" width="61.186001" height="16.845797" preserveAspectRatio="xMidYMid slice" transform="rotate(180, 31.7501765, 68.7643295)" /></svg>