<?xml version="1.0" encoding="UTF-8" standalone="no"?>
<svg
   width="297mm"
   height="210mm"
   viewBox="0 0 297 210"
   version="1.1"
   id="svg1"
   inkscape:version="1.4 (86a8ad7, 2024-10-11)"
   sodipodi:docname="awaken_the_beast_slim.svg"
   xml:space="preserve"
   inkscape:export-filename="new_box_template.pdf"
   inkscape:export-xdpi="600"
   inkscape:export-ydpi="600"
   xmlns:inkscape="http://www.inkscape.org/namespaces/inkscape"
   xmlns:sodipodi="http://sodipodi.sourceforge.net/DTD/sodipodi-0.dtd"
   xmlns:xlink="http://www.w3.org/1999/xlink"
   xmlns="http://www.w3.org/2000/svg"
   xmlns:svg="http://www.w3.org/2000/svg"><sodipodi:namedview
     id="namedview1"
     pagecolor="#ffffff"
     bordercolor="#000000"
     borderopacity="0.25"
     inkscape:showpageshadow="2"
     inkscape:pageopacity="0.0"
     inkscape:pagecheckerboard="0"
     inkscape:deskcolor="#d1d1d1"
     inkscape:document-units="mm"
     inkscape:zoom="1.4702523"
     inkscape:cx="681.17559"
     inkscape:cy="424.75702"
     inkscape:window-width="2560"
     inkscape:window-height="1369"
     inkscape:window-x="-8"
     inkscape:window-y="-8"
     inkscape:window-maximized="1"
     inkscape:current-layer="layer1" /><defs
     id="defs1"><pattern
       inkscape:collect="always"
       xlink:href="#pattern"
       preserveAspectRatio="xMidYMid"
       id="pattern2"
       patternTransform="matrix(-0.15322454,0,0,0.1532214,297.70509,-699.8241)"
       x="397"
       y="-74" /><clipPath
       clipPathUnits="userSpaceOnUse"
       id="clipPath860"><path
         d="M 0,936 H 1368 V 0 H 0 Z"
         transform="translate(-705.82032,-596.50102)"
         id="path860" /></clipPath><clipPath
       clipPathUnits="userSpaceOnUse"
       id="clipPath876"><path
         d="M 0,936 H 1368 V 0 H 0 Z"
         transform="translate(-891.49022,-596.50102)"
         id="path876" /></clipPath><clipPath
       clipPathUnits="userSpaceOnUse"
       id="clipPath930"><path
         d="M 0,936 H 1368 V 0 H 0 Z"
         transform="translate(-727.65042,-655.09082)"
         id="path930" /></clipPath><clipPath
       clipPathUnits="userSpaceOnUse"
       id="clipPath954"><path
         d="M 0,936 H 1368 V 0 H 0 Z"
         transform="translate(-866.83112,-652.25102)"
         id="path954" /></clipPath><clipPath
       clipPathUnits="userSpaceOnUse"
       id="clipPath976"><path
         d="M 0,936 H 1368 V 0 H 0 Z"
         transform="translate(-947.90042,-340.15921)"
         id="path976" /></clipPath><clipPath
       clipPathUnits="userSpaceOnUse"
       id="clipPath1"><path
         d="M 0,936 H 1368 V 0 H 0 Z"
         transform="translate(-947.90042,-340.15921)"
         id="path1" /></clipPath><pattern
       patternUnits="userSpaceOnUse"
       width="1023.9999"
       height="631.99997"
       patternTransform="translate(-0.49333052,-702.73612)"
       preserveAspectRatio="xMidYMid"
       id="pattern"
       style="fill:#000000"
       inkscape:label="pattern"><image
         width="1023.9999"
         height="632"
         preserveAspectRatio="none"
         xlink:href="../images/color/creatures/Aeropex.png"
         id="pattern_image"
         x="0"
         y="0"
         href="..%5Cimages%5Ccolor%5Ccreatures%5CKhaosian%20Chosen%20One.png" /></pattern><clipPath
       clipPathUnits="userSpaceOnUse"
       id="clipPath693"><path
         d="M 0,936 H 1368 V 0 H 0 Z"
         transform="translate(-701.57032,-596.50001)"
         id="path693" /></clipPath><clipPath
       clipPathUnits="userSpaceOnUse"
       id="clipPath709"><path
         d="M 0,936 H 1368 V 0 H 0 Z"
         transform="translate(-887.2402,-596.50001)"
         id="path709" /></clipPath><clipPath
       clipPathUnits="userSpaceOnUse"
       id="clipPath763"><path
         d="M 0,936 H 1368 V 0 H 0 Z"
         transform="translate(-723.40042,-633.82961)"
         id="path763" /></clipPath><clipPath
       clipPathUnits="userSpaceOnUse"
       id="clipPath775"><path
         d="M 0,936 H 1368 V 0 H 0 Z"
         transform="translate(-723.40042,-633.82961)"
         id="path775" /></clipPath><clipPath
       clipPathUnits="userSpaceOnUse"
       id="clipPath787"><path
         d="M 0,936 H 1368 V 0 H 0 Z"
         transform="translate(-862.58012,-630.98972)"
         id="path787" /></clipPath><clipPath
       clipPathUnits="userSpaceOnUse"
       id="clipPath109-0"><path
         d="M 0,936 H 1368 V 0 H 0 Z"
         transform="translate(-706.74902,-340.15821)"
         id="path109-9" /></clipPath></defs><g
     inkscape:label="Layer 1"
     inkscape:groupmode="layer"
     id="layer1"><path
       d="m 224.55108,158.06982 v 12.47505 l -66.94719,1.4e-4 -1e-4,-12.52988 c -0.0297,-0.55538 -0.76567,-0.4411 -0.72264,0.0547 l -8e-5,6.61183 -2.06344,2.04823 -0.70229,4.99128 -8.6831,-4e-5 1e-5,-12.73471 c 2e-5,-0.50666 -0.41848,-0.91667 -0.93162,-0.91667 -0.50949,0 -0.928,0.41001 -0.928,0.91667 v 12.73463 l -66.947204,1.3e-4 -1.03e-4,-12.52988 c -7.4e-5,-0.61488 -0.429502,-1.1467 -1.033616,-1.28289 l -11.656145,-4.12529 -5.5e-5,-83.524827 12.377019,-4.074905 24.743124,3.8e-5 c 0.96404,3.4e-5 1.79742,0.657624 2.01228,1.584665 0.74619,3.244779 3.66849,5.548142 7.03841,5.548142 3.36994,0.0036 6.29223,-2.296176 7.04191,-5.541007 0.21472,-0.927095 1.05174,-1.581093 2.01253,-1.581074 l 25.13583,1.6e-5 8e-5,-6.622652 2.06351,-2.04827 0.69881,-4.980367 8.68691,2e-5 -7e-5,12.731326 c -7e-5,0.506669 0.41516,0.919908 0.92757,0.919908 0.51313,0 0.92837,-0.413239 0.92837,-0.919908 V 52.542834 l 0.31274,1.08e-4 v -1.627859 c 0,-4.502573 3.69383,-8.149863 8.25013,-8.149809 l 49.8283,5.4e-5 c 4.55665,0 8.25082,3.64729 8.25082,8.149808 l -3e-5,1.627806 0.30919,-1.08e-4 8e-5,12.731381 c 8e-5,0.506669 0.41859,0.919908 0.92735,0.919908 0.51352,0 0.93201,-0.413239 0.93201,-0.919908 V 52.542888 l 8.68645,-1.9e-5 0.69944,4.980367 2.06344,2.048267 v 6.622655 91.897422 c -0.58264,-0.12928 -1.13582,0.30517 -1.13582,0.89483 v 12.73472 l -8.68647,3e-5 -0.69871,-4.99128 -2.06344,-2.04823 v -6.61183 c -0.0104,-0.57815 -0.72878,-0.54684 -0.72619,0 z"
       style="fill:#019e91;stroke-width:0.999993"
       id="background_color"
       sodipodi:nodetypes="ccccccccccscccccccccccccccccccsccccccccccscccccccccccccc"
       inkscape:label="background_color"
       inkscape:export-filename="awaken_the_beast.png"
       inkscape:export-xdpi="600"
       inkscape:export-ydpi="600" /><path
       d="m 76.312526,66.183375 24.743124,3.7e-5 c 0.96404,3.5e-5 1.79742,0.657625 2.01228,1.584666 0.74619,3.244778 3.66849,5.548142 7.03841,5.548142 3.36994,0.0036 6.29223,-2.296176 7.04191,-5.541008 0.21472,-0.927095 1.05174,-1.581092 2.01253,-1.581074 l 25.13583,1.7e-5 c 0,0 11.8644,-3.5e-5 12.37681,-3.5e-5 0.51313,0 0.92837,-0.413239 0.92837,-0.919908 h 66.95123 c 0.004,23.153503 -0.005,92.248698 -0.003,92.795528 0,0 -79.53731,0 -80.05044,0 -0.5095,0 -0.928,0.41 -0.928,0.91667 l -66.947314,0.20487 z"
       style="fill:url(#pattern2);fill-opacity:1;stroke:#231f20;stroke-width:0.352778;stroke-linecap:butt;stroke-linejoin:miter;stroke-miterlimit:4;stroke-dasharray:none;stroke-opacity:1"
       id="image"
       sodipodi:nodetypes="cccccccscccsccc"
       inkscape:label="image" /><path
       id="path692"
       d="M 0,0 V -33.51"
       style="fill:none;stroke:#231f20;stroke-width:0.975531;stroke-linecap:butt;stroke-linejoin:miter;stroke-miterlimit:4;stroke-dasharray:none;stroke-opacity:1"
       transform="matrix(0.36392296,0,0,-0.359339,157.2926,65.956921)"
       clip-path="url(#clipPath693)" /><path
       id="path708"
       d="M 0,0 V -33.51"
       style="fill:none;stroke:#231f20;stroke-width:0.975531;stroke-linecap:butt;stroke-linejoin:miter;stroke-miterlimit:4;stroke-dasharray:none;stroke-opacity:1"
       transform="matrix(0.36392296,0,0,-0.359339,224.86213,65.956921)"
       clip-path="url(#clipPath709)" /><path
       id="path762"
       d="M 0,0 H -20.98"
       style="fill:none;stroke:#231f20;stroke-width:0.975531;stroke-linecap:butt;stroke-linejoin:miter;stroke-miterlimit:4;stroke-dasharray:none;stroke-opacity:1"
       transform="matrix(0.36392296,0,0,-0.359339,165.23707,52.542939)"
       clip-path="url(#clipPath763)" /><path
       id="path774"
       d="M 0,0 C 1.57,0 2.84,-1.27 2.84,-2.84"
       style="fill:none;stroke:#231f20;stroke-width:0.975531;stroke-linecap:butt;stroke-linejoin:miter;stroke-miterlimit:4;stroke-dasharray:none;stroke-opacity:1"
       transform="matrix(0.36392296,0,0,-0.359339,165.23707,52.542939)"
       clip-path="url(#clipPath775)" /><path
       id="path786"
       d="m 0,0 c 0.01,1.56 1.279,2.83 2.8399,2.8399488 l 20.9709,-5.12e-5"
       style="fill:none;stroke:#231f20;stroke-width:0.975531;stroke-linecap:butt;stroke-linejoin:miter;stroke-miterlimit:4;stroke-dasharray:none;stroke-opacity:1"
       transform="matrix(0.36392296,0,0,-0.359339,215.88776,53.563425)"
       clip-path="url(#clipPath787)"
       sodipodi:nodetypes="ccc" /><text
       xml:space="preserve"
       style="font-size:4.65049px;font-family:Arial;-inkscape-font-specification:Arial;text-align:center;writing-mode:lr-tb;direction:ltr;text-anchor:middle;fill:#ffffff;stroke:#000000;stroke-width:0.370998;stroke-linejoin:round;stroke-dasharray:none;paint-order:markers stroke fill"
       x="189.91307"
       y="61.292824"
       id="top_title"
       inkscape:label="top_title"
       transform="scale(1.0063581,0.99368206)"><tspan
         sodipodi:role="line"
         id="tspan1"
         style="font-style:normal;font-variant:normal;font-weight:bold;font-stretch:normal;font-size:4.65049px;font-family:Arial;-inkscape-font-specification:'Arial Bold';fill:#ffffff;stroke:#000000;stroke-width:0.370998;stroke-dasharray:none;paint-order:markers stroke fill"
         x="189.91307"
         y="61.292824">AWAKEN THE BEAST</tspan></text><text
       xml:space="preserve"
       style="font-size:4.65077px;font-family:Arial;-inkscape-font-specification:Arial;text-align:center;writing-mode:lr-tb;direction:ltr;text-anchor:middle;fill:#ffffff;stroke:#000000;stroke-width:0.370998;stroke-linejoin:round;stroke-dasharray:none;paint-order:markers stroke fill"
       x="189.91307"
       y="137.95941"
       id="front_title"
       inkscape:label="front_title"
       transform="scale(1.0063581,0.99368206)"><tspan
         sodipodi:role="line"
         id="tspan2"
         style="font-style:normal;font-variant:normal;font-weight:bold;font-stretch:normal;font-size:4.65077px;font-family:Arial;-inkscape-font-specification:'Arial Bold';fill:#ffffff;stroke:#000000;stroke-width:0.370998;stroke-dasharray:none;paint-order:markers stroke fill"
         x="189.91307"
         y="137.95941">AWAKEN THE BEAST</tspan></text><text
       xml:space="preserve"
       style="font-size:4.65077px;font-family:Arial;-inkscape-font-specification:Arial;text-align:center;writing-mode:lr-tb;direction:ltr;text-anchor:middle;fill:#ffffff;stroke:#000000;stroke-width:0.370998;stroke-linejoin:round;stroke-dasharray:none;paint-order:markers stroke fill"
       x="189.77484"
       y="155.25417"
       id="Starter Deck"
       inkscape:label="Starter Deck"
       transform="scale(1.0063581,0.99368206)"><tspan
         sodipodi:role="line"
         id="tspan3"
         style="font-size:4.65077px;fill:#ffffff;stroke:#000000;stroke-width:0.370998;stroke-dasharray:none;paint-order:markers stroke fill"
         x="189.77484"
         y="155.25417">Starter Deck</tspan></text><text
       xml:space="preserve"
       style="font-size:4.65049px;font-family:Arial;-inkscape-font-specification:Arial;text-align:center;writing-mode:lr-tb;direction:ltr;text-anchor:middle;fill:#ffffff;stroke:#000000;stroke-width:0.370998;stroke-linejoin:round;stroke-dasharray:none;paint-order:markers stroke fill"
       x="109.2422"
       y="148.96954"
       id="content_text"
       inkscape:label="content_text"
       transform="scale(1.0063581,0.99368206)"><tspan
         sodipodi:role="line"
         style="font-size:4.65049px;fill:#ffffff;stroke:#000000;stroke-width:0.370998;stroke-dasharray:none;paint-order:markers stroke fill"
         x="109.2422"
         y="148.96954"
         id="tspan5">Battle ready 15-card deck</tspan></text><text
       xml:space="preserve"
       style="font-size:4.65077px;font-family:Arial;-inkscape-font-specification:Arial;text-align:center;writing-mode:lr-tb;direction:ltr;text-anchor:middle;fill:#ffffff;stroke:#000000;stroke-width:0.370998;stroke-linejoin:round;stroke-dasharray:none;paint-order:markers stroke fill"
       x="109.40569"
       y="143.26068"
       id="Contents"
       inkscape:label="Contents"
       transform="scale(1.0063581,0.99368206)"><tspan
         sodipodi:role="line"
         id="tspan6"
         style="font-style:normal;font-variant:normal;font-weight:bold;font-stretch:normal;font-size:4.65077px;font-family:Arial;-inkscape-font-specification:'Arial Bold';fill:#ffffff;stroke:#000000;stroke-width:0.370998;stroke-dasharray:none;paint-order:markers stroke fill"
         x="109.40569"
         y="143.26068">Contents</tspan></text><text
       xml:space="preserve"
       style="font-size:4.23333px;font-family:Arial;-inkscape-font-specification:Arial;text-align:center;writing-mode:lr-tb;direction:ltr;text-anchor:middle;white-space:pre;inline-size:50.5795;display:inline;fill:#ffffff;stroke:#000000;stroke-width:0.361924;stroke-linejoin:round;stroke-dasharray:none;paint-order:markers stroke fill"
       x="102.57593"
       y="107.61475"
       id="explanation_text"
       transform="matrix(1.0315927,0,0,1.0185988,4.1253553,2.9686382)"
       inkscape:label="explanation_text"><tspan
         x="102.57593"
         y="107.61475"
         id="tspan4">Take control of your fate!<tspan
   y="107.61475"
   id="tspan14"> </tspan></tspan><tspan
         x="102.57593"
         y="112.90641"
         id="tspan15">Manipulate the top of your<tspan
   y="112.90641"
   id="tspan16"> </tspan></tspan><tspan
         x="102.57593"
         y="118.19808"
         id="tspan17">deck and unleash its<tspan
   y="118.19808"
   id="tspan18"> </tspan></tspan><tspan
         x="102.57593"
         y="123.48974"
         id="tspan19">power without cost.</tspan></text></g><g
     id="g7"><g
       transform="translate(185.317,144.245) scale(2)"
       id="g4"><sodipodi:namedview
   id="namedview2"
   pagecolor="#ffffff"
   bordercolor="#000000"
   borderopacity="0.25"
   inkscape:showpageshadow="2"
   inkscape:pageopacity="0.0"
   inkscape:pagecheckerboard="0"
   inkscape:deskcolor="#d1d1d1"
   inkscape:document-units="mm"
   inkscape:zoom="33.268014"
   inkscape:cx="13.721889"
   inkscape:cy="-2.9608019"
   inkscape:window-width="2560"
   inkscape:window-height="1369"
   inkscape:window-x="-8"
   inkscape:window-y="-8"
   inkscape:window-maximized="1"
   inkscape:current-layer="layer1" />
  <defs
   id="defs2" />
  <g
   inkscape:label="Layer 1"
   inkscape:groupmode="layer"
   id="g3"
   transform="translate(-115.62292,-109.27292)">
    <ellipse
   style="fill:#ffffff;stroke:#ffffff;stroke-width:0.254;stroke-linecap:round;stroke-linejoin:round;stroke-dasharray:none;paint-order:fill markers stroke"
   id="ellipse19"
   cx="116.86903"
   cy="110.5359"
   rx="1.1191123"
   ry="1.1359833" />
    <path
   d="m 117.18924,110.22862 c -0.60013,0.31281 -0.63179,0.79018 -0.68106,1.19627 l 0.14654,0.0108 0.0272,-0.18207 a 0.32958852,0.32958852 0 0 0 0.0972,-0.003 c 0.77995,-0.20899 0.66968,-1.47135 0.66968,-1.47135 -0.0329,0.1608 -0.52449,0.31152 -0.86,0.47742 -0.33553,0.16589 -0.39659,0.50523 -0.35859,0.64705 a 0.45657919,0.45657919 0 0 0 0.19533,0.23264 c 0.0547,-0.71761 0.76373,-0.9076 0.76373,-0.9076 z"
   id="path2"
   style="stroke-width:8.81946;fill:#5aa02c" />
  </g>
</g><g
       transform="translate(191.317,144.245) scale(2)"
       id="g6"><sodipodi:namedview
   id="namedview4"
   pagecolor="#ffffff"
   bordercolor="#000000"
   borderopacity="0.25"
   inkscape:showpageshadow="2"
   inkscape:pageopacity="0.0"
   inkscape:pagecheckerboard="0"
   inkscape:deskcolor="#d1d1d1"
   inkscape:document-units="mm"
   inkscape:zoom="45.254834"
   inkscape:cx="9.3249707"
   inkscape:cy="-0.54137863"
   inkscape:window-width="2560"
   inkscape:window-height="1369"
   inkscape:window-x="-8"
   inkscape:window-y="-8"
   inkscape:window-maximized="1"
   inkscape:current-layer="layer1" />
  <defs
   id="defs4" />
  <g
   inkscape:label="Layer 1"
   inkscape:groupmode="layer"
   id="g5"
   transform="translate(-115.62292,-109.27292)">
    <ellipse
   style="fill:#ffffff;stroke:#ffffff;stroke-width:0.254;stroke-linecap:round;stroke-linejoin:round;stroke-dasharray:none;paint-order:fill markers stroke"
   id="ellipse4"
   cx="116.86903"
   cy="110.5359"
   rx="1.1191123"
   ry="1.1359833" />
    <path
   d="m 116.86903,109.58811 c 0,0 -0.65885,0.72428 -0.65885,1.23672 0,0.40428 0.25457,0.65886 0.65885,0.65886 0.40428,0 0.65886,-0.25458 0.65886,-0.65886 0,-0.51244 -0.65886,-1.23672 -0.65886,-1.23672 z"
   id="path4"
   style="stroke-width:0.413408;fill:#0000ff"
   sodipodi:nodetypes="csssc" />
    <path
   style="fill:none;stroke:#ffffff;stroke-width:0.1;stroke-linecap:round;stroke-linejoin:round;paint-order:fill markers stroke;stroke-dasharray:none"
   d="m 116.94448,111.19622 c 0.15821,-0.003 0.31287,-0.10617 0.33461,-0.30368"
   id="path5"
   sodipodi:nodetypes="cc" />
  </g>
</g></g></svg>
