<?xml version="1.0" encoding="UTF-8" standalone="no"?>
<svg
   width="297mm"
   height="210mm"
   viewBox="0 0 297 210"
   version="1.1"
   id="svg1"
   inkscape:version="1.4 (86a8ad7, 2024-10-11)"
   sodipodi:docname="flow_of_the_currents.svg"
   xml:space="preserve"
   inkscape:export-filename="flow_of_the_currents.png"
   inkscape:export-xdpi="600"
   inkscape:export-ydpi="600"
   xmlns:inkscape="http://www.inkscape.org/namespaces/inkscape"
   xmlns:sodipodi="http://sodipodi.sourceforge.net/DTD/sodipodi-0.dtd"
   xmlns:xlink="http://www.w3.org/1999/xlink"
   xmlns="http://www.w3.org/2000/svg"
   xmlns:svg="http://www.w3.org/2000/svg"><sodipodi:namedview
     id="namedview1"
     pagecolor="#ffffff"
     bordercolor="#000000"
     borderopacity="0.25"
     inkscape:showpageshadow="2"
     inkscape:pageopacity="0.0"
     inkscape:pagecheckerboard="0"
     inkscape:deskcolor="#d1d1d1"
     inkscape:document-units="mm"
     inkscape:zoom="1.4142137"
     inkscape:cx="596.44451"
     inkscape:cy="363.0993"
     inkscape:window-width="2560"
     inkscape:window-height="1369"
     inkscape:window-x="-8"
     inkscape:window-y="-8"
     inkscape:window-maximized="1"
     inkscape:current-layer="layer1" /><defs
     id="defs1"><pattern
       inkscape:collect="always"
       xlink:href="#pattern1"
       preserveAspectRatio="xMidYMid"
       id="pattern2"
       patternTransform="matrix(0.22213523,0,0,0.22213523,559.54604,53.669412)"
       x="703"
       y="0" /><pattern
       patternUnits="userSpaceOnUse"
       width="1023.9999"
       height="631.99997"
       patternTransform="translate(-957.99985,31.646879)"
       preserveAspectRatio="xMidYMid"
       id="pattern1"
       style="fill:#000000"
       inkscape:label="pattern1"><image
         width="1023.9999"
         height="632"
         preserveAspectRatio="none"
         xlink:href="../images/color/Aethonix%20Wraith.png"
         id="pattern_image"
         x="0"
         y="0"
         href="..%5Cimages%5Ccolor%5CMaelstrom%20of%20the%20Abyssal%20Veil.png" /></pattern></defs><g
     inkscape:label="Layer 1"
     inkscape:groupmode="layer"
     id="layer1"><path
       id="background_color"
       d="M -32.023,32.881 V 93.85 l -43.371,12.285 v 245.401 l 49.9,13.311 H 43.61 c 6.654,0 12.336,-4.531 13.82,-11.018 1.181,-5.206 5.724,-8.832 11.05,-8.832 5.337,-0.001 9.877,3.622 11.06,8.808 1.483,6.485 7.166,11.012 13.82,11.012 h 60.567 v 13.435 l 5.86,5.891 2.182,39.924 h 50.638 v 1.697 c 0,17.194 13.985,31.183 31.173,31.183 H 380.7 c 17.189,0 31.173,-13.989 31.173,-31.183 v -1.697 h 50.639 l 2.182,-39.924 5.86,-5.891 V 89.942 l -3.12,0.704 V 32.881 Z"
       style="fill:#0000FF"
       transform="matrix(0.37022538,0,0,-0.37022538,75.350873,195.67338)"
       clip-path="url(#clipPath858)"
       sodipodi:nodetypes="cccccscccscccccsssscccccccc"
       inkscape:label="background_color" /><path
       id="path135"
       d="m -28.919951,53.850617 c 0.01,1.56 1.279,2.828998 2.839905,2.839908 L -5.1112834,56.690216 -5.1112132,-1.9185538e-7 C -5.111,-1.41 -3.961,-2.56 -2.561,-2.56 -1.15,-2.56 0,-1.41 0,0 v 56.690216 l 45.128835,6e-5 1.919836,-35.121156 5.67,-5.698866 V -2.5596111 l -5e-5,-255.7401889 c -1.59905,0.3598 -3.11905,-0.8492 -3.11905,-2.4902 l 0,-56.70109 -45.1308621,-1e-4 -1.919862,35.14999 -5.67,5.702 v 18.398"
       style="fill:none;stroke:#231f20;stroke-width:1;stroke-linecap:butt;stroke-linejoin:miter;stroke-miterlimit:4;stroke-dasharray:none;stroke-opacity:1"
       transform="matrix(0.37022538,0,0,-0.37022538,226.89566,62.809114)"
       clip-path="url(#clipPath884)"
       sodipodi:nodetypes="ccccsccccccccccccc"
       inkscape:label="right" /><path
       id="path152"
       d="M 0,0 V 10.199094 C 0,22.729187 10.15,32.879187 22.669933,32.87903 l 136.919887,-1.58e-4 c 12.51994,0 22.66994,-10.149 22.66993,-22.679936 L 182.25974,0"
       style="fill:none;stroke:#231f20;stroke-width:1;stroke-linecap:butt;stroke-linejoin:miter;stroke-miterlimit:4;stroke-dasharray:none;stroke-opacity:1"
       transform="matrix(0.37022538,0,0,-0.37022538,157.21156,41.820877)"
       clip-path="url(#clipPath940)"
       sodipodi:nodetypes="cccccc"
       inkscape:label="top_flap" /><path
       id="path168"
       d="m 55.280093,0 9.2e-5,-18.398 -5.67,-5.702 -1.929849,-35.149997 -45.1208493,1e-4 -1.424e-4,56.7010976 C 2.5592018,-1.1387988 1.4102018,2.0121154e-4 2.0182031e-4,2.0121154e-4 -1.3997982,2.0121154e-4 -2.5497982,-1.1387988 -2.549796,-2.5488 l 2.1e-6,-56.701001 -183.9600161,-3.8e-4 5e-5,56.1311898 c 5e-5,1.7111999 -1.18095,3.18919991 -2.83995,3.57019991 l -40.53009,11.48020029 -1e-4,232.439191 42.51,11.34 67.99,1.5e-4 c 2.64999,1.5e-4 4.93899,-1.82985 5.53034,-4.4097 2.04934,-9.02984 10.07934,-15.43984 19.339342,-15.43984 9.26,-0.01 17.29,6.39 19.351,15.42 0.59,2.58 2.889,4.4 5.529154,4.40019 l 69.0701537,1.9e-4 1.53e-4,18.42986 5.670152,5.69887 1.919849,35.12116 45.1298463,-7e-5 -1.9e-4,-56.69021 c -1.8e-4,-1.41 1.13982,-2.56 2.54982,-2.56 1.41,0 2.551,1.15 2.551,2.56 l 2.4e-4,56.69021 20.97925,2.2e-4 c 1.569,0 2.84,-1.271 2.84,-2.84"
       style="fill:none;stroke:#231f20;stroke-width:1;stroke-linecap:butt;stroke-linejoin:miter;stroke-miterlimit:4;stroke-dasharray:none;stroke-opacity:1"
       transform="matrix(0.37022538,0,0,-0.37022538,135.69402,158.41656)"
       clip-path="url(#clipPath970)"
       sodipodi:nodetypes="ccccccscccccccccccccccccccscccc"
       inkscape:label="left" /><path
       id="path171"
       d="M 0,0 3.6478718e-7,-56.701 -183.96001,-56.701387 -184.23553,0"
       style="fill:none;stroke:#231f20;stroke-width:1;stroke-linecap:butt;stroke-linejoin:miter;stroke-miterlimit:4;stroke-dasharray:none;stroke-opacity:1"
       transform="matrix(0.37022538,0,0,-0.37022538,225.06617,158.60167)"
       clip-path="url(#clipPath890)"
       sodipodi:nodetypes="cccc"
       inkscape:label="bottom_flap" /><path
       id="path6"
       d="m 109.9153,63.756828 c -0.97746,7e-5 -1.82861,0.673881 -2.04704,1.629062 -0.76303,3.343135 -3.73594,5.712578 -7.16423,5.708875 -3.42829,0 -6.4012,-2.373144 -7.15991,-5.716228 -0.21893,-0.955129 -1.06638,-1.632642 -2.04747,-1.632586 l -25.17169,8.9e-5 -6e-5,94.95544 0.0962,0.13302 h 68.49947 c 0.21849,-0.3055 0.48346,-0.41477 0.77355,-0.41794 h 20.4662 69.57981 20.67341 l -7e-5,-94.659802 h -20.46575 c -0.34166,-0.0092 -0.6011,-0.153466 -0.78491,-0.421972 h -68.42468 c -0.19665,0.289383 -0.53863,0.441794 -0.78903,0.421972 h -20.46232 z"
       style="fill:url(#pattern2);fill-opacity:1;stroke:none;stroke-width:0.370225;stroke-linecap:butt;stroke-linejoin:miter;stroke-miterlimit:4;stroke-dasharray:none;stroke-opacity:1"
       clip-path="url(#clipPath928)"
       sodipodi:nodetypes="cccccccccccccccccccc"
       inkscape:label="front_image" /><text
       xml:space="preserve"
       style="font-style:normal;font-variant:normal;font-weight:normal;font-stretch:normal;font-size:4.53699px;font-family:Arial;-inkscape-font-specification:Arial;text-align:center;writing-mode:lr-tb;direction:ltr;text-anchor:middle;fill:#ffffff;stroke:none;stroke-width:0.272219;stroke-linecap:round;stroke-linejoin:round;paint-order:markers fill stroke"
       x="190.89186"
       y="54.368477"
       id="top_title"
       inkscape:label="top_title"><tspan
         sodipodi:role="line"
         id="tspan503"
         style="font-style:normal;font-variant:normal;font-weight:bold;font-stretch:normal;font-size:4.53699px;font-family:Arial;-inkscape-font-specification:'Arial Bold';fill:#ffffff;stroke:none;stroke-width:0.272219"
         x="190.89186"
         y="54.368477">FLOW OF THE CURRENTS</tspan></text><text
       xml:space="preserve"
       style="font-size:4.53699px;text-align:center;writing-mode:lr-tb;direction:ltr;text-anchor:middle;fill:#ffffff;stroke:#000000;stroke-width:0.272219;stroke-linecap:round;stroke-linejoin:round;paint-order:markers stroke fill"
       x="190.71574"
       y="155.76717"
       id="starter_deck_text"
       inkscape:label="starter_deck_text"><tspan
         sodipodi:role="line"
         id="tspan504"
         style="font-style:normal;font-variant:normal;font-weight:normal;font-stretch:normal;font-size:4.53699px;font-family:Arial;-inkscape-font-specification:Arial;fill:#ffffff;stroke:#000000;stroke-width:0.272219;paint-order:markers stroke fill"
         x="190.71574"
         y="155.76717">Starter Deck</tspan></text><text
       xml:space="preserve"
       style="font-style:normal;font-variant:normal;font-weight:bold;font-stretch:normal;font-size:5.17534px;font-family:Arial;-inkscape-font-specification:'Arial Bold';text-align:center;writing-mode:lr-tb;direction:ltr;text-anchor:middle;white-space:pre;inline-size:59.8045;fill:#ffffff;stroke:#000000;stroke-width:0.26616;stroke-linecap:round;stroke-linejoin:round;paint-order:markers stroke fill"
       x="190.07428"
       y="133.74297"
       id="front_title"
       inkscape:label="front_title"
       transform="matrix(1.0227652,0,0,1.0227652,-3.3806352,-2.3903479)"><tspan
         x="190.07428"
         y="133.74297"
         id="tspan1">FLOW OF THE<tspan
   y="133.74297"
   id="tspan2"> </tspan></tspan><tspan
         x="190.07428"
         y="140.21214"
         id="tspan3">CURRENTS</tspan></text><text
       xml:space="preserve"
       style="font-size:4.53699px;text-align:center;writing-mode:lr-tb;direction:ltr;text-anchor:middle;fill:#ffffff;stroke:#000000;stroke-width:0.272219;stroke-linecap:round;stroke-linejoin:round;paint-order:markers stroke fill"
       x="100.42999"
       y="142.80759"
       id="text510"
       inkscape:label="Contents"><tspan
         sodipodi:role="line"
         style="font-style:normal;font-variant:normal;font-weight:bold;font-stretch:normal;font-size:4.53699px;font-family:Arial;-inkscape-font-specification:'Arial Bold';fill:#ffffff;stroke:#000000;stroke-width:0.272219;paint-order:markers stroke fill"
         x="100.42999"
         y="142.80759"
         id="tspan510">Contents</tspan></text><text
       xml:space="preserve"
       style="font-size:4.23333px;text-align:center;writing-mode:lr-tb;direction:ltr;text-anchor:middle;white-space:pre;inline-size:63.2416;display:inline;fill:#ffffff;stroke:#000000;stroke-width:0.254;stroke-linecap:round;stroke-linejoin:round;paint-order:markers stroke fill"
       x="76.773956"
       y="161.07108"
       id="text512"
       transform="matrix(1.0717299,0,0,1.0717299,17.990105,-23.480703)"
       inkscape:label="text"><tspan
         x="76.773956"
         y="161.07108"
         id="tspan5"><tspan
           style="font-family:Arial;-inkscape-font-specification:Arial"
           id="tspan4">Battle ready 15-card deck
</tspan></tspan><tspan
         x="76.773956"
         y="166.41174"
         id="tspan7"><tspan
           style="font-family:Arial;-inkscape-font-specification:Arial"
           id="tspan6">7 mana crystals</tspan></tspan></text><text
       xml:space="preserve"
       style="font-size:4.23333px;text-align:center;writing-mode:lr-tb;direction:ltr;text-anchor:middle;white-space:pre;inline-size:62.7755;display:inline;fill:#ffffff;stroke:#000000;stroke-width:0.25379529;stroke-linecap:round;stroke-linejoin:round;paint-order:markers stroke fill;-inkscape-font-specification:Arial;font-family:Arial;font-weight:normal;font-style:normal;font-stretch:normal;font-variant:normal;stroke-dasharray:none"
       x="154.95833"
       y="122.83878"
       id="explanation_text"
       transform="matrix(1.0717299,0,0,1.0717299,-65.62319,-15.733013)"
       inkscape:label="explanation_text"><tspan
         x="154.95833"
         y="122.83878"
         id="tspan8">Dive into tactical depths!<tspan
   y="122.83878"
   id="tspan9"> </tspan></tspan><tspan
         x="154.95833"
         y="128.13044"
         id="tspan10">Outmaneuver your enemies and<tspan
   y="128.13044"
   id="tspan11"> </tspan></tspan><tspan
         x="154.95833"
         y="133.42211"
         id="tspan13">deliver a decisive strike at their<tspan
   y="133.42211"
   id="tspan14"> </tspan></tspan><tspan
         x="154.95833"
         y="138.71376"
         id="tspan15">weakest points.</tspan></text><path
       id="path1"
       d="M 0,0 V -33.51"
       style="fill:none;stroke:#231f20;stroke-width:0.53617397;stroke-linecap:butt;stroke-linejoin:miter;stroke-miterlimit:4;stroke-dasharray:none;stroke-opacity:1"
       transform="matrix(0.3687587,0,0,-0.37731691,225.27664,63.474261)"
       clip-path="url(#clipPath860-8)" /><path
       id="path2"
       d="M 0,0 V -33.51"
       style="fill:none;stroke:#231f20;stroke-width:0.53617397;stroke-linecap:butt;stroke-linejoin:miter;stroke-miterlimit:4;stroke-dasharray:none;stroke-opacity:1"
       transform="matrix(0.3687587,0,0,-0.37731691,156.62137,63.474261)"
       clip-path="url(#clipPath860-8)" /></g><g
     id="g6"><g
       transform="translate(188.317,144.245) scale(2)"
       id="g5"><sodipodi:namedview
   id="namedview2"
   pagecolor="#ffffff"
   bordercolor="#000000"
   borderopacity="0.25"
   inkscape:showpageshadow="2"
   inkscape:pageopacity="0.0"
   inkscape:pagecheckerboard="0"
   inkscape:deskcolor="#d1d1d1"
   inkscape:document-units="mm"
   inkscape:zoom="45.254834"
   inkscape:cx="9.3249707"
   inkscape:cy="-0.54137863"
   inkscape:window-width="2560"
   inkscape:window-height="1369"
   inkscape:window-x="-8"
   inkscape:window-y="-8"
   inkscape:window-maximized="1"
   inkscape:current-layer="layer1" />
  <defs
   id="defs2" />
  <g
   inkscape:label="Layer 1"
   inkscape:groupmode="layer"
   id="g4"
   transform="translate(-115.62292,-109.27292)">
    <ellipse
   style="fill:#ffffff;stroke:#ffffff;stroke-width:0.254;stroke-linecap:round;stroke-linejoin:round;stroke-dasharray:none;paint-order:fill markers stroke"
   id="ellipse19"
   cx="116.86903"
   cy="110.5359"
   rx="1.1191123"
   ry="1.1359833" />
    <path
   d="m 116.86903,109.58811 c 0,0 -0.65885,0.72428 -0.65885,1.23672 0,0.40428 0.25457,0.65886 0.65885,0.65886 0.40428,0 0.65886,-0.25458 0.65886,-0.65886 0,-0.51244 -0.65886,-1.23672 -0.65886,-1.23672 z"
   id="path3"
   style="stroke-width:0.413408;fill:#0000ff"
   sodipodi:nodetypes="csssc" />
    <path
   style="fill:none;stroke:#ffffff;stroke-width:0.1;stroke-linecap:round;stroke-linejoin:round;paint-order:fill markers stroke;stroke-dasharray:none"
   d="m 116.94448,111.19622 c 0.15821,-0.003 0.31287,-0.10617 0.33461,-0.30368"
   id="path4"
   sodipodi:nodetypes="cc" />
  </g>
</g></g></svg>
