<?xml version="1.0" encoding="UTF-8" standalone="no"?>
<!-- Created with Inkscape (http://www.inkscape.org/) -->

<svg
   width="297mm"
   height="210mm"
   viewBox="0 0 297 210"
   version="1.1"
   id="svg1"
   inkscape:version="1.4 (86a8ad7, 2024-10-11)"
   sodipodi:docname="mixed_box.svg"
   xml:space="preserve"
   inkscape:export-filename="deck_building_kit.png"
   inkscape:export-xdpi="600"
   inkscape:export-ydpi="600"
   xmlns:inkscape="http://www.inkscape.org/namespaces/inkscape"
   xmlns:sodipodi="http://sodipodi.sourceforge.net/DTD/sodipodi-0.dtd"
   xmlns:xlink="http://www.w3.org/1999/xlink"
   xmlns="http://www.w3.org/2000/svg"
   xmlns:svg="http://www.w3.org/2000/svg"><sodipodi:namedview
     id="namedview1"
     pagecolor="#ffffff"
     bordercolor="#000000"
     borderopacity="0.25"
     inkscape:showpageshadow="2"
     inkscape:pageopacity="0.0"
     inkscape:pagecheckerboard="0"
     inkscape:deskcolor="#d1d1d1"
     inkscape:document-units="mm"
     inkscape:zoom="1.0000001"
     inkscape:cx="471.99995"
     inkscape:cy="416.49996"
     inkscape:window-width="2560"
     inkscape:window-height="1369"
     inkscape:window-x="-8"
     inkscape:window-y="-8"
     inkscape:window-maximized="1"
     inkscape:current-layer="layer1" /><defs
     id="defs1"><pattern
       inkscape:collect="always"
       xlink:href="#pattern2"
       preserveAspectRatio="xMidYMid"
       id="pattern5"
       patternTransform="matrix(0.55,0,0,-0.55,580.09929,-111.94823)"
       x="161"
       y="-111" /><pattern
       patternUnits="userSpaceOnUse"
       width="1023.9999"
       height="631.99997"
       patternTransform="translate(-957.99985,31.646879)"
       preserveAspectRatio="xMidYMid"
       id="pattern1"
       style="fill:#000000"
       inkscape:label="pattern1"><image
         width="1023.9999"
         height="632"
         preserveAspectRatio="none"
         xlink:href="../images/color/Aethonix%20Wraith.png"
         id="pattern_image"
         x="0"
         y="0" /></pattern><clipPath
       clipPathUnits="userSpaceOnUse"
       id="clipPath894"><path
         d="M 0,936 H 1368 V 0 H 0 Z"
         transform="translate(-634.96001,-268.1602)"
         id="path894" /></clipPath><clipPath
       clipPathUnits="userSpaceOnUse"
       id="clipPath902"><path
         d="M 0,936 H 1368 V 0 H 0 Z"
         transform="translate(-608.87992,-263.91021)"
         id="path902" /></clipPath><clipPath
       clipPathUnits="userSpaceOnUse"
       id="clipPath910"><path
         d="M 0,936 H 1368 V 0 H 0 Z"
         transform="translate(-469.69971,-266.74021)"
         id="path910" /></clipPath><clipPath
       clipPathUnits="userSpaceOnUse"
       id="clipPath860"><path
         d="M 0,936 H 1368 V 0 H 0 Z"
         transform="translate(-705.82032,-596.50001)"
         id="path860" /></clipPath><clipPath
       clipPathUnits="userSpaceOnUse"
       id="clipPath876"><path
         d="M 0,936 H 1368 V 0 H 0 Z"
         transform="translate(-891.49022,-596.50001)"
         id="path876" /></clipPath><clipPath
       clipPathUnits="userSpaceOnUse"
       id="clipPath930"><path
         d="M 0,936 H 1368 V 0 H 0 Z"
         transform="translate(-727.65042,-672.10012)"
         id="path930" /></clipPath><clipPath
       clipPathUnits="userSpaceOnUse"
       id="clipPath954"><path
         d="M 0,936 H 1368 V 0 H 0 Z"
         transform="translate(-866.83015,-669.26032)"
         id="path954" /></clipPath><clipPath
       clipPathUnits="userSpaceOnUse"
       id="clipPath862-4"><path
         d="M 0,936 H 1368 V 0 H 0 Z"
         transform="translate(-892.62895,-340.16021)"
         id="path862-8" /></clipPath><pattern
       patternUnits="userSpaceOnUse"
       width="1023.9999"
       height="631.99997"
       patternTransform="translate(-909.24374,108.98783)"
       preserveAspectRatio="xMidYMid"
       id="pattern13"
       style="fill:#000000"
       inkscape:label="pattern13"><image
         width="1023.9999"
         height="632"
         preserveAspectRatio="none"
         xlink:href="../images/color/Luminari.png"
         id="image1-1"
         x="0"
         y="0" /></pattern><pattern
       patternUnits="userSpaceOnUse"
       width="1023.9999"
       height="631.99997"
       patternTransform="translate(1213.1874,81.320311)"
       preserveAspectRatio="xMidYMid"
       id="pattern14"
       style="fill:#000000"
       inkscape:label="pattern14"><image
         width="1023.9999"
         height="632"
         preserveAspectRatio="none"
         xlink:href="../images/color/Maelstrom%20of%20the%20Abyssal%20Veil.png"
         id="image1"
         x="0"
         y="0" /></pattern><pattern
       patternUnits="userSpaceOnUse"
       width="1023.9999"
       height="631.99997"
       patternTransform="translate(-957.99985,31.646879)"
       preserveAspectRatio="xMidYMid"
       id="pattern1-1"
       style="fill:#000000"
       inkscape:label="pattern1"><image
         width="1023.9999"
         height="632"
         preserveAspectRatio="none"
         xlink:href="../images/color/Aethonix%20Wraith.png"
         id="pattern_image-3"
         x="0"
         y="0"
         href="..%5Cimages%5Ccolor%5CForest%20Steward.png" /></pattern><pattern
       patternUnits="userSpaceOnUse"
       width="1023.9999"
       height="631.99997"
       patternTransform="translate(-957.99985,31.646879)"
       preserveAspectRatio="xMidYMid"
       id="pattern1-2"
       style="fill:#000000"
       inkscape:label="pattern1"><image
         width="1023.9999"
         height="632"
         preserveAspectRatio="none"
         xlink:href="../images/color/Aethonix%20Wraith.png"
         id="pattern_image-7"
         x="0"
         y="0"
         href="..%5Cimages%5Ccolor%5CNecrotide%20Revenant.png" /></pattern><pattern
       patternUnits="userSpaceOnUse"
       width="1023.9999"
       height="631.99997"
       patternTransform="translate(586.00002,-549.05498)"
       preserveAspectRatio="xMidYMid"
       id="pattern3"
       style="fill:#000000"
       inkscape:label="pattern3"><image
         width="1023.9999"
         height="632"
         preserveAspectRatio="none"
         xlink:href="../images/color/The%20Necropolis.png"
         id="image1-8"
         x="0"
         y="0" /></pattern><pattern
       patternUnits="userSpaceOnUse"
       width="1023.9999"
       height="631.99997"
       patternTransform="translate(-954.83666,-111.94823)"
       preserveAspectRatio="xMidYMid"
       id="pattern2"
       style="fill:#000000"
       inkscape:label="pattern2"><image
         width="1023.9999"
         height="632"
         preserveAspectRatio="none"
         xlink:href="../images/color/Khronos%20Whisperer.png"
         id="image1-88"
         x="0"
         y="0" /></pattern></defs><g
     inkscape:label="Layer 1"
     inkscape:groupmode="layer"
     id="layer1"><path
       d="m 156.96273,158.71196 -4e-5,27.44475 0.31884,-8e-5 c 68.71878,-7e-5 0,0 68.39975,0 l 0.31903,-7e-5 v -27.65859"
       style="fill:#3f403f;fill-opacity:1;stroke:#231f20;stroke-width:0.375286;stroke-linecap:butt;stroke-linejoin:miter;stroke-miterlimit:4;stroke-dasharray:none;stroke-opacity:1"
       id="path1"
       sodipodi:nodetypes="cccccc" /><path
       id="path893"
       d="M 62.129753,9.0000003e-7 64.059506,47.900002 l 5.67,5.7 2.1e-4,18.4 H 257.66893 v 0 -18.4 l 5.66,-5.7 L 265.26068,9.0000003e-7 327.39944,1.0162787e-4 V 69.450203 c 0,1.63 1.52,2.85 3.12102,2.48421 l 3e-5,255.745197 v 18.4301 l -5.67,5.7001 -1.93163,47.8699 -62.13863,5e-5 v -69.44985 c 0,-1.4 -1.141,-2.55 -2.551,-2.55 -1.41,0 -2.549,1.15 -2.54881,2.55 l 1.9e-4,73.71 -0.85148,10e-6 1.5e-4,10.19969 c 1.5e-4,12.5207 -10.14885,22.6807 -22.67996,22.6807 l -136.909976,1.5e-4 c -12.51985,1.5e-4 -22.67985,-10.15984 -22.67985,-22.68069 v -10.19985 l -0.8496,-10e-6 v -73.71 c 0,-1.4 -1.141,-2.55 -2.551,-2.55 -1.41,0 -2.549,1.15 -2.5488,2.55 l 2e-4,69.44985 -62.14024,-5e-5 -1.92025,-47.8699 -5.66991,-5.7001 10e-5,-18.4301 -69.07014,-2e-4 c -2.64015,-2e-4 -4.94015,-1.8292 -5.53015,-4.3992 -2.06,-9.03 -10.09,-15.43 -19.35,-15.43 -9.260004,0.01 -17.290004,6.42 -19.339354,15.44985 -0.58035,2.57985 -2.88035,4.40985 -5.53036,4.4097 l -67.98,-1.5e-4 -42.52,-11.34 1.5e-4,-232.440207 40.53015,-11.4792 c 1.66,-0.38 2.84,-1.86 2.8399,-3.5702 l -1e-4,-73.1301997 0.8496,2e-4 c 183.110404,2e-4 0,0 182.260304,0 l 0.8501,2e-4 V 69.450203 c 0,1.409 1.15,2.55 2.56,2.55 1.4,0 2.550000019506,-1.141 2.549950019506,-2.55 L -2.9902471e-6,1.0162788e-4 Z"
       style="fill:#3f403f;stroke:#231f20;stroke-width:1;stroke-linecap:butt;stroke-linejoin:miter;stroke-miterlimit:4;stroke-dasharray:none;stroke-opacity:1;fill-opacity:1"
       transform="matrix(0.37528604,0,0,-0.37528604,130.09588,186.06613)"
       clip-path="url(#clipPath894)"
       sodipodi:nodetypes="ccccccccccccccccccsccccccccccscccccccccccccccccccccsccc" /><path
       id="path861"
       d="m -187.93912,0 h -72.28011 c -0.97725,-0.05380858 -1.66237,-0.52806844 -2.09971,-1.1406986 h -185.01999 l -0.25,0.37109999 V 255.7095 l 67.97999,2.6e-4 c 2.65001,1.5e-4 4.95001,-1.82985 5.53001,-4.40985 l 7e-4,3e-4 c 2.049,-9.03 10.079,-15.44 19.339,-15.45 9.26,0 17.29,6.4 19.35,15.43 0.59,2.57 2.89,4.399 5.53015,4.3992 l 69.0702,2e-4 h 72.27905 c 0.8102,-0.0202 1.52059,0.36006 2.13118,1.1407 H -1.558654 c 0.41448,-0.61202 1.17626999,-1.16853 2.11919999,-1.1407 H 72.851556 V -0.06038861 L 72.281256,1.139199e-5 1.2799726e-4,5.6959949e-6 Z"
       style="fill:url(#pattern5);fill-opacity:1;stroke:#231f20;stroke-width:1;stroke-linecap:butt;stroke-linejoin:miter;stroke-miterlimit:4;stroke-dasharray:none;stroke-opacity:1"
       transform="matrix(0.37528604,0,0,-0.37528604,226.79544,159.04748)"
       clip-path="url(#clipPath862-4)"
       sodipodi:nodetypes="cccccccccccccccccccccc" /><g
       id="g1295"
       transform="matrix(0.28146454,0,0,0.28146454,-108.19575,-64.564848)"><path
         id="path859"
         d="M 0,0 V -33.51"
         style="fill:none;stroke:#231f20;stroke-width:1;stroke-linecap:butt;stroke-linejoin:miter;stroke-miterlimit:4;stroke-dasharray:none;stroke-opacity:1"
         transform="matrix(1.3333333,0,0,-1.3333333,941.09373,452.66667)"
         clip-path="url(#clipPath860)" /><path
         id="path875"
         d="M 0,0 V -33.51"
         style="fill:none;stroke:#231f20;stroke-width:1;stroke-linecap:butt;stroke-linejoin:miter;stroke-miterlimit:4;stroke-dasharray:none;stroke-opacity:1"
         transform="matrix(1.3333333,0,0,-1.3333333,1188.6536,452.66667)"
         clip-path="url(#clipPath876)" /><g
         id="g1294"><path
           id="path929"
           d="M -20.98,0 H 0 v 0 c 1.559,0 2.83,-1.27 2.83,-2.84"
           style="fill:none;stroke:#231f20;stroke-width:1;stroke-linecap:butt;stroke-linejoin:miter;stroke-miterlimit:4;stroke-dasharray:none;stroke-opacity:1"
           transform="matrix(1.3333333,0,0,-1.3333333,970.20053,351.86653)"
           clip-path="url(#clipPath930)"
           sodipodi:nodetypes="cccc" /><path
           id="path953"
           d="m 0,0 c 0.01,1.56 1.27,2.82 2.83,2.84 l 5.01e-5,-1.999e-4 H 23.81005"
           style="fill:none;stroke:#231f20;stroke-width:1;stroke-linecap:butt;stroke-linejoin:miter;stroke-miterlimit:4;stroke-dasharray:none;stroke-opacity:1"
           transform="matrix(1.3333333,0,0,-1.3333333,1155.7735,355.65293)"
           clip-path="url(#clipPath954)"
           sodipodi:nodetypes="cccc" /></g></g><text
       xml:space="preserve"
       style="font-size:4.57456px;text-align:center;writing-mode:lr-tb;direction:ltr;text-anchor:middle;fill:#ffffff;stroke:#000000;stroke-width:0.274484;stroke-linecap:round;stroke-linejoin:round;paint-order:markers stroke fill"
       x="191.36133"
       y="156.18755"
       id="starter_deck_text"
       inkscape:label="starter_deck_text"><tspan
         sodipodi:role="line"
         id="tspan504"
         style="font-style:normal;font-variant:normal;font-weight:normal;font-stretch:normal;font-size:4.57456px;font-family:Arial;-inkscape-font-specification:Arial;fill:#ffffff;stroke:#000000;stroke-width:0.274484;paint-order:markers stroke fill"
         x="191.36133"
         y="156.18755">Deck Building Kit</tspan></text><g
       id="g4"
       transform="translate(0.11391377,-0.28282738)"><text
         xml:space="preserve"
         style="font-style:normal;font-variant:normal;font-weight:normal;font-stretch:normal;font-size:4.57456px;font-family:Arial;-inkscape-font-specification:Arial;text-align:center;writing-mode:lr-tb;direction:ltr;text-anchor:middle;fill:#ffffff;stroke:none;stroke-width:0.274484;stroke-linecap:round;stroke-linejoin:round;paint-order:markers fill stroke"
         x="191.43817"
         y="50.488754"
         id="text4"
         inkscape:label="top_title"><tspan
           sodipodi:role="line"
           style="font-style:normal;font-variant:normal;font-weight:bold;font-stretch:normal;font-size:4.57456px;font-family:Arial;-inkscape-font-specification:'Arial Bold';fill:#ffffff;stroke:none;stroke-width:0.274484"
           x="191.43817"
           y="50.488754"
           id="tspan4">ARCANE ARSENAL</tspan></text></g><text
       xml:space="preserve"
       style="font-style:normal;font-variant:normal;font-weight:bold;font-stretch:normal;font-size:5.17534px;font-family:Arial;-inkscape-font-specification:'Arial Bold';text-align:center;writing-mode:lr-tb;direction:ltr;text-anchor:middle;white-space:pre;inline-size:59.8045;display:inline;fill:#ffffff;stroke:#000000;stroke-width:0.26616;stroke-linecap:round;stroke-linejoin:round;paint-order:markers stroke fill"
       x="190.07428"
       y="133.74297"
       id="front_title"
       inkscape:label="front_title"
       transform="matrix(1.0312376,0,0,1.0312376,-4.4098612,-3.281852)"><tspan
         x="190.07428"
         y="133.74297"
         id="tspan2">ARCANE
</tspan><tspan
         x="190.07428"
         y="140.21214"
         id="tspan3">ARSENAL</tspan></text><g
       id="g12-8"
       transform="translate(35.372229,30.091502)"><g
         transform="matrix(2,0,0,2,147.796,114.528)"
         id="g4-5"><sodipodi:namedview
   id="namedview2-7"
   pagecolor="#ffffff"
   bordercolor="#000000"
   borderopacity="0.25"
   inkscape:showpageshadow="2"
   inkscape:pageopacity="0.0"
   inkscape:pagecheckerboard="0"
   inkscape:deskcolor="#d1d1d1"
   inkscape:document-units="mm"
   inkscape:zoom="33.268014"
   inkscape:cx="6.1771045"
   inkscape:cy="1.6081513"
   inkscape:window-width="2560"
   inkscape:window-height="1369"
   inkscape:window-x="-8"
   inkscape:window-y="-8"
   inkscape:window-maximized="1"
   inkscape:current-layer="layer1" />
  <defs
   id="defs2-6" />
  <g
   inkscape:label="Layer 1"
   inkscape:groupmode="layer"
   id="g3-1"
   transform="translate(-115.62292,-109.27292)">
    <g
   id="g21-8"
   transform="translate(102.85442,83.671549)">
      <ellipse
   style="fill:#ffffff;stroke:#ffffff;stroke-width:0.254;stroke-linecap:round;stroke-linejoin:round;stroke-dasharray:none;paint-order:fill markers stroke"
   id="ellipse19-9"
   cx="14.014612"
   cy="26.864349"
   rx="1.1191123"
   ry="1.1359833" />
      <g
   style="fill:none;stroke-width:105.597"
   id="g20-2"
   transform="matrix(0.08351983,0,0,0.08351983,13.011781,25.84863)">
        <path
   d="m 5.926,20.574 a 7.26,7.26 0 0 0 3.039,1.511 C 9.072,22.12 9.144,21.98 9.072,21.91 6.677,19.625 7.993,17.152 8.965,16.037 c 0.693,-0.796 1.68,-2.107 1.608,-3.865 0,-0.176 0.18,-0.317 0.322,-0.211 1.359,0.703 2.288,2.25 2.538,3.515 0.394,-0.386 0.537,-0.984 0.537,-1.511 0,-0.176 0.214,-0.317 0.393,-0.176 1.287,1.16 3.503,5.097 -0.072,8.19 -0.071,0.071 0,0.212 0.072,0.177 a 8.761,8.761 0 0 0 3.003,-1.442 C 23.193,16.214 19.403,8.234 16.936,5.598 16.615,5.281 16.043,5.492 16.043,5.949 16.007,6.899 15.721,7.953 14.971,8.656 14.399,6.266 12.493,3.551 9.776,2.215 9.419,2.039 8.99,2.32 9.026,2.707 c 0.07,3.27 -2.063,5.352 -3.922,8.059 -1.645,2.425 -2.717,6.89 0.822,9.808 z"
   fill="#000000"
   id="path2-7"
   style="fill:#d40000;stroke-width:105.597" />
      </g>
    </g>
  </g>
</g><g
         transform="matrix(2,0,0,2,153.796,114.528)"
         id="g6"><sodipodi:namedview
   id="namedview3-9"
   pagecolor="#ffffff"
   bordercolor="#000000"
   borderopacity="0.25"
   inkscape:showpageshadow="2"
   inkscape:pageopacity="0.0"
   inkscape:pagecheckerboard="0"
   inkscape:deskcolor="#d1d1d1"
   inkscape:document-units="mm"
   inkscape:zoom="33.268014"
   inkscape:cx="13.721889"
   inkscape:cy="-2.9608019"
   inkscape:window-width="2560"
   inkscape:window-height="1369"
   inkscape:window-x="-8"
   inkscape:window-y="-8"
   inkscape:window-maximized="1"
   inkscape:current-layer="layer1" />
  <defs
   id="defs3-5" />
  <g
   inkscape:label="Layer 1"
   inkscape:groupmode="layer"
   id="g5-4"
   transform="translate(-115.62292,-109.27292)">
    <ellipse
   style="fill:#ffffff;stroke:#ffffff;stroke-width:0.254;stroke-linecap:round;stroke-linejoin:round;stroke-dasharray:none;paint-order:fill markers stroke"
   id="ellipse3-3"
   cx="116.86903"
   cy="110.5359"
   rx="1.1191123"
   ry="1.1359833" />
    <path
   d="m 117.18924,110.22862 c -0.60013,0.31281 -0.63179,0.79018 -0.68106,1.19627 l 0.14654,0.0108 0.0272,-0.18207 a 0.32958852,0.32958852 0 0 0 0.0972,-0.003 c 0.77995,-0.20899 0.66968,-1.47135 0.66968,-1.47135 -0.0329,0.1608 -0.52449,0.31152 -0.86,0.47742 -0.33553,0.16589 -0.39659,0.50523 -0.35859,0.64705 a 0.45657919,0.45657919 0 0 0 0.19533,0.23264 c 0.0547,-0.71761 0.76373,-0.9076 0.76373,-0.9076 z"
   id="path4-1"
   style="fill:#5aa02c;stroke-width:8.81946" />
  </g>
</g><g
         transform="matrix(2,0,0,2,159.796,114.528)"
         id="g11-2"><sodipodi:namedview
   id="namedview5-3"
   pagecolor="#ffffff"
   bordercolor="#000000"
   borderopacity="0.25"
   inkscape:showpageshadow="2"
   inkscape:pageopacity="0.0"
   inkscape:pagecheckerboard="0"
   inkscape:deskcolor="#d1d1d1"
   inkscape:document-units="mm"
   inkscape:zoom="45.254834"
   inkscape:cx="9.3249707"
   inkscape:cy="-0.54137863"
   inkscape:window-width="2560"
   inkscape:window-height="1369"
   inkscape:window-x="-8"
   inkscape:window-y="-8"
   inkscape:window-maximized="1"
   inkscape:current-layer="layer1" />
  <defs
   id="defs5-3" />
  <g
   inkscape:label="Layer 1"
   inkscape:groupmode="layer"
   id="g10-4"
   transform="translate(-115.62292,-109.27292)">
    <ellipse
   style="fill:#ffffff;stroke:#ffffff;stroke-width:0.254;stroke-linecap:round;stroke-linejoin:round;stroke-dasharray:none;paint-order:fill markers stroke"
   id="ellipse5-1"
   cx="116.86903"
   cy="110.5359"
   rx="1.1191123"
   ry="1.1359833" />
    <path
   d="m 116.86903,109.58811 c 0,0 -0.65885,0.72428 -0.65885,1.23672 0,0.40428 0.25457,0.65886 0.65885,0.65886 0.40428,0 0.65886,-0.25458 0.65886,-0.65886 0,-0.51244 -0.65886,-1.23672 -0.65886,-1.23672 z"
   id="path8-1"
   style="fill:#0000ff;stroke-width:0.413408"
   sodipodi:nodetypes="csssc" />
    <path
   style="fill:none;stroke:#ffffff;stroke-width:0.1;stroke-linecap:round;stroke-linejoin:round;stroke-dasharray:none;paint-order:fill markers stroke"
   d="m 116.94448,111.19622 c 0.15821,-0.003 0.31287,-0.10617 0.33461,-0.30368"
   id="path10-3"
   sodipodi:nodetypes="cc" />
  </g>
</g></g></g></svg>
