<?xml version="1.0" encoding="UTF-8" standalone="no"?>
<svg
   width="297mm"
   height="210mm"
   viewBox="0 0 297 210"
   version="1.1"
   id="svg1"
   inkscape:version="1.4 (86a8ad7, 2024-10-11)"
   sodipodi:docname="ravaging_fires.svg"
   xml:space="preserve"
   inkscape:export-filename="new_box_template.pdf"
   inkscape:export-xdpi="600"
   inkscape:export-ydpi="600"
   xmlns:inkscape="http://www.inkscape.org/namespaces/inkscape"
   xmlns:sodipodi="http://sodipodi.sourceforge.net/DTD/sodipodi-0.dtd"
   xmlns:xlink="http://www.w3.org/1999/xlink"
   xmlns="http://www.w3.org/2000/svg"
   xmlns:svg="http://www.w3.org/2000/svg"><sodipodi:namedview
     id="namedview1"
     pagecolor="#ffffff"
     bordercolor="#000000"
     borderopacity="0.25"
     inkscape:showpageshadow="2"
     inkscape:pageopacity="0.0"
     inkscape:pagecheckerboard="0"
     inkscape:deskcolor="#d1d1d1"
     inkscape:document-units="mm"
     inkscape:zoom="1.4702523"
     inkscape:cx="630.84411"
     inkscape:cy="434.27921"
     inkscape:window-width="2560"
     inkscape:window-height="1369"
     inkscape:window-x="-8"
     inkscape:window-y="-8"
     inkscape:window-maximized="1"
     inkscape:current-layer="layer1" /><defs
     id="defs1"><pattern
       inkscape:collect="always"
       xlink:href="#pattern1"
       preserveAspectRatio="xMidYMid"
       id="pattern3"
       patternTransform="matrix(-0.5,0,0,-0.5,-0.49333052,-702.73612)"
       x="1"
       y="-23" /><clipPath
       clipPathUnits="userSpaceOnUse"
       id="clipPath860"><path
         d="M 0,936 H 1368 V 0 H 0 Z"
         transform="translate(-705.82032,-596.50102)"
         id="path860" /></clipPath><clipPath
       clipPathUnits="userSpaceOnUse"
       id="clipPath876"><path
         d="M 0,936 H 1368 V 0 H 0 Z"
         transform="translate(-891.49022,-596.50102)"
         id="path876" /></clipPath><clipPath
       clipPathUnits="userSpaceOnUse"
       id="clipPath930"><path
         d="M 0,936 H 1368 V 0 H 0 Z"
         transform="translate(-727.65042,-655.09082)"
         id="path930" /></clipPath><clipPath
       clipPathUnits="userSpaceOnUse"
       id="clipPath954"><path
         d="M 0,936 H 1368 V 0 H 0 Z"
         transform="translate(-866.83112,-652.25102)"
         id="path954" /></clipPath><clipPath
       clipPathUnits="userSpaceOnUse"
       id="clipPath976"><path
         d="M 0,936 H 1368 V 0 H 0 Z"
         transform="translate(-947.90042,-340.15921)"
         id="path976" /></clipPath><clipPath
       clipPathUnits="userSpaceOnUse"
       id="clipPath1"><path
         d="M 0,936 H 1368 V 0 H 0 Z"
         transform="translate(-947.90042,-340.15921)"
         id="path1" /></clipPath><pattern
       patternUnits="userSpaceOnUse"
       width="1023.9999"
       height="631.99997"
       patternTransform="translate(-0.49333052,-702.73612)"
       preserveAspectRatio="xMidYMid"
       id="pattern1"
       style="fill:#000000"
       inkscape:label="pattern1"><image
         width="1023.9999"
         height="632"
         preserveAspectRatio="none"
         xlink:href="../images/color/Aeropex.png"
         id="pattern_image"
         x="0"
         y="0"
         href="..%5Cimages%5Ccolor%5CFury%20of%20Ember.png" /></pattern></defs><g
     inkscape:label="Layer 1"
     inkscape:groupmode="layer"
     id="layer1"><path
       id="background_color"
       d="m -528.37001,11.931398 -1.1e-4,232.439202 42.51,11.34 67.99,1.5e-4 c 2.65001,1.6e-4 4.93901,-1.82984 5.53036,-4.40969 2.04935,-9.02985 10.07935,-15.43985 19.33935,-15.43985 9.26,-0.01 17.29,6.39 19.351,15.42 0.59,2.58 2.889,4.4 5.52915,4.4002 l 69.0703,2e-4 1.5e-4,18.42985 5.67015,5.69884 1.91986,35.12115 45.12985,-4e-5 -2e-4,-56.6902 c -2e-4,-1.41 1.1398,-2.56 2.5498,-2.56 1.41,0 2.551,1.15 2.551,2.56 v 56.69 l 0.8594,4e-4 v 10.1991 c 0,12.5301 10.15,22.6801 22.66995,22.67995 l 136.919898,-1.5e-4 c 12.51994,0 22.66994,-10.149 22.66991,-22.67995 l -2e-5,-10.19895 0.84959,-4e-4 2e-4,-56.69 c 2e-4,-1.41 1.1502,-2.56 2.5502,-2.56 1.411,0 2.561,1.15 2.561,2.56 v 56.6902 l 45.1288498,5e-5 1.91985,-35.12116 5.67,-5.69884 -1.3e-4,-274.17005708 c -1.59898,0.3597966 -3.11898,-0.84920341 -3.11898,-2.49020342 V -59.2498 v -2.01e-4 l -45.1308598,10e-7 -1.91986,35.149999 -5.67,5.702 V 5.2127996e-7 C -55.36696,0.800773 -56.354714,0.77115788 -56.410815,0.00229592 V -59.247705 H -242.07677 l 3e-5,58.67980291 c 0.0305,0.84093911 -1.12059,1.15909045 -1.13311,0.5679016112799 V -18.398001 l -5.67,-5.702 -1.92985,-35.15 -45.12086,10e-5 -1.5e-4,56.7011009 c -1.5e-4,1.41 -1.14915,2.54900002128 -2.55915,2.54900002128 -1.4,0 -2.55,-1.13900002128 -2.54999,-2.54900022128 l 6e-5,-55.1256417 -183.96001,-3.98e-4 -1e-5,54.5558412 c 5e-5,1.7111988 -1.18095,3.18919881 -2.84002,3.57019881 z"
       style="fill:#D40000"
       transform="matrix(0.37022227,0,0,-0.37022227,246.20178,158.41536)"
       clip-path="url(#clipPath976)"
       sodipodi:nodetypes="ccccccccccccccsccccccccccscccccccccccccccccccccccscccccc"
       inkscape:label="background_color" /><path
       id="path3"
       d="m -298.4902,0 c -0.82237,0.01740167 -1.51884,-0.35890368 -2.08941,-1.1289 h -185.021 l -0.25951,256.8395 67.99,1.5e-4 c 2.65001,1.6e-4 4.93901,-1.82984 5.53036,-4.40969 2.04935,-9.02985 10.07935,-15.43985 19.33935,-15.43985 9.26,-0.01 17.29,6.39 19.351,15.42 0.59,2.58 2.889,4.4 5.52915,4.4002 l 368.68958501,2e-4 V 0 Z"
       style="fill:url(#pattern3);fill-opacity:1;stroke:none;stroke-width:1;stroke-linecap:butt;stroke-linejoin:miter;stroke-miterlimit:4;stroke-dasharray:none;stroke-opacity:1"
       transform="matrix(0.37022227,0,0,-0.37022227,246.20178,158.41536)"
       clip-path="url(#clipPath976)"
       sodipodi:nodetypes="cccccccccccc"
       inkscape:label="front_image" /><g
       id="g1"
       inkscape:label="flap_lines"><path
         id="path953"
         d="m 0,0 c 0.01,1.56 1.279,2.829 2.8399,2.8399 l 20.9689,-9.99e-5"
         style="fill:none;stroke:#231f20;stroke-width:1;stroke-linecap:butt;stroke-linejoin:miter;stroke-miterlimit:4;stroke-dasharray:none;stroke-opacity:1"
         transform="matrix(0.37022227,0,0,-0.37022227,216.18816,42.872023)"
         clip-path="url(#clipPath954)"
         sodipodi:nodetypes="ccc" /><path
         id="path929"
         d="M -20.979,0 H 0 c 1.569,0 2.84,-1.271 2.84,-2.84"
         style="fill:none;stroke:#231f20;stroke-width:1;stroke-linecap:butt;stroke-linejoin:miter;stroke-miterlimit:4;stroke-dasharray:none;stroke-opacity:1"
         transform="matrix(0.37022227,0,0,-0.37022227,164.66037,41.820661)"
         clip-path="url(#clipPath930)"
         sodipodi:nodetypes="ccc" /></g><g
       id="g2"
       transform="matrix(0.27766695,0,0,0.27766695,-104.73203,-62.178187)"
       inkscape:label="cut_lines"><path
         id="path859"
         d="M 0,0 V -33.511"
         style="fill:none;stroke:#231f20;stroke-width:1;stroke-linecap:butt;stroke-linejoin:miter;stroke-miterlimit:4;stroke-dasharray:none;stroke-opacity:1"
         transform="matrix(1.3333333,0,0,-1.3333333,941.09373,452.66533)"
         clip-path="url(#clipPath860)" /><path
         id="path875"
         d="M 0,0 V -33.511"
         style="fill:none;stroke:#231f20;stroke-width:1;stroke-linecap:butt;stroke-linejoin:miter;stroke-miterlimit:4;stroke-dasharray:none;stroke-opacity:1"
         transform="matrix(1.3333333,0,0,-1.3333333,1188.6536,452.66533)"
         clip-path="url(#clipPath876)" /></g><text
       xml:space="preserve"
       style="font-size:4.53672px;font-family:Arial;-inkscape-font-specification:Arial;text-align:center;writing-mode:lr-tb;direction:ltr;text-anchor:middle;fill:#ffffff;stroke-width:0.371;stroke-linejoin:round;stroke-dasharray:none;paint-order:markers stroke fill;stroke:#000000"
       x="190.99577"
       y="55.038383"
       id="top_title"
       inkscape:label="top_title"><tspan
         sodipodi:role="line"
         id="tspan1"
         style="font-style:normal;font-variant:normal;font-weight:bold;font-stretch:normal;font-size:4.53672px;font-family:Arial;-inkscape-font-specification:'Arial Bold';fill:#ffffff;stroke:#000000;stroke-width:0.371;stroke-dasharray:none;paint-order:markers stroke fill"
         x="190.99577"
         y="55.038383">RAVAGING FIRES</tspan></text><text
       xml:space="preserve"
       style="font-size:4.53699px;font-family:Arial;-inkscape-font-specification:Arial;text-align:center;writing-mode:lr-tb;direction:ltr;text-anchor:middle;fill:#ffffff;stroke-width:0.371;stroke-linejoin:round;stroke-dasharray:none;paint-order:markers stroke fill;stroke:#000000"
       x="190.99577"
       y="138.23439"
       id="front_title"
       inkscape:label="front_title"><tspan
         sodipodi:role="line"
         id="tspan2"
         style="font-style:normal;font-variant:normal;font-weight:bold;font-stretch:normal;font-size:4.53699px;font-family:Arial;-inkscape-font-specification:'Arial Bold';fill:#ffffff;stroke:#000000;stroke-width:0.371;stroke-dasharray:none;paint-order:markers stroke fill"
         x="190.99577"
         y="138.23439">RAVAGING FIRES</tspan></text><text
       xml:space="preserve"
       style="font-size:4.53699px;font-family:Arial;-inkscape-font-specification:Arial;text-align:center;writing-mode:lr-tb;direction:ltr;text-anchor:middle;fill:#ffffff;stroke-width:0.371;stroke-linejoin:round;stroke-dasharray:none;paint-order:markers stroke fill;stroke:#000000"
       x="190.86116"
       y="155.10609"
       id="Starter Deck"
       inkscape:label="Starter Deck"><tspan
         sodipodi:role="line"
         id="tspan3"
         style="font-size:4.53699px;fill:#ffffff;stroke:#000000;stroke-width:0.371;stroke-dasharray:none;paint-order:markers stroke fill"
         x="190.86116"
         y="155.10609">Starter Deck</tspan></text><text
       xml:space="preserve"
       style="font-size:4.53672px;font-family:Arial;-inkscape-font-specification:Arial;text-align:center;writing-mode:lr-tb;direction:ltr;text-anchor:middle;fill:#ffffff;stroke-width:0.371;stroke-linejoin:round;stroke-dasharray:none;paint-order:markers stroke fill;stroke:#000000"
       x="100.28235"
       y="148.9752"
       id="content_text"
       inkscape:label="content_text"><tspan
         sodipodi:role="line"
         id="tspan4"
         style="font-size:4.53672px;fill:#ffffff;stroke:#000000;stroke-width:0.371;stroke-dasharray:none;paint-order:markers stroke fill"
         x="100.28235"
         y="148.9752">Battle ready 15-card deck</tspan><tspan
         sodipodi:role="line"
         style="font-size:4.53672px;fill:#ffffff;stroke:#000000;stroke-width:0.371;stroke-dasharray:none;paint-order:markers stroke fill"
         x="100.28235"
         y="154.6461"
         id="tspan5">7 mana crystals</tspan></text><text
       xml:space="preserve"
       style="font-size:4.53699px;font-family:Arial;-inkscape-font-specification:Arial;text-align:center;writing-mode:lr-tb;direction:ltr;text-anchor:middle;fill:#ffffff;stroke:#000000;stroke-width:0.371;stroke-linejoin:round;stroke-dasharray:none;paint-order:markers stroke fill"
       x="100.39975"
       y="143.40598"
       id="Contents"
       inkscape:label="Contents"><tspan
         sodipodi:role="line"
         id="tspan6"
         style="font-style:normal;font-variant:normal;font-weight:bold;font-stretch:normal;font-size:4.53699px;font-family:Arial;-inkscape-font-specification:'Arial Bold';fill:#ffffff;stroke:#000000;stroke-width:0.371;stroke-dasharray:none;paint-order:markers stroke fill"
         x="100.39975"
         y="143.40598">Contents</tspan></text><text
       xml:space="preserve"
       style="font-size:4.23333px;font-family:Arial;-inkscape-font-specification:Arial;text-align:center;writing-mode:lr-tb;direction:ltr;text-anchor:middle;white-space:pre;inline-size:50.5795;display:inline;fill:#ffffff;stroke:#000000;stroke-width:0.371;stroke-linejoin:round;stroke-dasharray:none;paint-order:markers stroke fill"
       x="102.57593"
       y="107.61475"
       id="explanation_text"
       transform="translate(-2.2948558,-8.2333475)"
       inkscape:label="explanation_text"><tspan
         x="102.57593"
         y="107.61475"
         id="tspan8">Set your hand ablaze and<tspan
   y="107.61475"
   id="tspan9"> </tspan></tspan><tspan
         x="102.57593"
         y="112.90641"
         id="tspan10">fuel your power! Toss<tspan
   y="112.90641"
   id="tspan11"> </tspan></tspan><tspan
         x="102.57593"
         y="118.19808"
         id="tspan12">aside your cards to<tspan
   y="118.19808"
   id="tspan13"> </tspan></tspan><tspan
         x="102.57593"
         y="123.48974"
         id="tspan14">unleash devastating<tspan
   y="123.48974"
   id="tspan15"> </tspan></tspan><tspan
         x="102.57593"
         y="128.78141"
         id="tspan16">effects, overwhelming your<tspan
   y="128.78141"
   id="tspan17"> </tspan></tspan><tspan
         x="102.57593"
         y="134.07306"
         id="tspan18">opponent with relentless<tspan
   y="134.07306"
   id="tspan19"> </tspan></tspan><tspan
         x="102.57593"
         y="139.36472"
         id="tspan20">aggression and fiery<tspan
   y="139.36472"
   id="tspan21"> </tspan></tspan><tspan
         x="102.57593"
         y="144.65638"
         id="tspan22">combos.</tspan></text></g><g
     id="g5"><g
       transform="translate(188.317,144.245) scale(2)"
       id="g4"><sodipodi:namedview
   id="namedview2"
   pagecolor="#ffffff"
   bordercolor="#000000"
   borderopacity="0.25"
   inkscape:showpageshadow="2"
   inkscape:pageopacity="0.0"
   inkscape:pagecheckerboard="0"
   inkscape:deskcolor="#d1d1d1"
   inkscape:document-units="mm"
   inkscape:zoom="33.268014"
   inkscape:cx="6.1771045"
   inkscape:cy="1.6081513"
   inkscape:window-width="2560"
   inkscape:window-height="1369"
   inkscape:window-x="-8"
   inkscape:window-y="-8"
   inkscape:window-maximized="1"
   inkscape:current-layer="layer1" />
  <defs
   id="defs2" />
  <g
   inkscape:label="Layer 1"
   inkscape:groupmode="layer"
   id="g3"
   transform="translate(-115.62292,-109.27292)">
    <g
   id="g21"
   transform="translate(102.85442,83.671549)">
      <ellipse
   style="fill:#ffffff;stroke:#ffffff;stroke-width:0.254;stroke-linecap:round;stroke-linejoin:round;stroke-dasharray:none;paint-order:fill markers stroke"
   id="ellipse19"
   cx="14.014612"
   cy="26.864349"
   rx="1.1191123"
   ry="1.1359833" />
      <g
   style="fill:none;stroke-width:105.597"
   id="g20"
   transform="matrix(0.08351983,0,0,0.08351983,13.011781,25.84863)">
        <path
   d="m 5.926,20.574 a 7.26,7.26 0 0 0 3.039,1.511 C 9.072,22.12 9.144,21.98 9.072,21.91 6.677,19.625 7.993,17.152 8.965,16.037 c 0.693,-0.796 1.68,-2.107 1.608,-3.865 0,-0.176 0.18,-0.317 0.322,-0.211 1.359,0.703 2.288,2.25 2.538,3.515 0.394,-0.386 0.537,-0.984 0.537,-1.511 0,-0.176 0.214,-0.317 0.393,-0.176 1.287,1.16 3.503,5.097 -0.072,8.19 -0.071,0.071 0,0.212 0.072,0.177 a 8.761,8.761 0 0 0 3.003,-1.442 C 23.193,16.214 19.403,8.234 16.936,5.598 16.615,5.281 16.043,5.492 16.043,5.949 16.007,6.899 15.721,7.953 14.971,8.656 14.399,6.266 12.493,3.551 9.776,2.215 9.419,2.039 8.99,2.32 9.026,2.707 c 0.07,3.27 -2.063,5.352 -3.922,8.059 -1.645,2.425 -2.717,6.89 0.822,9.808 z"
   fill="#000000"
   id="path19"
   style="stroke-width:105.597;fill:#d40000" />
      </g>
    </g>
  </g>
</g></g></svg>
