<?xml version='1.0' encoding='utf-8'?>
<svg xmlns="http://www.w3.org/2000/svg" xmlns:inkscape="http://www.inkscape.org/namespaces/inkscape" xmlns:ns3="http://www.w3.org/1999/xlink" xmlns:sodipodi="http://sodipodi.sourceforge.net/DTD/sodipodi-0.dtd" width="297mm" height="210mm" viewBox="0 0 297 210" version="1.1" id="svg1" inkscape:version="1.4 (86a8ad7, 2024-10-11)" sodipodi:docname="box_template.svg" xml:space="preserve" inkscape:export-filename="box_template.pdf" inkscape:export-xdpi="600" inkscape:export-ydpi="600"><sodipodi:namedview id="namedview1" pagecolor="#ffffff" bordercolor="#000000" borderopacity="0.25" inkscape:showpageshadow="2" inkscape:pageopacity="0.0" inkscape:pagecheckerboard="0" inkscape:deskcolor="#d1d1d1" inkscape:document-units="mm" inkscape:zoom="0.70710685" inkscape:cx="-12.020814" inkscape:cy="229.80968" inkscape:window-width="2560" inkscape:window-height="1369" inkscape:window-x="-8" inkscape:window-y="-8" inkscape:window-maximized="1" inkscape:current-layer="layer1" /><defs id="defs1"><pattern inkscape:collect="always" ns3:href="#pattern1" preserveAspectRatio="xMidYMid" id="pattern2" patternTransform="matrix(-0.6,0,0,-0.6,-957.99985,31.646879)" x="900" y="0" /><pattern patternUnits="userSpaceOnUse" width="1023.9999" height="631.99997" patternTransform="translate(-957.99985,31.646879)" preserveAspectRatio="xMidYMid" id="pattern1" style="fill:#000000" inkscape:label="pattern1"><image width="1023.9999" height="632" preserveAspectRatio="none" ns3:href="../images/color/Aethonix%20Wraith.png" id="pattern_image" x="0" y="0" href="..\images\color\Necrotide Revenant.png" /></pattern></defs><g inkscape:label="Layer 1" inkscape:groupmode="layer" id="layer1"><path id="background_color" d="M -32.023,32.881 V 93.85 l -43.371,12.285 v 245.401 l 49.9,13.311 H 43.61 c 6.654,0 12.336,-4.531 13.82,-11.018 1.181,-5.206 5.724,-8.832 11.05,-8.832 5.337,-0.001 9.877,3.622 11.06,8.808 1.483,6.485 7.166,11.012 13.82,11.012 h 60.567 v 13.435 l 5.86,5.891 2.182,39.924 h 50.638 v 1.697 c 0,17.194 13.985,31.183 31.173,31.183 H 380.7 c 17.189,0 31.173,-13.989 31.173,-31.183 v -1.697 h 50.639 l 2.182,-39.924 5.86,-5.891 V 89.942 l -3.12,0.704 V 32.881 Z" style="fill:#5AA02C" transform="matrix(0.37022538,0,0,-0.37022538,75.350873,195.67338)" clip-path="url(#clipPath858)" sodipodi:nodetypes="cccccscccscccccsssscccccccc" inkscape:label="background_color" /><path id="path135" d="m -28.919951,53.850617 c 0.01,1.56 1.279,2.828998 2.839905,2.839908 L -5.1112834,56.690216 -5.1112132,-1.9185538e-7 C -5.111,-1.41 -3.961,-2.56 -2.561,-2.56 -1.15,-2.56 0,-1.41 0,0 v 56.690216 l 45.128835,6e-5 1.919836,-35.121156 5.67,-5.698866 V -2.5596111 l -5e-5,-255.7401889 c -1.59905,0.3598 -3.11905,-0.8492 -3.11905,-2.4902 l 0,-56.70109 -45.1308621,-1e-4 -1.919862,35.14999 -5.67,5.702 v 18.398" style="fill:none;stroke:#231f20;stroke-width:1;stroke-linecap:butt;stroke-linejoin:miter;stroke-miterlimit:4;stroke-dasharray:none;stroke-opacity:1" transform="matrix(0.37022538,0,0,-0.37022538,226.89566,62.809114)" clip-path="url(#clipPath884)" sodipodi:nodetypes="ccccsccccccccccccc" inkscape:label="right" /><path id="path152" d="M 0,0 V 10.199094 C 0,22.729187 10.15,32.879187 22.669933,32.87903 l 136.919887,-1.58e-4 c 12.51994,0 22.66994,-10.149 22.66993,-22.679936 L 182.25974,0" style="fill:none;stroke:#231f20;stroke-width:1;stroke-linecap:butt;stroke-linejoin:miter;stroke-miterlimit:4;stroke-dasharray:none;stroke-opacity:1" transform="matrix(0.37022538,0,0,-0.37022538,157.21156,41.820877)" clip-path="url(#clipPath940)" sodipodi:nodetypes="cccccc" inkscape:label="top_flap" /><path id="path168" d="m 55.280093,0 9.2e-5,-18.398 -5.67,-5.702 -1.929849,-35.149997 -45.1208493,1e-4 -1.424e-4,56.7010976 C 2.5592018,-1.1387988 1.4102018,2.0121154e-4 2.0182031e-4,2.0121154e-4 -1.3997982,2.0121154e-4 -2.5497982,-1.1387988 -2.549796,-2.5488 l 2.1e-6,-56.701001 -183.9600161,-3.8e-4 5e-5,56.1311898 c 5e-5,1.7111999 -1.18095,3.18919991 -2.83995,3.57019991 l -40.53009,11.48020029 -1e-4,232.439191 42.51,11.34 67.99,1.5e-4 c 2.64999,1.5e-4 4.93899,-1.82985 5.53034,-4.4097 2.04934,-9.02984 10.07934,-15.43984 19.339342,-15.43984 9.26,-0.01 17.29,6.39 19.351,15.42 0.59,2.58 2.889,4.4 5.529154,4.40019 l 69.0701537,1.9e-4 1.53e-4,18.42986 5.670152,5.69887 1.919849,35.12116 45.1298463,-7e-5 -1.9e-4,-56.69021 c -1.8e-4,-1.41 1.13982,-2.56 2.54982,-2.56 1.41,0 2.551,1.15 2.551,2.56 l 2.4e-4,56.69021 20.97925,2.2e-4 c 1.569,0 2.84,-1.271 2.84,-2.84" style="fill:none;stroke:#231f20;stroke-width:1;stroke-linecap:butt;stroke-linejoin:miter;stroke-miterlimit:4;stroke-dasharray:none;stroke-opacity:1" transform="matrix(0.37022538,0,0,-0.37022538,135.69402,158.41656)" clip-path="url(#clipPath970)" sodipodi:nodetypes="ccccccscccccccccccccccccccscccc" inkscape:label="left" /><path id="path171" d="M 0,0 3.6478718e-7,-56.701 -183.96001,-56.701387 -184.23553,0" style="fill:none;stroke:#231f20;stroke-width:1;stroke-linecap:butt;stroke-linejoin:miter;stroke-miterlimit:4;stroke-dasharray:none;stroke-opacity:1" transform="matrix(0.37022538,0,0,-0.37022538,225.06617,158.60167)" clip-path="url(#clipPath890)" sodipodi:nodetypes="cccc" inkscape:label="bottom_flap" /><path id="path6" d="M 5.5291608,4.4001895 C 2.889,4.4 0.59,2.58 -2.0193808e-6,-1.0395172e-7 -2.061004,-9.0300002 -10.091004,-15.43 -19.351,-15.42 c -9.26,0 -17.29,6.4099998 -19.33934,15.43985979 -0.59134,2.57986001 -2.88034,4.40986001 -5.53033,4.40971001 l -67.99017,-2.4e-4 -1.6e-4,-256.4800998 0.25981,-0.3593 H 73.069816 c 0.59015,0.82519 1.30584,1.12034 2.0894,1.12889 h 55.280404 187.93907 55.84006 L 374.21857,4.4003798 H 318.9394 c -0.92286,0.0248 -1.6236,0.41452 -2.12009,1.13977 h -184.819 c -0.53116,-0.78164 -1.45485,-1.19331 -2.13121,-1.13977 l -55.269891,-4e-7 z" style="fill:url(#pattern2);fill-opacity:1;stroke:none;stroke-width:1;stroke-linecap:butt;stroke-linejoin:miter;stroke-miterlimit:4;stroke-dasharray:none;stroke-opacity:1" transform="matrix(0.37022538,0,0,-0.37022538,107.86826,65.38589)" clip-path="url(#clipPath928)" sodipodi:nodetypes="cccccccccccccccccccc" inkscape:label="front_image" /><text xml:space="preserve" style="font-style:normal;font-variant:normal;font-weight:normal;font-stretch:normal;font-size:4.53699px;font-family:Arial;-inkscape-font-specification:Arial;text-align:center;writing-mode:lr-tb;direction:ltr;text-anchor:middle;fill:#ffffff;stroke:none;stroke-width:0.272219;stroke-linecap:round;stroke-linejoin:round;paint-order:markers fill stroke" x="190.89186" y="54.368477" id="top_title" inkscape:label="top_title"><tspan sodipodi:role="line" id="tspan503" style="font-style:normal;font-variant:normal;font-weight:bold;font-stretch:normal;font-size:4.53699px;font-family:Arial;-inkscape-font-specification:'Arial Bold';fill:#ffffff;stroke:none;stroke-width:0.272219" x="190.89186" y="54.368477">UNSTOPPABLE GROWTH</tspan></text><text xml:space="preserve" style="font-size:4.53699px;text-align:center;writing-mode:lr-tb;direction:ltr;text-anchor:middle;fill:#ffffff;stroke:#000000;stroke-width:0.272219;stroke-linecap:round;stroke-linejoin:round;paint-order:markers stroke fill" x="190.71574" y="155.76717" id="starter_deck_text" inkscape:label="starter_deck_text"><tspan sodipodi:role="line" id="tspan504" style="font-style:normal;font-variant:normal;font-weight:normal;font-stretch:normal;font-size:4.53699px;font-family:Arial;-inkscape-font-specification:Arial;fill:#ffffff;stroke:#000000;stroke-width:0.272219;paint-order:markers stroke fill" x="190.71574" y="155.76717">Starter Deck</tspan></text><text xml:space="preserve" style="font-style:normal;font-variant:normal;font-weight:bold;font-stretch:normal;font-size:5.17534px;font-family:Arial;-inkscape-font-specification:'Arial Bold';text-align:center;writing-mode:lr-tb;direction:ltr;text-anchor:middle;white-space:pre;inline-size:59.8045;fill:#ffffff;stroke:#000000;stroke-width:0.26616;stroke-linecap:round;stroke-linejoin:round;paint-order:markers stroke fill" x="190.07428" y="133.74297" id="front_title" inkscape:label="front_title" transform="matrix(1.0227652,0,0,1.0227652,-3.3806352,-2.3903479)"><tspan x="190.07428" y="133.74297" id="tspan7">UNSTOPPABLE GROWTH</tspan></text><text xml:space="preserve" style="font-size:4.53699px;text-align:center;writing-mode:lr-tb;direction:ltr;text-anchor:middle;fill:#ffffff;stroke:#000000;stroke-width:0.272219;stroke-linecap:round;stroke-linejoin:round;paint-order:markers stroke fill" x="100.42999" y="142.80759" id="text510" inkscape:label="Contents"><tspan sodipodi:role="line" style="font-style:normal;font-variant:normal;font-weight:bold;font-stretch:normal;font-size:4.53699px;font-family:Arial;-inkscape-font-specification:'Arial Bold';fill:#ffffff;stroke:#000000;stroke-width:0.272219;paint-order:markers stroke fill" x="100.42999" y="142.80759" id="tspan510">Contents</tspan></text><text xml:space="preserve" style="font-size:4.23333px;text-align:center;writing-mode:lr-tb;direction:ltr;text-anchor:middle;white-space:pre;inline-size:63.2416;display:inline;fill:#ffffff;stroke:#000000;stroke-width:0.254;stroke-linecap:round;stroke-linejoin:round;paint-order:markers stroke fill" x="76.773956" y="161.07108" id="text512" transform="matrix(1.0717299,0,0,1.0717299,17.990105,-23.480703)" inkscape:label="text"><tspan x="76.773956" y="161.07108" id="tspan9"><tspan style="font-family:Arial;-inkscape-font-specification:Arial" id="tspan8">Battle ready 15-card deck
</tspan></tspan><tspan x="76.773956" y="166.41174" id="tspan11"><tspan style="font-family:Arial;-inkscape-font-specification:Arial" id="tspan10">7 mana crystals</tspan></tspan></text><text xml:space="preserve" style="font-size:4.23333px;text-align:center;writing-mode:lr-tb;direction:ltr;text-anchor:middle;white-space:pre;inline-size:62.7755;display:inline;fill:#ffffff;stroke:#000000;stroke-width:0.25379529;stroke-linecap:round;stroke-linejoin:round;paint-order:markers stroke fill;-inkscape-font-specification:Arial;font-family:Arial;font-weight:normal;font-style:normal;font-stretch:normal;font-variant:normal;stroke-dasharray:none" x="154.95833" y="122.83878" id="explanation_text" transform="matrix(1.0717299,0,0,1.0717299,-65.62319,-15.733013)" inkscape:label="explanation_text"><tspan x="154.95833" y="122.83878" id="tspan12">Unleash a onslaught of colossal creatures to trample over all enemies in your path.</tspan></text><path id="path1" d="M 0,0 V -33.51" style="fill:none;stroke:#231f20;stroke-width:0.53617397;stroke-linecap:butt;stroke-linejoin:miter;stroke-miterlimit:4;stroke-dasharray:none;stroke-opacity:1" transform="matrix(0.3687587,0,0,-0.37731691,225.27664,63.474261)" clip-path="url(#clipPath860-8)" /><path id="path2" d="M 0,0 V -33.51" style="fill:none;stroke:#231f20;stroke-width:0.53617397;stroke-linecap:butt;stroke-linejoin:miter;stroke-miterlimit:4;stroke-dasharray:none;stroke-opacity:1" transform="matrix(0.3687587,0,0,-0.37731691,156.62137,63.474261)" clip-path="url(#clipPath860-8)" /></g><g><g transform="translate(188.317,144.245) scale(2)"><sodipodi:namedview id="namedview1" pagecolor="#ffffff" bordercolor="#000000" borderopacity="0.25" inkscape:showpageshadow="2" inkscape:pageopacity="0.0" inkscape:pagecheckerboard="0" inkscape:deskcolor="#d1d1d1" inkscape:document-units="mm" inkscape:zoom="33.268014" inkscape:cx="13.721889" inkscape:cy="-2.9608019" inkscape:window-width="2560" inkscape:window-height="1369" inkscape:window-x="-8" inkscape:window-y="-8" inkscape:window-maximized="1" inkscape:current-layer="layer1" />
  <defs id="defs1" />
  <g inkscape:label="Layer 1" inkscape:groupmode="layer" id="layer1" transform="translate(-115.62292,-109.27292)">
    <ellipse style="fill:#ffffff;stroke:#ffffff;stroke-width:0.254;stroke-linecap:round;stroke-linejoin:round;stroke-dasharray:none;paint-order:fill markers stroke" id="ellipse19" cx="116.86903" cy="110.5359" rx="1.1191123" ry="1.1359833" />
    <path d="m 117.18924,110.22862 c -0.60013,0.31281 -0.63179,0.79018 -0.68106,1.19627 l 0.14654,0.0108 0.0272,-0.18207 a 0.32958852,0.32958852 0 0 0 0.0972,-0.003 c 0.77995,-0.20899 0.66968,-1.47135 0.66968,-1.47135 -0.0329,0.1608 -0.52449,0.31152 -0.86,0.47742 -0.33553,0.16589 -0.39659,0.50523 -0.35859,0.64705 a 0.45657919,0.45657919 0 0 0 0.19533,0.23264 c 0.0547,-0.71761 0.76373,-0.9076 0.76373,-0.9076 z" id="path1" style="stroke-width:8.81946;fill:#5aa02c" />
  </g>
</g></g></svg>