<?xml version="1.0" encoding="UTF-8" standalone="no"?>
<!-- Created with Inkscape (http://www.inkscape.org/) -->

<svg
   width="297mm"
   height="210mm"
   viewBox="0 0 297 210"
   version="1.1"
   id="svg1"
   inkscape:version="1.4 (86a8ad7, 2024-10-11)"
   sodipodi:docname="slim_box_template.svg"
   xml:space="preserve"
   inkscape:export-filename="new_box_template.pdf"
   inkscape:export-xdpi="600"
   inkscape:export-ydpi="600"
   xmlns:inkscape="http://www.inkscape.org/namespaces/inkscape"
   xmlns:sodipodi="http://sodipodi.sourceforge.net/DTD/sodipodi-0.dtd"
   xmlns:xlink="http://www.w3.org/1999/xlink"
   xmlns="http://www.w3.org/2000/svg"
   xmlns:svg="http://www.w3.org/2000/svg"><sodipodi:namedview
     id="namedview1"
     pagecolor="#ffffff"
     bordercolor="#000000"
     borderopacity="0.25"
     inkscape:showpageshadow="2"
     inkscape:pageopacity="0.0"
     inkscape:pagecheckerboard="0"
     inkscape:deskcolor="#d1d1d1"
     inkscape:document-units="mm"
     inkscape:zoom="1.4702523"
     inkscape:cx="578.81222"
     inkscape:cy="366.26367"
     inkscape:window-width="2560"
     inkscape:window-height="1369"
     inkscape:window-x="2552"
     inkscape:window-y="-8"
     inkscape:window-maximized="1"
     inkscape:current-layer="layer1" /><defs
     id="defs1"><pattern
       inkscape:collect="always"
       xlink:href="#pattern"
       preserveAspectRatio="xMidYMid"
       id="pattern2"
       patternTransform="matrix(0.14853201,0,0,0.1504237,5.2867816,-687.33092)"
       x="478"
       y="-74" /><clipPath
       clipPathUnits="userSpaceOnUse"
       id="clipPath860"><path
         d="M 0,936 H 1368 V 0 H 0 Z"
         transform="translate(-705.82032,-596.50102)"
         id="path860" /></clipPath><clipPath
       clipPathUnits="userSpaceOnUse"
       id="clipPath876"><path
         d="M 0,936 H 1368 V 0 H 0 Z"
         transform="translate(-891.49022,-596.50102)"
         id="path876" /></clipPath><clipPath
       clipPathUnits="userSpaceOnUse"
       id="clipPath930"><path
         d="M 0,936 H 1368 V 0 H 0 Z"
         transform="translate(-727.65042,-655.09082)"
         id="path930" /></clipPath><clipPath
       clipPathUnits="userSpaceOnUse"
       id="clipPath954"><path
         d="M 0,936 H 1368 V 0 H 0 Z"
         transform="translate(-866.83112,-652.25102)"
         id="path954" /></clipPath><clipPath
       clipPathUnits="userSpaceOnUse"
       id="clipPath976"><path
         d="M 0,936 H 1368 V 0 H 0 Z"
         transform="translate(-947.90042,-340.15921)"
         id="path976" /></clipPath><clipPath
       clipPathUnits="userSpaceOnUse"
       id="clipPath1"><path
         d="M 0,936 H 1368 V 0 H 0 Z"
         transform="translate(-947.90042,-340.15921)"
         id="path1" /></clipPath><pattern
       patternUnits="userSpaceOnUse"
       width="1023.9999"
       height="631.99997"
       patternTransform="translate(-0.49333052,-702.73612)"
       preserveAspectRatio="xMidYMid"
       id="pattern"
       style="fill:#000000"
       inkscape:label="pattern"><image
         width="1023.9999"
         height="632"
         preserveAspectRatio="none"
         xlink:href="../images/color/creatures/Aeropex.png"
         id="pattern_image"
         x="0"
         y="0" /></pattern><clipPath
       clipPathUnits="userSpaceOnUse"
       id="clipPath693"><path
         d="M 0,936 H 1368 V 0 H 0 Z"
         transform="translate(-701.57032,-596.50001)"
         id="path693" /></clipPath><clipPath
       clipPathUnits="userSpaceOnUse"
       id="clipPath709"><path
         d="M 0,936 H 1368 V 0 H 0 Z"
         transform="translate(-887.2402,-596.50001)"
         id="path709" /></clipPath><clipPath
       clipPathUnits="userSpaceOnUse"
       id="clipPath763"><path
         d="M 0,936 H 1368 V 0 H 0 Z"
         transform="translate(-723.40042,-633.82961)"
         id="path763" /></clipPath><clipPath
       clipPathUnits="userSpaceOnUse"
       id="clipPath775"><path
         d="M 0,936 H 1368 V 0 H 0 Z"
         transform="translate(-723.40042,-633.82961)"
         id="path775" /></clipPath><clipPath
       clipPathUnits="userSpaceOnUse"
       id="clipPath787"><path
         d="M 0,936 H 1368 V 0 H 0 Z"
         transform="translate(-862.58012,-630.98972)"
         id="path787" /></clipPath><clipPath
       clipPathUnits="userSpaceOnUse"
       id="clipPath109-0"><path
         d="M 0,936 H 1368 V 0 H 0 Z"
         transform="translate(-706.74902,-340.15821)"
         id="path109-9" /></clipPath></defs><g
     inkscape:label="Layer 1"
     inkscape:groupmode="layer"
     id="layer1"><g
       id="g2"
       transform="matrix(0.9896856,0,0,0.97723968,7.255666,6.7513329)"
       style="stroke-width:1.01682"><g
         id="g1"
         transform="matrix(1.0423439,0,0,1.0423224,-9.6480852,-6.6114631)"
         style="stroke-width:0.975531"><path
           d="m 219.89685,154.89854 v 12.24727 l -64.89692,1.4e-4 -1e-4,-12.3011 c -0.0288,-0.54524 -0.74222,-0.43304 -0.70051,0.0537 l -7e-5,6.49111 -2.00025,2.01083 -0.68078,4.90014 -8.41718,-4e-5 1e-5,-12.50218 c 2e-5,-0.49741 -0.40567,-0.89993 -0.90309,-0.89993 -0.49389,0 -0.89958,0.40252 -0.89958,0.89993 v 12.5021 l -64.896936,1.3e-4 -1e-4,-12.30109 c -7.2e-5,-0.60366 -0.416348,-1.12577 -1.001961,-1.25947 l -11.299174,-4.04996 -5.3e-5,-81.999735 11.99797,-4.0005 23.985364,3.7e-5 c 0.93451,3.4e-5 1.74237,0.645617 1.95065,1.555731 0.72334,3.185531 3.55614,5.446837 6.82286,5.446837 3.26673,0.0035 6.09953,-2.25425 6.82625,-5.439833 0.20814,-0.910167 1.01953,-1.552223 1.9509,-1.552205 l 24.36604,1.6e-5 7e-5,-6.501728 2.00032,-2.01087 0.67741,-4.889429 8.42087,1.9e-5 -7e-5,12.498863 c -7e-5,0.497417 0.40245,0.903111 0.89916,0.903111 0.49742,0 0.89994,-0.405694 0.89994,-0.903111 V 51.298397 l 0.30317,1.06e-4 v -1.598136 c 0,-4.42036 3.5807,-8.001053 7.99746,-8.001 l 48.3023,5.3e-5 c 4.41711,0 7.99814,3.580693 7.99814,8.000999 l -3e-5,1.598084 0.29972,-1.06e-4 8e-5,12.498916 c 8e-5,0.497417 0.40577,0.903111 0.89895,0.903111 0.49779,0 0.90347,-0.405694 0.90347,-0.903111 V 51.29845 l 8.42042,-1.9e-5 0.67802,4.889429 2.00025,2.010868 v 6.50173 90.219452 c -0.5648,-0.12692 -1.10104,0.29959 -1.10104,0.87849 v 12.50219 l -8.42044,3e-5 -0.67731,-4.90014 -2.00025,-2.01083 v -6.49111 c -0.0101,-0.56759 -0.70646,-0.53685 -0.70395,0 z"
           style="fill:#aaffee;fill-opacity:1;stroke:#231f20;stroke-width:0.344148;stroke-linecap:butt;stroke-linejoin:miter;stroke-miterlimit:4;stroke-dasharray:none;stroke-opacity:1"
           id="background_color"
           sodipodi:nodetypes="ccccccccccscccccccccccccccccccsccccccccccscccccccccccccc"
           inkscape:label="background_color" /><path
           d="m 76.198126,64.689872 23.985364,3.7e-5 c 0.93451,3.4e-5 1.74237,0.645617 1.95065,1.555731 0.72334,3.185531 3.55614,5.446837 6.82286,5.446837 3.26673,0.0035 6.09953,-2.25425 6.82625,-5.439833 0.20814,-0.910167 1.01953,-1.552223 1.9509,-1.552205 l 24.36604,1.6e-5 c 0,0 11.50105,-3.4e-5 11.99776,-3.4e-5 0.49742,0 0.89994,-0.405694 0.89994,-0.903111 h 64.90084 c 0.004,22.730738 -0.005,90.56431 -0.003,91.10116 0,0 -77.10147,0 -77.59889,0 -0.49389,0 -0.89958,0.40251 -0.89958,0.89993 l -64.897037,0.20113 z"
           style="fill:url(#pattern2);fill-opacity:1;stroke:#231f20;stroke-width:0.344148;stroke-linecap:butt;stroke-linejoin:miter;stroke-miterlimit:4;stroke-dasharray:none;stroke-opacity:1"
           id="image"
           sodipodi:nodetypes="cccccccscccsccc"
           inkscape:label="image" /><path
           id="path692"
           d="M 0,0 V -33.51"
           style="fill:none;stroke:#231f20;stroke-width:0.975531;stroke-linecap:butt;stroke-linejoin:miter;stroke-miterlimit:4;stroke-dasharray:none;stroke-opacity:1"
           transform="matrix(0.35277776,0,0,-0.35277776,154.69817,64.467553)"
           clip-path="url(#clipPath693)" /><path
           id="path708"
           d="M 0,0 V -33.51"
           style="fill:none;stroke:#231f20;stroke-width:0.975531;stroke-linecap:butt;stroke-linejoin:miter;stroke-miterlimit:4;stroke-dasharray:none;stroke-opacity:1"
           transform="matrix(0.35277776,0,0,-0.35277776,220.19837,64.467553)"
           clip-path="url(#clipPath709)" /><path
           id="path762"
           d="M 0,0 H -20.98"
           style="fill:none;stroke:#231f20;stroke-width:0.975531;stroke-linecap:butt;stroke-linejoin:miter;stroke-miterlimit:4;stroke-dasharray:none;stroke-opacity:1"
           transform="matrix(0.35277776,0,0,-0.35277776,162.39934,51.2985)"
           clip-path="url(#clipPath763)" /><path
           id="path774"
           d="M 0,0 C 1.57,0 2.84,-1.27 2.84,-2.84"
           style="fill:none;stroke:#231f20;stroke-width:0.975531;stroke-linecap:butt;stroke-linejoin:miter;stroke-miterlimit:4;stroke-dasharray:none;stroke-opacity:1"
           transform="matrix(0.35277776,0,0,-0.35277776,162.39934,51.2985)"
           clip-path="url(#clipPath775)" /><path
           id="path786"
           d="m 0,0 c 0.01,1.56 1.279,2.83 2.8399,2.8399488 l 20.9709,-5.12e-5"
           style="fill:none;stroke:#231f20;stroke-width:0.975531;stroke-linecap:butt;stroke-linejoin:miter;stroke-miterlimit:4;stroke-dasharray:none;stroke-opacity:1"
           transform="matrix(0.35277776,0,0,-0.35277776,211.49885,52.300352)"
           clip-path="url(#clipPath787)"
           sodipodi:nodetypes="ccc" /><text
           xml:space="preserve"
           style="font-size:4.53673px;font-family:Arial;-inkscape-font-specification:Arial;text-align:center;writing-mode:lr-tb;direction:ltr;text-anchor:middle;fill:#ffffff;stroke:#000000;stroke-width:0.361923;stroke-linejoin:round;stroke-dasharray:none;paint-order:markers stroke fill"
           x="187.49014"
           y="59.508446"
           id="top_title"
           inkscape:label="top_title"><tspan
             sodipodi:role="line"
             id="tspan1"
             style="font-style:normal;font-variant:normal;font-weight:bold;font-stretch:normal;font-size:4.53673px;font-family:Arial;-inkscape-font-specification:'Arial Bold';fill:#ffffff;stroke:#000000;stroke-width:0.361923;stroke-dasharray:none;paint-order:markers stroke fill"
             x="187.49014"
             y="59.508446">Title</tspan></text><text
           xml:space="preserve"
           style="font-size:4.537px;font-family:Arial;-inkscape-font-specification:Arial;text-align:center;writing-mode:lr-tb;direction:ltr;text-anchor:middle;fill:#ffffff;stroke:#000000;stroke-width:0.361923;stroke-linejoin:round;stroke-dasharray:none;paint-order:markers stroke fill"
           x="187.49014"
           y="134.29964"
           id="front_title"
           inkscape:label="front_title"><tspan
             sodipodi:role="line"
             id="tspan2"
             style="font-style:normal;font-variant:normal;font-weight:bold;font-stretch:normal;font-size:4.537px;font-family:Arial;-inkscape-font-specification:'Arial Bold';fill:#ffffff;stroke:#000000;stroke-width:0.361923;stroke-dasharray:none;paint-order:markers stroke fill"
             x="187.49014"
             y="134.29964">Title</tspan></text><text
           xml:space="preserve"
           style="font-size:4.537px;font-family:Arial;-inkscape-font-specification:Arial;text-align:center;writing-mode:lr-tb;direction:ltr;text-anchor:middle;fill:#ffffff;stroke:#000000;stroke-width:0.361923;stroke-linejoin:round;stroke-dasharray:none;paint-order:markers stroke fill"
           x="187.3553"
           y="151.17133"
           id="Starter Deck"
           inkscape:label="Starter Deck"><tspan
             sodipodi:role="line"
             id="tspan3"
             style="font-size:4.537px;fill:#ffffff;stroke:#000000;stroke-width:0.361923;stroke-dasharray:none;paint-order:markers stroke fill"
             x="187.3553"
             y="151.17133">Starter Deck</tspan></text><text
           xml:space="preserve"
           style="font-size:4.53673px;font-family:Arial;-inkscape-font-specification:Arial;text-align:center;writing-mode:lr-tb;direction:ltr;text-anchor:middle;fill:#ffffff;stroke:#000000;stroke-width:0.361923;stroke-linejoin:round;stroke-dasharray:none;paint-order:markers stroke fill"
           x="108.79262"
           y="145.04044"
           id="content_text"
           inkscape:label="content_text"><tspan
             sodipodi:role="line"
             style="font-size:4.53673px;fill:#ffffff;stroke:#000000;stroke-width:0.361923;stroke-dasharray:none;paint-order:markers stroke fill"
             x="108.79262"
             y="145.04044"
             id="tspan5">Battle ready 15-card deck</tspan></text><text
           xml:space="preserve"
           style="font-size:4.537px;font-family:Arial;-inkscape-font-specification:Arial;text-align:center;writing-mode:lr-tb;direction:ltr;text-anchor:middle;fill:#ffffff;stroke:#000000;stroke-width:0.361923;stroke-linejoin:round;stroke-dasharray:none;paint-order:markers stroke fill"
           x="108.95212"
           y="139.47122"
           id="Contents"
           inkscape:label="Contents"><tspan
             sodipodi:role="line"
             id="tspan6"
             style="font-style:normal;font-variant:normal;font-weight:bold;font-stretch:normal;font-size:4.537px;font-family:Arial;-inkscape-font-specification:'Arial Bold';fill:#ffffff;stroke:#000000;stroke-width:0.361923;stroke-dasharray:none;paint-order:markers stroke fill"
             x="108.95212"
             y="139.47122">Contents</tspan></text><text
           xml:space="preserve"
           style="font-size:4.23333px;font-family:Arial;-inkscape-font-specification:Arial;text-align:center;writing-mode:lr-tb;direction:ltr;text-anchor:middle;white-space:pre;inline-size:50.5795;display:inline;fill:#ffffff;stroke:#000000;stroke-width:0.361924;stroke-linejoin:round;stroke-dasharray:none;paint-order:markers stroke fill"
           x="102.57593"
           y="107.61475"
           id="explanation_text"
           transform="translate(6.2217,2.629386)"
           inkscape:label="explanation_text"><tspan
             x="102.57593"
             y="107.61475"
             id="tspan4"> </tspan></text></g></g></g></svg>
