<?xml version="1.0" encoding="UTF-8" standalone="no"?>
<!-- Created with Inkscape (http://www.inkscape.org/) -->

<svg
   width="63.499584mm"
   height="88.899994mm"
   viewBox="0 0 63.499584 88.899994"
   version="1.1"
   id="svg1"
   inkscape:version="1.4 (86a8ad7, 2024-10-11)"
   sodipodi:docname="wide_creature_template.svg"
   xml:space="preserve"
   xmlns:inkscape="http://www.inkscape.org/namespaces/inkscape"
   xmlns:sodipodi="http://sodipodi.sourceforge.net/DTD/sodipodi-0.dtd"
   xmlns="http://www.w3.org/2000/svg"
   xmlns:svg="http://www.w3.org/2000/svg"><sodipodi:namedview
     id="namedview1"
     pagecolor="#ffffff"
     bordercolor="#000000"
     borderopacity="0.25"
     inkscape:showpageshadow="2"
     inkscape:pageopacity="0.0"
     inkscape:pagecheckerboard="0"
     inkscape:deskcolor="#d1d1d1"
     inkscape:document-units="mm"
     inkscape:zoom="2"
     inkscape:cx="-5.75"
     inkscape:cy="169.75"
     inkscape:window-width="2560"
     inkscape:window-height="1369"
     inkscape:window-x="-8"
     inkscape:window-y="-8"
     inkscape:window-maximized="1"
     inkscape:current-layer="layer1" /><defs
     id="defs1" /><g
     inkscape:label="Layer 1"
     inkscape:groupmode="layer"
     id="layer1"><rect
       style="fill:none;stroke:#000000;stroke-width:0.178437;stroke-linecap:round;stroke-linejoin:round;stroke-dasharray:none;paint-order:markers fill stroke"
       id="image_frame"
       width="42.983765"
       height="26.423244"
       x="0.74769974"
       y="-54.748013"
       transform="rotate(90)" /><rect
       style="fill:#ffffff;stroke:#000000;stroke-width:0.178437;stroke-linecap:round;stroke-linejoin:round;stroke-dasharray:none;paint-order:markers fill stroke"
       id="title_box"
       width="41.172688"
       height="4.8672504"
       x="-43.731464"
       y="-60.752247"
       ry="1.529641"
       rx="1.5296412"
       transform="matrix(0,-1,-1,0,0,0)" /><path
       sodipodi:type="star"
       style="fill:#ffffff;stroke:#000000;stroke-width:0.264583;stroke-linecap:round;stroke-linejoin:round;paint-order:markers fill stroke"
       id="power_star"
       inkscape:flatsided="true"
       sodipodi:sides="5"
       sodipodi:cx="34.479534"
       sodipodi:cy="108.15691"
       sodipodi:r1="4.0164261"
       sodipodi:r2="3.249357"
       sodipodi:arg1="-1.5707963"
       sodipodi:arg2="-0.9424778"
       inkscape:rounded="0.075532484"
       inkscape:randomized="0"
       d="m 34.479534,104.14049 c 0.356634,0 3.709643,2.4361 3.819848,2.77528 0.110206,0.33918 -1.170529,4.28088 -1.459052,4.4905 -0.288523,0.20962 -4.433069,0.20962 -4.721592,0 -0.288523,-0.20962 -1.569258,-4.15132 -1.459052,-4.4905 0.110206,-0.33918 3.463215,-2.77528 3.819848,-2.77528 z"
       inkscape:transform-center-y="-0.30492557"
       transform="matrix(0,-0.70250979,-0.70250979,0,134.08569,27.66279)" /><rect
       style="fill:none;stroke:#000000;stroke-width:0.187699;stroke-linecap:round;stroke-linejoin:round;paint-order:markers fill stroke"
       id="full_image"
       width="44.421379"
       height="63.499588"
       x="0.028617861"
       y="-63.499584"
       transform="rotate(90)" /><rect
       style="fill:#ffffff;stroke:#000000;stroke-width:0.185872;stroke-linecap:round;stroke-linejoin:round;paint-order:fill markers stroke"
       id="effect_box"
       width="42.983513"
       height="22.25029"
       x="0.74769974"
       y="-25.347763"
       ry="1.529641"
       rx="1.529641"
       transform="rotate(90)" /><text
       xml:space="preserve"
       style="font-style:normal;font-variant:normal;font-weight:normal;font-stretch:normal;font-size:1.23915px;font-family:serif;-inkscape-font-specification:serif;text-align:start;writing-mode:lr-tb;direction:ltr;text-anchor:start;fill:#000000;stroke:none;stroke-width:0.185872;stroke-linecap:round;stroke-linejoin:round;paint-order:markers fill stroke"
       x="2.9222565"
       y="-1.564164"
       id="writer"
       inkscape:label="language_model"
       transform="rotate(90)"><tspan
         sodipodi:role="line"
         id="sometspan"
         style="font-style:normal;font-variant:normal;font-weight:normal;font-stretch:normal;font-size:1.23915px;font-family:serif;-inkscape-font-specification:serif;text-align:start;text-anchor:start;fill:#000000;stroke:none;stroke-width:0.185872"
         x="2.9222565"
         y="-1.564164">Language Model</tspan></text><text
       xml:space="preserve"
       style="font-style:normal;font-variant:normal;font-weight:normal;font-stretch:normal;font-size:3.46962px;font-family:serif;-inkscape-font-specification:serif;text-align:start;writing-mode:lr-tb;direction:ltr;text-anchor:start;fill:#000000;stroke:none;stroke-width:0.185872;stroke-linecap:round;stroke-linejoin:round;paint-order:markers fill stroke"
       x="6.6331596"
       y="-56.631485"
       id="title"
       transform="rotate(90)"><tspan
         sodipodi:role="line"
         id="tspan5"
         style="font-style:normal;font-variant:normal;font-weight:normal;font-stretch:normal;font-size:3.46962px;font-family:serif;-inkscape-font-specification:serif;stroke-width:0.185872"
         x="6.6331596"
         y="-56.631485">Title</tspan></text><text
       xml:space="preserve"
       style="font-size:3.46962px;text-align:center;writing-mode:lr-tb;direction:ltr;text-anchor:middle;fill:#000000;stroke:none;stroke-width:0.178437;stroke-linecap:round;stroke-linejoin:round;stroke-dasharray:none;paint-order:fill markers stroke"
       x="3.4388924"
       y="-56.639957"
       id="power"
       transform="rotate(90)"><tspan
         sodipodi:role="line"
         id="tspan14"
         style="font-size:3.46962px;text-align:center;text-anchor:middle;fill:#000000;stroke:none;stroke-width:0.178437"
         x="3.4388924"
         y="-56.639957">0</tspan></text><text
       xml:space="preserve"
       style="font-style:normal;font-variant:normal;font-weight:normal;font-stretch:normal;font-size:4.23333px;font-family:serif;-inkscape-font-specification:serif;text-align:start;writing-mode:lr-tb;direction:ltr;text-anchor:start;white-space:pre;inline-size:58.4828;display:inline;fill:#000000;stroke:none;stroke-width:0.264583;stroke-linecap:round;stroke-linejoin:round;paint-order:markers fill stroke"
       x="6.4598289"
       y="86.537384"
       id="effect"
       transform="matrix(0,0.70250979,-0.70250979,0,82.905724,-3.0715176)"><tspan
         x="6.4598289"
         y="86.537384"
         id="tspan4">Effect</tspan></text><text
       xml:space="preserve"
       style="font-style:normal;font-variant:normal;font-weight:normal;font-stretch:normal;font-size:1.23915px;font-family:serif;-inkscape-font-specification:serif;text-align:end;writing-mode:lr-tb;direction:ltr;text-anchor:end;fill:none;stroke:#000000;stroke-width:0.178437;stroke-linecap:round;stroke-linejoin:round;paint-order:markers fill stroke"
       x="41.766926"
       y="-1.564164"
       id="artist"
       transform="rotate(90)"><tspan
         sodipodi:role="line"
         id="tspan1"
         style="font-style:normal;font-variant:normal;font-weight:normal;font-stretch:normal;font-size:1.23915px;font-family:serif;-inkscape-font-specification:serif;text-align:end;direction:ltr;text-anchor:end;fill:#000000;stroke:none;stroke-width:0.178437"
         x="41.766926"
         y="-1.564164">Artist</tspan></text><text
       xml:space="preserve"
       style="font-style:normal;font-variant:normal;font-weight:normal;font-stretch:normal;font-size:1.98264px;font-family:serif;-inkscape-font-specification:serif;text-align:start;writing-mode:lr-tb;direction:ltr;text-anchor:start;fill:#000000;stroke:none;stroke-width:0.185872;stroke-linecap:round;stroke-linejoin:round;paint-order:markers fill stroke"
       x="1.7564087"
       y="-26.316813"
       id="type"
       transform="rotate(90)"><tspan
         sodipodi:role="line"
         id="tspan2"
         style="font-style:normal;font-variant:normal;font-weight:normal;font-stretch:normal;font-size:1.98264px;font-family:serif;-inkscape-font-specification:serif;text-align:start;text-anchor:start;fill:#000000;stroke:none;stroke-width:0.185872"
         x="1.7564087"
         y="-26.316813">Type</tspan></text><text
       xml:space="preserve"
       style="font-style:normal;font-variant:normal;font-weight:normal;font-stretch:normal;font-size:1.23915px;font-family:serif;-inkscape-font-specification:serif;text-align:end;writing-mode:lr-tb;direction:ltr;text-anchor:end;fill:none;stroke:#000000;stroke-width:0.178437;stroke-linecap:round;stroke-linejoin:round;paint-order:markers fill stroke"
       x="22.320988"
       y="-1.5665866"
       id="edition"
       inkscape:label="edition"
       transform="rotate(90)"><tspan
         sodipodi:role="line"
         id="tspan6"
         style="font-style:normal;font-variant:normal;font-weight:normal;font-stretch:normal;font-size:1.23915px;font-family:serif;-inkscape-font-specification:serif;text-align:center;direction:ltr;text-anchor:middle;fill:#000000;stroke:none;stroke-width:0.178437"
         x="22.320988"
         y="-1.5665866">Alpha 0.1.0</tspan></text><path
       style="fill:#000000;stroke-width:0.702509"
       d="m 1.5754549,42.018107 c 0.011114,-0.05852 0.049667,-0.107878 0.1033849,-0.13236 0.028922,-0.01321 0.079619,-0.02719 0.1204734,-0.03323 0.026049,-0.0042 0.1036265,-0.0035 0.130357,7.03e-4 0.06324,0.01005 0.1249878,0.03238 0.1772074,0.06421 0.062327,0.03794 0.1202507,0.0962 0.1580844,0.159034 0.083241,0.138247 0.089619,0.310475 0.016825,0.454566 -0.012477,0.02473 -0.042467,0.07215 -0.0456,0.07215 -7.728e-4,0 -0.078843,-0.03569 -0.1731848,-0.0793 -0.094337,-0.04363 -0.176179,-0.08075 -0.1818693,-0.08253 -0.00569,-0.0014 -0.015013,-0.0035 -0.020682,-0.0042 l -0.010362,-0.0014 -0.00835,-0.01728 c -0.00681,-0.01419 -0.011114,-0.02002 -0.023513,-0.03239 -0.00915,-0.0091 -0.019776,-0.01749 -0.026808,-0.02121 -0.00719,-0.0035 -0.012132,-0.0077 -0.012933,-0.01033 -0.00337,-0.01054 -0.020338,-0.04349 -0.030967,-0.05964 -0.024005,-0.0366 -0.053412,-0.06695 -0.090515,-0.09346 -0.043935,-0.0314 -0.06841,-0.06575 -0.079763,-0.112051 -0.00422,-0.01714 -0.00513,-0.05374 -0.0019,-0.0713 z m 0.2079113,0.03435 c 0.00646,0.03407 0.032702,0.05978 0.067392,0.06589 0.031761,0.0056 0.067687,-0.01307 0.082814,-0.04306 0.024461,-0.04847 -0.00478,-0.105931 -0.058765,-0.115331 -0.033496,-0.0056 -0.069619,0.01307 -0.084118,0.04405 -0.00862,0.01841 -0.010587,0.03133 -0.00733,0.0484 z m 0.2374687,0.120656 c 0.029758,0.06189 0.1153662,0.06161 0.1450908,-4.92e-4 0.00541,-0.01138 0.00583,-0.01363 0.00583,-0.03302 0,-0.02023 -1.813e-4,-0.02122 -0.00703,-0.03499 -0.00858,-0.01735 -0.021096,-0.02965 -0.038659,-0.03794 -0.011837,-0.0056 -0.013987,-0.0056 -0.033348,-0.0056 -0.019284,0 -0.021511,4.15e-4 -0.032927,0.0056 -0.031339,0.01496 -0.047925,0.04271 -0.046295,0.07739 7.728e-4,0.013 0.0019,0.01777 0.00726,0.02915 z m 0.064385,0.224065 c 0.013383,0.06309 0.093959,0.08479 0.1370414,0.03688 0.038905,-0.04327 0.021511,-0.110786 -0.033383,-0.129676 -0.044827,-0.01546 -0.095252,0.01377 -0.1044429,0.06049 -0.00225,0.01208 -0.00225,0.01805 7.728e-4,0.03231 z m -0.5123678,-0.01384 c 3.787e-4,7e-6 0.00625,0.0021 0.012968,0.0042 0.019094,0.0063 0.049843,0.007 0.079521,0.0021 0.01327,-0.0021 0.032589,-0.0042 0.043148,-0.0042 0.044223,0 0.079497,0.01777 0.096107,0.04847 0.00707,0.01307 0.011381,0.03407 0.00983,0.04812 l -0.00112,0.01103 0.0066,-0.0049 c 0.012856,-0.0098 0.034332,-0.01307 0.049899,-0.0076 0.019354,0.007 0.4662839,0.214603 0.4710736,0.219 0.016523,0.01517 0.016523,0.03948 0,0.05508 -0.00681,0.0063 -0.013797,0.0091 -0.024194,0.0091 -0.00618,0 -0.06735,-0.02178 -0.2484482,-0.08842 -0.1321147,-0.04861 -0.2430347,-0.09017 -0.2464904,-0.09231 -0.015125,-0.0093 -0.025143,-0.02754 -0.025143,-0.04559 v -0.0093 l -0.00813,0.0074 c -0.0166,0.01531 -0.036179,0.02311 -0.057599,0.02304 -0.016783,-6.3e-5 -0.026049,-0.0028 -0.044075,-0.01145 -0.051466,-0.02571 -0.089589,-0.07092 -0.1072753,-0.127288 -0.00443,-0.01405 -0.00843,-0.03618 -0.0066,-0.03611 z m 0.2188831,0.227599 c 3.78e-4,0 0.0045,0.0028 0.00896,0.0056 0.00527,0.0035 0.057114,0.02374 0.1507917,0.05824 0.0785,0.02887 0.1430822,0.0529 0.1435213,0.05339 0.00225,0.0021 -0.044357,0.02459 -0.068495,0.03288 -0.038027,0.01307 -0.080527,0.01251 -0.1195742,-0.0014 -0.044975,-0.0163 -0.085615,-0.05543 -0.1039328,-0.100093 -0.00707,-0.01721 -0.014331,-0.04847 -0.011268,-0.04847 z"
       id="path7"
       inkscape:label="paint_icon" /><path
       style="fill:#000000;stroke-width:0.70251"
       d="m 1.5478934,2.2109234 c 0.00901,-0.04572 0.0494,-0.08069 0.1169939,-0.101334 0.080496,-0.02459 0.1865465,-0.04224 0.3637602,-0.06053 0.04822,-0.005 0.1079765,-0.01142 0.1327947,-0.01432 0.160447,-0.01873 0.2554186,-0.04805 0.3070734,-0.09479 l 0.015329,-0.01387 -6.808e-4,0.300008 -6.8e-4,0.300009 -0.00604,0.01345 c -0.00714,0.01584 -0.026702,0.03509 -0.042874,0.04224 -0.00777,0.0034 -0.024356,0.0063 -0.051838,0.0089 -0.022248,0.0021 -0.040717,0.0036 -0.041048,0.0032 -3.323e-4,-3.92e-4 -0.012266,-0.0245 -0.026506,-0.05358 -0.014247,-0.02907 -0.033187,-0.06385 -0.04208,-0.07729 -0.038975,-0.05883 -0.09173,-0.09871 -0.1548325,-0.117028 -0.012673,-0.0037 -0.015441,-0.0057 -0.021124,-0.01541 -0.020253,-0.03456 -0.060226,-0.05078 -0.1163159,-0.0472 -0.033552,0.0022 -0.055407,0.0074 -0.061287,0.01462 -0.00681,0.0084 -0.0059,0.02204 0.00211,0.03003 0.00646,0.0065 0.00722,0.0066 0.026428,0.0044 0.010875,-0.0013 0.033109,-0.0022 0.049414,-0.0022 0.025038,8.5e-5 0.031255,9.13e-4 0.039959,0.0055 0.013102,0.0069 0.01771,0.01206 0.024152,0.02708 0.00639,0.01477 0.011374,0.01814 0.037732,0.02514 0.028339,0.0075 0.068923,0.02813 0.087816,0.04458 0.037071,0.03228 0.048361,0.05008 0.1067119,0.168309 0.068558,0.13891 0.10312,0.194985 0.1632289,0.264826 0.00845,0.0098 0.014956,0.01816 0.014465,0.01852 -0.00274,0.002 -0.068628,-0.0069 -0.1022721,-0.01379 -0.1154554,-0.02365 -0.2105682,-0.07024 -0.2804166,-0.137341 -0.046857,-0.04502 -0.080521,-0.09622 -0.099471,-0.151302 -0.00625,-0.01817 -0.013558,-0.02604 -0.024208,-0.02604 -0.018694,0 -0.037718,-0.02223 -0.049281,-0.05761 -0.0059,-0.01815 -0.00707,-0.02699 -0.00842,-0.06446 -0.00148,-0.04162 -0.00183,-0.04363 -0.00762,-0.04835 -0.00891,-0.0072 -0.020014,-0.0063 -0.028662,0.0024 -0.00597,0.006 -0.00762,0.01041 -0.00919,0.02501 -0.00826,0.07712 0.027454,0.16504 0.07431,0.182935 0.010769,0.0041 0.012027,0.0056 0.018954,0.02283 0.00407,0.01014 0.00777,0.01918 0.00816,0.02009 3.997e-4,9.13e-4 -0.00246,0.0025 -0.00646,0.0034 -0.00393,9.83e-4 -0.038807,0.01099 -0.077442,0.0223 -0.038624,0.01131 -0.087943,0.0245 -0.1095881,0.02929 -0.021644,0.0048 -0.048326,0.0116 -0.059292,0.0151 l -0.01993,0.0064 -6.8e-4,-0.206218 -6.8e-4,-0.206218 -0.00722,-0.0063 c -0.01169,-0.01005 -0.02083,-0.0084 -0.035175,0.0065 -0.013959,0.01449 -0.019916,0.01667 -0.041244,0.01512 -0.018265,-0.0013 -0.029484,-0.0082 -0.041104,-0.02524 -0.016888,-0.02477 -0.021827,-0.05051 -0.015617,-0.08188 z m 0.1957866,0.04822 c 0.00141,0.0026 0.00866,0.0085 0.016116,0.01307 0.017022,0.01045 0.064835,0.04585 0.098669,0.07306 0.1674411,0.134656 0.3336233,0.303357 0.384464,0.390291 0.012856,0.02199 0.017823,0.02646 0.029386,0.02646 0.016368,0 0.027293,-0.01606 0.020724,-0.03049 -0.00478,-0.01054 -0.035245,-0.0564 -0.049934,-0.07523 -0.073714,-0.09443 -0.20441,-0.222545 -0.3395202,-0.332802 -0.079703,-0.06505 -0.1269154,-0.09781 -0.1409255,-0.09781 -0.01646,0 -0.026969,0.01852 -0.018975,0.03345 z m -0.1862585,0.09139 c 0.015434,0.01005 0.037444,0.01522 0.058456,0.01374 0.010039,-7.03e-4 0.020288,-0.0022 0.022761,-0.0032 0.00429,-0.0018 0.0045,0.01254 0.0045,0.279638 v 0.281512 l -0.00583,-0.0017 c -0.016888,-0.0049 -0.039706,-0.018 -0.052485,-0.03008 -0.016853,-0.01592 -0.025529,-0.02977 -0.032252,-0.05141 -0.00464,-0.01482 -0.00485,-0.02777 -0.00485,-0.255218 v -0.239619 z m 0.8369091,-0.59413 c 0.036685,0 0.050307,0.0044 0.067722,0.02179 0.02456,0.02456 0.026983,0.05035 0.00826,0.08757 -0.00976,0.0194 -0.029562,0.04051 -0.051206,0.05461 -0.015891,0.01035 -0.044068,0.02426 -0.049112,0.02426 -0.00126,0 -0.00225,-0.04201 -0.00225,-0.09412 v -0.09412 z"
       id="path9"
       inkscape:label="write_icon" /><rect
       style="fill:none;stroke:#000000;stroke-width:0.178437;stroke-linecap:round;stroke-linejoin:round;stroke-dasharray:none;paint-order:markers fill stroke"
       id="rect14"
       width="42.983765"
       height="26.423244"
       x="45.169079"
       y="-54.748013"
       transform="rotate(90)"
       inkscape:label="image_frame2" /><rect
       style="fill:#ffffff;stroke:#000000;stroke-width:0.178437;stroke-linecap:round;stroke-linejoin:round;stroke-dasharray:none;paint-order:markers fill stroke"
       id="rect15"
       width="41.172688"
       height="4.8672504"
       x="-88.152847"
       y="-60.752247"
       ry="1.529641"
       rx="1.5296412"
       transform="matrix(0,-1,-1,0,0,0)"
       inkscape:label="title_box2" /><path
       sodipodi:type="star"
       style="fill:#ffffff;stroke:#000000;stroke-width:0.264583;stroke-linecap:round;stroke-linejoin:round;paint-order:markers fill stroke"
       id="path15"
       inkscape:flatsided="true"
       sodipodi:sides="5"
       sodipodi:cx="34.479534"
       sodipodi:cy="108.15691"
       sodipodi:r1="4.0164261"
       sodipodi:r2="3.249357"
       sodipodi:arg1="-1.5707963"
       sodipodi:arg2="-0.9424778"
       inkscape:rounded="0.075532484"
       inkscape:randomized="0"
       d="m 34.479534,104.14049 c 0.356634,0 3.709643,2.4361 3.819848,2.77528 0.110206,0.33918 -1.170529,4.28088 -1.459052,4.4905 -0.288523,0.20962 -4.433069,0.20962 -4.721592,0 -0.288523,-0.20962 -1.569258,-4.15132 -1.459052,-4.4905 0.110206,-0.33918 3.463215,-2.77528 3.819848,-2.77528 z"
       inkscape:transform-center-y="-0.30492557"
       transform="matrix(0,-0.70250979,-0.70250979,0,134.08569,72.08417)"
       inkscape:label="power_star2" /><rect
       style="fill:none;stroke:#000000;stroke-width:0.187699;stroke-linecap:round;stroke-linejoin:round;paint-order:markers fill stroke"
       id="rect16"
       width="44.421379"
       height="63.499588"
       x="44.449997"
       y="-63.499584"
       transform="rotate(90)" /><rect
       style="fill:#ffffff;stroke:#000000;stroke-width:0.185872;stroke-linecap:round;stroke-linejoin:round;paint-order:fill markers stroke"
       id="rect17"
       width="42.983513"
       height="22.25029"
       x="45.169079"
       y="-25.347763"
       ry="1.529641"
       rx="1.529641"
       transform="rotate(90)"
       inkscape:label="effect_box2" /><text
       xml:space="preserve"
       style="font-style:normal;font-variant:normal;font-weight:normal;font-stretch:normal;font-size:1.23915px;font-family:serif;-inkscape-font-specification:serif;text-align:start;writing-mode:lr-tb;direction:ltr;text-anchor:start;fill:#000000;stroke:none;stroke-width:0.185872;stroke-linecap:round;stroke-linejoin:round;paint-order:markers fill stroke"
       x="47.343636"
       y="-1.564164"
       id="text17"
       inkscape:label="language_model2"
       transform="rotate(90)"><tspan
         sodipodi:role="line"
         id="tspan17"
         style="font-style:normal;font-variant:normal;font-weight:normal;font-stretch:normal;font-size:1.23915px;font-family:serif;-inkscape-font-specification:serif;text-align:start;text-anchor:start;fill:#000000;stroke:none;stroke-width:0.185872"
         x="47.343636"
         y="-1.564164">Language Model</tspan></text><text
       xml:space="preserve"
       style="font-style:normal;font-variant:normal;font-weight:normal;font-stretch:normal;font-size:3.46962px;font-family:serif;-inkscape-font-specification:serif;text-align:start;writing-mode:lr-tb;direction:ltr;text-anchor:start;fill:#000000;stroke:none;stroke-width:0.185872;stroke-linecap:round;stroke-linejoin:round;paint-order:markers fill stroke"
       x="51.054539"
       y="-56.631485"
       id="text18"
       transform="rotate(90)"
       inkscape:label="title2"><tspan
         sodipodi:role="line"
         id="tspan18"
         style="font-style:normal;font-variant:normal;font-weight:normal;font-stretch:normal;font-size:3.46962px;font-family:serif;-inkscape-font-specification:serif;stroke-width:0.185872"
         x="51.054539"
         y="-56.631485">Title</tspan></text><text
       xml:space="preserve"
       style="font-size:3.46962px;text-align:center;writing-mode:lr-tb;direction:ltr;text-anchor:middle;fill:#000000;stroke:none;stroke-width:0.178437;stroke-linecap:round;stroke-linejoin:round;stroke-dasharray:none;paint-order:fill markers stroke"
       x="47.860271"
       y="-56.639957"
       id="text19"
       transform="rotate(90)"
       inkscape:label="power2"><tspan
         sodipodi:role="line"
         id="tspan19"
         style="font-size:3.46962px;text-align:center;text-anchor:middle;fill:#000000;stroke:none;stroke-width:0.178437"
         x="47.860271"
         y="-56.639957">0</tspan></text><text
       xml:space="preserve"
       style="font-style:normal;font-variant:normal;font-weight:normal;font-stretch:normal;font-size:4.23333px;font-family:serif;-inkscape-font-specification:serif;text-align:start;writing-mode:lr-tb;direction:ltr;text-anchor:start;white-space:pre;inline-size:58.4828;display:inline;fill:#000000;stroke:none;stroke-width:0.264583;stroke-linecap:round;stroke-linejoin:round;paint-order:markers fill stroke"
       x="6.4598289"
       y="86.537384"
       id="text20"
       transform="matrix(0,0.70250979,-0.70250979,0,82.905724,41.349863)"
       inkscape:label="effect2"><tspan
         x="6.4598289"
         y="86.537384"
         id="tspan7">Effect</tspan></text><text
       xml:space="preserve"
       style="font-style:normal;font-variant:normal;font-weight:normal;font-stretch:normal;font-size:1.23915px;font-family:serif;-inkscape-font-specification:serif;text-align:end;writing-mode:lr-tb;direction:ltr;text-anchor:end;fill:none;stroke:#000000;stroke-width:0.178437;stroke-linecap:round;stroke-linejoin:round;paint-order:markers fill stroke"
       x="86.188309"
       y="-1.564164"
       id="text21"
       transform="rotate(90)"
       inkscape:label="artist2"><tspan
         sodipodi:role="line"
         id="tspan21"
         style="font-style:normal;font-variant:normal;font-weight:normal;font-stretch:normal;font-size:1.23915px;font-family:serif;-inkscape-font-specification:serif;text-align:end;direction:ltr;text-anchor:end;fill:#000000;stroke:none;stroke-width:0.178437"
         x="86.188309"
         y="-1.564164">Artist</tspan></text><text
       xml:space="preserve"
       style="font-style:normal;font-variant:normal;font-weight:normal;font-stretch:normal;font-size:1.98264px;font-family:serif;-inkscape-font-specification:serif;text-align:start;writing-mode:lr-tb;direction:ltr;text-anchor:start;fill:#000000;stroke:none;stroke-width:0.185872;stroke-linecap:round;stroke-linejoin:round;paint-order:markers fill stroke"
       x="46.177788"
       y="-26.316813"
       id="text22"
       transform="rotate(90)"
       inkscape:label="type2"><tspan
         sodipodi:role="line"
         id="tspan22"
         style="font-style:normal;font-variant:normal;font-weight:normal;font-stretch:normal;font-size:1.98264px;font-family:serif;-inkscape-font-specification:serif;text-align:start;text-anchor:start;fill:#000000;stroke:none;stroke-width:0.185872"
         x="46.177788"
         y="-26.316813">Type</tspan></text><text
       xml:space="preserve"
       style="font-style:normal;font-variant:normal;font-weight:normal;font-stretch:normal;font-size:1.23915px;font-family:serif;-inkscape-font-specification:serif;text-align:end;writing-mode:lr-tb;direction:ltr;text-anchor:end;fill:none;stroke:#000000;stroke-width:0.178437;stroke-linecap:round;stroke-linejoin:round;paint-order:markers fill stroke"
       x="66.742371"
       y="-1.5665866"
       id="text23"
       inkscape:label="edition2"
       transform="rotate(90)"><tspan
         sodipodi:role="line"
         id="tspan23"
         style="font-style:normal;font-variant:normal;font-weight:normal;font-stretch:normal;font-size:1.23915px;font-family:serif;-inkscape-font-specification:serif;text-align:center;direction:ltr;text-anchor:middle;fill:#000000;stroke:none;stroke-width:0.178437"
         x="66.742371"
         y="-1.5665866">Alpha 0.1.0</tspan></text><path
       style="fill:#000000;stroke-width:0.702509"
       d="m 1.5754549,86.439487 c 0.011114,-0.05852 0.049667,-0.107878 0.1033849,-0.13236 0.028922,-0.01321 0.079619,-0.02719 0.1204734,-0.03323 0.026049,-0.0042 0.1036265,-0.0035 0.130357,7.03e-4 0.06324,0.01005 0.1249878,0.03238 0.1772074,0.06421 0.062327,0.03794 0.1202507,0.0962 0.1580844,0.159034 0.083241,0.138247 0.089619,0.310475 0.016825,0.454566 -0.012477,0.02473 -0.042467,0.07215 -0.0456,0.07215 -7.728e-4,0 -0.078843,-0.03569 -0.1731848,-0.0793 -0.094337,-0.04363 -0.176179,-0.08075 -0.1818693,-0.08253 -0.00569,-0.0014 -0.015013,-0.0035 -0.020682,-0.0042 l -0.010362,-0.0014 -0.00835,-0.01728 c -0.00681,-0.01419 -0.011114,-0.02002 -0.023513,-0.03239 -0.00915,-0.0091 -0.019776,-0.01749 -0.026808,-0.02121 -0.00719,-0.0035 -0.012132,-0.0077 -0.012933,-0.01033 -0.00337,-0.01054 -0.020338,-0.04349 -0.030967,-0.05964 -0.024005,-0.0366 -0.053412,-0.06695 -0.090515,-0.09346 -0.043935,-0.0314 -0.06841,-0.06575 -0.079763,-0.112051 -0.00422,-0.01714 -0.00513,-0.05374 -0.0019,-0.0713 z m 0.2079113,0.03435 c 0.00646,0.03407 0.032702,0.05978 0.067392,0.06589 0.031761,0.0056 0.067687,-0.01307 0.082814,-0.04306 0.024461,-0.04847 -0.00478,-0.105931 -0.058765,-0.115331 -0.033496,-0.0056 -0.069619,0.01307 -0.084118,0.04405 -0.00862,0.01841 -0.010587,0.03133 -0.00733,0.0484 z m 0.2374687,0.120656 c 0.029758,0.06189 0.1153662,0.06161 0.1450908,-4.92e-4 0.00541,-0.01138 0.00583,-0.01363 0.00583,-0.03302 0,-0.02023 -1.813e-4,-0.02122 -0.00703,-0.03499 -0.00858,-0.01735 -0.021096,-0.02965 -0.038659,-0.03794 -0.011837,-0.0056 -0.013987,-0.0056 -0.033348,-0.0056 -0.019284,0 -0.021511,4.15e-4 -0.032927,0.0056 -0.031339,0.01496 -0.047925,0.04271 -0.046295,0.07739 7.728e-4,0.013 0.0019,0.01777 0.00726,0.02915 z m 0.064385,0.224065 c 0.013383,0.06309 0.093959,0.08479 0.1370414,0.03688 0.038905,-0.04327 0.021511,-0.110786 -0.033383,-0.129676 -0.044827,-0.01546 -0.095252,0.01377 -0.1044429,0.06049 -0.00225,0.01208 -0.00225,0.01805 7.728e-4,0.03231 z m -0.5123678,-0.01384 c 3.787e-4,7e-6 0.00625,0.0021 0.012968,0.0042 0.019094,0.0063 0.049843,0.007 0.079521,0.0021 0.01327,-0.0021 0.032589,-0.0042 0.043148,-0.0042 0.044223,0 0.079497,0.01777 0.096107,0.04847 0.00707,0.01307 0.011381,0.03407 0.00983,0.04812 l -0.00112,0.01103 0.0066,-0.0049 c 0.012856,-0.0098 0.034332,-0.01307 0.049899,-0.0076 0.019354,0.007 0.4662839,0.214603 0.4710736,0.219 0.016523,0.01517 0.016523,0.03948 0,0.05508 -0.00681,0.0063 -0.013797,0.0091 -0.024194,0.0091 -0.00618,0 -0.06735,-0.02178 -0.2484482,-0.08842 -0.1321147,-0.04861 -0.2430347,-0.09017 -0.2464904,-0.09231 -0.015125,-0.0093 -0.025143,-0.02754 -0.025143,-0.04559 v -0.0093 l -0.00813,0.0074 c -0.0166,0.01531 -0.036179,0.02311 -0.057599,0.02304 -0.016783,-6.3e-5 -0.026049,-0.0028 -0.044075,-0.01145 -0.051466,-0.02571 -0.089589,-0.07092 -0.1072753,-0.127288 -0.00443,-0.01405 -0.00843,-0.03618 -0.0066,-0.03611 z m 0.2188831,0.227599 c 3.78e-4,0 0.0045,0.0028 0.00896,0.0056 0.00527,0.0035 0.057114,0.02374 0.1507917,0.05824 0.0785,0.02887 0.1430822,0.0529 0.1435213,0.05339 0.00225,0.0021 -0.044357,0.02459 -0.068495,0.03288 -0.038027,0.01307 -0.080527,0.01251 -0.1195742,-0.0014 -0.044975,-0.0163 -0.085615,-0.05543 -0.1039328,-0.100093 -0.00707,-0.01721 -0.014331,-0.04847 -0.011268,-0.04847 z"
       id="path23"
       inkscape:label="paint_icon" /><path
       style="fill:#000000;stroke-width:0.70251"
       d="m 1.5478934,46.632304 c 0.00901,-0.04572 0.0494,-0.08069 0.1169939,-0.101334 0.080496,-0.02459 0.1865465,-0.04224 0.3637602,-0.06053 0.04822,-0.005 0.1079765,-0.01142 0.1327947,-0.01432 0.160447,-0.01873 0.2554186,-0.04805 0.3070734,-0.09479 l 0.015329,-0.01387 -6.808e-4,0.300008 -6.8e-4,0.300009 -0.00604,0.01345 c -0.00714,0.01584 -0.026702,0.03509 -0.042874,0.04224 -0.00777,0.0034 -0.024356,0.0063 -0.051838,0.0089 -0.022248,0.0021 -0.040717,0.0036 -0.041048,0.0032 -3.323e-4,-3.92e-4 -0.012266,-0.0245 -0.026506,-0.05358 -0.014247,-0.02907 -0.033187,-0.06385 -0.04208,-0.07729 -0.038975,-0.05883 -0.09173,-0.09871 -0.1548325,-0.117028 -0.012673,-0.0037 -0.015441,-0.0057 -0.021124,-0.01541 -0.020253,-0.03456 -0.060226,-0.05078 -0.1163159,-0.0472 -0.033552,0.0022 -0.055407,0.0074 -0.061287,0.01462 -0.00681,0.0084 -0.0059,0.02204 0.00211,0.03003 0.00646,0.0065 0.00722,0.0066 0.026428,0.0044 0.010875,-0.0013 0.033109,-0.0022 0.049414,-0.0022 0.025038,8.5e-5 0.031255,9.13e-4 0.039959,0.0055 0.013102,0.0069 0.01771,0.01206 0.024152,0.02708 0.00639,0.01477 0.011374,0.01814 0.037732,0.02514 0.028339,0.0075 0.068923,0.02813 0.087816,0.04458 0.037071,0.03228 0.048361,0.05008 0.1067119,0.168309 0.068558,0.13891 0.10312,0.194985 0.1632289,0.264826 0.00845,0.0098 0.014956,0.01816 0.014465,0.01852 -0.00274,0.002 -0.068628,-0.0069 -0.1022721,-0.01379 -0.1154554,-0.02365 -0.2105682,-0.07024 -0.2804166,-0.137341 -0.046857,-0.04502 -0.080521,-0.09622 -0.099471,-0.151302 -0.00625,-0.01817 -0.013558,-0.02604 -0.024208,-0.02604 -0.018694,0 -0.037718,-0.02223 -0.049281,-0.05761 -0.0059,-0.01815 -0.00707,-0.02699 -0.00842,-0.06446 -0.00148,-0.04162 -0.00183,-0.04363 -0.00762,-0.04835 -0.00891,-0.0072 -0.020014,-0.0063 -0.028662,0.0024 -0.00597,0.006 -0.00762,0.01041 -0.00919,0.02501 -0.00826,0.07712 0.027454,0.16504 0.07431,0.182935 0.010769,0.0041 0.012027,0.0056 0.018954,0.02283 0.00407,0.01014 0.00777,0.01918 0.00816,0.02009 3.997e-4,9.13e-4 -0.00246,0.0025 -0.00646,0.0034 -0.00393,9.83e-4 -0.038807,0.01099 -0.077442,0.0223 -0.038624,0.01131 -0.087943,0.0245 -0.1095881,0.02929 -0.021644,0.0048 -0.048326,0.0116 -0.059292,0.0151 l -0.01993,0.0064 -6.8e-4,-0.206218 -6.8e-4,-0.206218 -0.00722,-0.0063 c -0.01169,-0.01005 -0.02083,-0.0084 -0.035175,0.0065 -0.013959,0.01449 -0.019916,0.01667 -0.041244,0.01512 -0.018265,-0.0013 -0.029484,-0.0082 -0.041104,-0.02524 -0.016888,-0.02477 -0.021827,-0.05051 -0.015617,-0.08188 z m 0.1957866,0.04822 c 0.00141,0.0026 0.00866,0.0085 0.016116,0.01307 0.017022,0.01045 0.064835,0.04585 0.098669,0.07306 0.1674411,0.134656 0.3336233,0.303357 0.384464,0.390291 0.012856,0.02199 0.017823,0.02646 0.029386,0.02646 0.016368,0 0.027293,-0.01606 0.020724,-0.03049 -0.00478,-0.01054 -0.035245,-0.0564 -0.049934,-0.07523 -0.073714,-0.09443 -0.20441,-0.222545 -0.3395202,-0.332802 -0.079703,-0.06505 -0.1269154,-0.09781 -0.1409255,-0.09781 -0.01646,0 -0.026969,0.01852 -0.018975,0.03345 z m -0.1862585,0.09139 c 0.015434,0.01005 0.037444,0.01522 0.058456,0.01374 0.010039,-7.03e-4 0.020288,-0.0022 0.022761,-0.0032 0.00429,-0.0018 0.0045,0.01254 0.0045,0.279638 v 0.281512 l -0.00583,-0.0017 c -0.016888,-0.0049 -0.039706,-0.018 -0.052485,-0.03008 -0.016853,-0.01592 -0.025529,-0.02977 -0.032252,-0.05141 -0.00464,-0.01482 -0.00485,-0.02777 -0.00485,-0.255218 v -0.239619 z m 0.8369091,-0.59413 c 0.036685,0 0.050307,0.0044 0.067722,0.02179 0.02456,0.02456 0.026983,0.05035 0.00826,0.08757 -0.00976,0.0194 -0.029562,0.04051 -0.051206,0.05461 -0.015891,0.01035 -0.044068,0.02426 -0.049112,0.02426 -0.00126,0 -0.00225,-0.04201 -0.00225,-0.09412 v -0.09412 z"
       id="path24"
       inkscape:label="write_icon" /></g></svg>
