<?xml version="1.0" encoding="UTF-8" standalone="no"?>
<!-- Created with Inkscape (http://www.inkscape.org/) -->

<svg
   width="63.499584mm"
   height="88.899994mm"
   viewBox="0 0 63.499584 88.899994"
   version="1.1"
   id="svg1"
   inkscape:version="1.4 (86a8ad7, 2024-10-11)"
   sodipodi:docname="wide_creature_template.svg"
   xml:space="preserve"
   xmlns:inkscape="http://www.inkscape.org/namespaces/inkscape"
   xmlns:sodipodi="http://sodipodi.sourceforge.net/DTD/sodipodi-0.dtd"
   xmlns="http://www.w3.org/2000/svg"
   xmlns:svg="http://www.w3.org/2000/svg"><sodipodi:namedview
     id="namedview1"
     pagecolor="#ffffff"
     bordercolor="#000000"
     borderopacity="0.25"
     inkscape:showpageshadow="2"
     inkscape:pageopacity="0.0"
     inkscape:pagecheckerboard="0"
     inkscape:deskcolor="#d1d1d1"
     inkscape:document-units="mm"
     inkscape:zoom="1.4142136"
     inkscape:cx="-73.892659"
     inkscape:cy="113.49064"
     inkscape:window-width="2560"
     inkscape:window-height="1369"
     inkscape:window-x="-8"
     inkscape:window-y="-8"
     inkscape:window-maximized="1"
     inkscape:current-layer="layer1" /><defs
     id="defs1" /><g
     inkscape:label="Layer 1"
     inkscape:groupmode="layer"
     id="layer1"><rect
       style="fill:none;stroke:#000000;stroke-width:0.237938;stroke-linecap:round;stroke-linejoin:round;stroke-dasharray:none;paint-order:markers fill stroke"
       id="image_frame"
       width="86.035065"
       height="23.473064"
       x="1.4330102"
       y="-51.800262"
       transform="rotate(90)" /><rect
       style="fill:#ffffff;stroke:#000000;stroke-width:0.301;stroke-linecap:round;stroke-linejoin:round;stroke-dasharray:none;paint-order:markers fill stroke"
       id="title_box"
       width="82.349655"
       height="6.9245467"
       x="-87.436546"
       y="-60.310837"
       ry="1.529641"
       rx="1.5296413"
       transform="matrix(0,-1,-1,0,0,0)" /><path
       sodipodi:type="star"
       style="fill:#ffffff;stroke:#000000;stroke-width:0.264583;stroke-linecap:round;stroke-linejoin:round;paint-order:markers fill stroke"
       id="power_star"
       inkscape:flatsided="true"
       sodipodi:sides="5"
       sodipodi:cx="34.479534"
       sodipodi:cy="108.15691"
       sodipodi:r1="4.0164261"
       sodipodi:r2="3.249357"
       sodipodi:arg1="-1.5707963"
       sodipodi:arg2="-0.9424778"
       inkscape:rounded="0.075532484"
       inkscape:randomized="0"
       d="m 34.479534,104.14049 c 0.356634,0 3.709643,2.4361 3.819848,2.77528 0.110206,0.33918 -1.170529,4.28088 -1.459052,4.4905 -0.288523,0.20962 -4.433069,0.20962 -4.721592,0 -0.288523,-0.20962 -1.569258,-4.15132 -1.459052,-4.4905 0.110206,-0.33918 3.463215,-2.77528 3.819848,-2.77528 z"
       inkscape:transform-center-y="-0.30492557"
       transform="matrix(0,-1,-1,0,164.72143,39.337658)" /><rect
       style="fill:none;stroke:#000000;stroke-width:0.26513;stroke-linecap:round;stroke-linejoin:round;paint-order:markers fill stroke"
       id="full_image"
       width="88.851036"
       height="63.342815"
       x="0.024479831"
       y="-63.342815"
       transform="rotate(90)" /><rect
       style="fill:#ffffff;stroke:#000000;stroke-width:0.258898;stroke-linecap:round;stroke-linejoin:round;paint-order:fill markers stroke"
       id="effect_box"
       width="85.975662"
       height="21.582026"
       x="1.4624562"
       y="-25.268764"
       ry="1.529641"
       rx="1.529641"
       transform="rotate(90)" /><text
       xml:space="preserve"
       style="font-style:normal;font-variant:normal;font-weight:normal;font-stretch:normal;font-size:4.93889px;font-family:serif;-inkscape-font-specification:serif;text-align:start;writing-mode:lr-tb;direction:ltr;text-anchor:start;fill:#000000;stroke:none;stroke-width:0.264583;stroke-linecap:round;stroke-linejoin:round;paint-order:markers fill stroke"
       x="9.4026527"
       y="-54.467873"
       id="title"
       transform="rotate(90)"><tspan
         sodipodi:role="line"
         id="tspan5"
         style="font-style:normal;font-variant:normal;font-weight:normal;font-stretch:normal;font-size:4.93889px;font-family:serif;-inkscape-font-specification:serif;stroke-width:0.264583"
         x="9.4026527"
         y="-54.467873">Title</tspan></text><text
       xml:space="preserve"
       style="font-size:4.93889px;text-align:center;writing-mode:lr-tb;direction:ltr;text-anchor:middle;fill:#000000;stroke:none;stroke-width:0.254;stroke-linecap:round;stroke-linejoin:round;stroke-dasharray:none;paint-order:fill markers stroke"
       x="4.8557124"
       y="-54.479931"
       id="power"
       transform="rotate(90)"><tspan
         sodipodi:role="line"
         id="tspan14"
         style="font-size:4.93889px;text-align:center;text-anchor:middle;fill:#000000;stroke:none;stroke-width:0.254"
         x="4.8557124"
         y="-54.479931">0</tspan></text><text
       xml:space="preserve"
       style="font-style:normal;font-variant:normal;font-weight:normal;font-stretch:normal;font-size:4.23333px;font-family:serif;-inkscape-font-specification:serif;text-align:start;writing-mode:lr-tb;direction:ltr;text-anchor:start;white-space:pre;inline-size:58.4828;display:inline;fill:#000000;stroke:none;stroke-width:0.264583;stroke-linecap:round;stroke-linejoin:round;paint-order:markers fill stroke"
       x="6.4598289"
       y="86.537384"
       id="effect"
       transform="rotate(90,56.044096,51.632455)"><tspan
         x="6.4598289"
         y="86.537384"
         id="tspan4">Effect</tspan></text><text
       xml:space="preserve"
       style="font-style:normal;font-variant:normal;font-weight:normal;font-stretch:normal;font-size:2.82222px;font-family:serif;-inkscape-font-specification:serif;text-align:start;writing-mode:lr-tb;direction:ltr;text-anchor:start;fill:#000000;stroke:none;stroke-width:0.264583;stroke-linecap:round;stroke-linejoin:round;paint-order:markers fill stroke"
       x="2.4607544"
       y="-26.075724"
       id="type"
       transform="rotate(90)"><tspan
         sodipodi:role="line"
         id="tspan2"
         style="font-style:normal;font-variant:normal;font-weight:normal;font-stretch:normal;font-size:2.82222px;font-family:serif;-inkscape-font-specification:serif;text-align:start;text-anchor:start;fill:#000000;stroke:none;stroke-width:0.264583"
         x="2.4607544"
         y="-26.075724">Type</tspan></text><g
       id="g24"
       transform="translate(25.316007)"><text
         xml:space="preserve"
         style="font-style:normal;font-variant:normal;font-weight:normal;font-stretch:normal;font-size:1.76389px;font-family:serif;-inkscape-font-specification:serif;text-align:start;writing-mode:lr-tb;direction:ltr;text-anchor:start;fill:#000000;stroke:none;stroke-width:0.264583;stroke-linecap:round;stroke-linejoin:round;paint-order:markers fill stroke"
         x="4.1203046"
         y="23.918684"
         id="writer"
         inkscape:label="language_model"
         transform="rotate(90)"><tspan
           sodipodi:role="line"
           id="sometspan"
           style="font-style:normal;font-variant:normal;font-weight:normal;font-stretch:normal;font-size:1.76389px;font-family:serif;-inkscape-font-specification:serif;text-align:start;text-anchor:start;fill:#000000;stroke:none;stroke-width:0.264583"
           x="4.1203046"
           y="23.918684">Language Model</tspan></text><text
         xml:space="preserve"
         style="font-style:normal;font-variant:normal;font-weight:normal;font-stretch:normal;font-size:1.76389px;font-family:serif;-inkscape-font-specification:serif;text-align:end;writing-mode:lr-tb;direction:ltr;text-anchor:end;fill:none;stroke:#000000;stroke-width:0.254;stroke-linecap:round;stroke-linejoin:round;paint-order:markers fill stroke"
         x="59.414436"
         y="23.918684"
         id="artist"
         transform="rotate(90)"><tspan
           sodipodi:role="line"
           id="tspan1"
           style="font-style:normal;font-variant:normal;font-weight:normal;font-stretch:normal;font-size:1.76389px;font-family:serif;-inkscape-font-specification:serif;text-align:end;direction:ltr;text-anchor:end;fill:#000000;stroke:none;stroke-width:0.254"
           x="59.414436"
           y="23.918684">Artist</tspan></text><text
         xml:space="preserve"
         style="font-style:normal;font-variant:normal;font-weight:normal;font-stretch:normal;font-size:1.76389px;font-family:serif;-inkscape-font-specification:serif;text-align:end;writing-mode:lr-tb;direction:ltr;text-anchor:end;fill:none;stroke:#000000;stroke-width:0.254;stroke-linecap:round;stroke-linejoin:round;paint-order:markers fill stroke"
         x="31.733774"
         y="23.915236"
         id="edition"
         inkscape:label="edition"
         transform="rotate(90)"><tspan
           sodipodi:role="line"
           id="tspan6"
           style="font-style:normal;font-variant:normal;font-weight:normal;font-stretch:normal;font-size:1.76389px;font-family:serif;-inkscape-font-specification:serif;text-align:center;direction:ltr;text-anchor:middle;fill:#000000;stroke:none;stroke-width:0.254"
           x="31.733774"
           y="23.915236">Alpha 0.1.0</tspan></text><path
         style="fill:#000000;stroke-width:0.999999"
         d="m -23.902611,59.771982 c 0.01582,-0.08329 0.0707,-0.153558 0.147165,-0.188404 0.04117,-0.01877 0.113335,-0.03866 0.17149,-0.04727 0.03708,-0.0055 0.147509,-0.0047 0.185559,0.0013 0.09002,0.0143 0.177916,0.04614 0.252249,0.09137 0.08872,0.05398 0.171173,0.136927 0.225028,0.226374 0.118491,0.196792 0.12757,0.441953 0.02395,0.647059 -0.01776,0.03518 -0.06045,0.102699 -0.06491,0.102699 -0.0011,0 -0.112231,-0.05079 -0.246523,-0.112879 -0.134286,-0.06208 -0.250785,-0.11495 -0.258885,-0.11748 -0.0081,-0.0025 -0.02137,-0.0054 -0.02944,-0.0064 l -0.01475,-0.0018 -0.01189,-0.02463 c -0.0097,-0.02017 -0.01582,-0.02852 -0.03347,-0.04609 -0.01302,-0.01296 -0.02815,-0.02492 -0.03816,-0.0302 -0.01023,-0.0054 -0.01727,-0.01101 -0.01841,-0.01469 -0.0048,-0.01503 -0.02895,-0.06191 -0.04408,-0.08494 -0.03417,-0.0521 -0.07603,-0.0953 -0.128845,-0.133027 -0.06254,-0.04468 -0.09738,-0.09362 -0.11354,-0.159497 -0.006,-0.02436 -0.0073,-0.07653 -0.0027,-0.101502 z m 0.295955,0.04889 c 0.0092,0.04855 0.04655,0.08508 0.09593,0.09378 0.04521,0.008 0.09635,-0.01859 0.117883,-0.06125 0.03482,-0.06901 -0.0068,-0.150788 -0.08365,-0.164164 -0.04768,-0.0083 -0.0991,0.01861 -0.11974,0.06271 -0.01227,0.0262 -0.01507,0.04459 -0.01044,0.06893 z m 0.338029,0.171752 c 0.04236,0.08814 0.16422,0.08775 0.206532,-7e-4 0.0077,-0.01623 0.0083,-0.0194 0.0083,-0.047 0,-0.02876 -2.58e-4,-0.03016 -0.01,-0.04978 -0.01222,-0.02468 -0.03003,-0.04217 -0.05503,-0.05402 -0.01685,-0.008 -0.01991,-0.0085 -0.04747,-0.0085 -0.02745,0 -0.03062,5.92e-4 -0.04687,0.0083 -0.04461,0.02134 -0.06822,0.06084 -0.0659,0.110163 0.0011,0.01845 0.0027,0.02529 0.01033,0.0415 z m 0.09165,0.318949 c 0.01905,0.08983 0.133748,0.120704 0.195074,0.05249 0.05538,-0.0616 0.03062,-0.157699 -0.04752,-0.184591 -0.06381,-0.02195 -0.135588,0.01961 -0.148671,0.08607 -0.0032,0.01721 -0.0032,0.02572 0.0011,0.04602 z m -0.729339,-0.0197 c 5.39e-4,1.1e-5 0.0089,0.0025 0.01846,0.0055 0.02718,0.0086 0.07095,0.0097 0.113195,0.0027 0.01889,-0.0031 0.04639,-0.0056 0.06142,-0.0056 0.06295,0 0.113162,0.02533 0.136805,0.06902 0.01006,0.01863 0.0162,0.04852 0.01399,0.06847 l -0.0016,0.01566 0.0094,-0.0072 c 0.0183,-0.01397 0.04887,-0.01863 0.07103,-0.01082 0.02755,0.0097 0.66374,0.305478 0.670558,0.311737 0.02352,0.02161 0.02352,0.05619 0,0.07844 -0.0097,0.0092 -0.01964,0.01289 -0.03444,0.01289 -0.0088,0 -0.09587,-0.03097 -0.353658,-0.125868 -0.188061,-0.06923 -0.345952,-0.128356 -0.350871,-0.131397 -0.02153,-0.01331 -0.03579,-0.03918 -0.03579,-0.06488 v -0.01325 l -0.01157,0.01064 c -0.02363,0.02178 -0.0515,0.03292 -0.08199,0.03281 -0.02389,-8.6e-5 -0.03708,-0.0036 -0.06274,-0.01633 -0.07326,-0.03655 -0.127527,-0.100951 -0.152703,-0.181192 -0.0063,-0.01998 -0.012,-0.05148 -0.0094,-0.05142 z m 0.311573,0.323981 c 5.38e-4,0 0.0064,0.0037 0.01275,0.0081 0.0075,0.0053 0.0813,0.0338 0.214647,0.08291 0.111742,0.04115 0.203673,0.07533 0.204298,0.07595 0.0032,0.0032 -0.06314,0.03505 -0.0975,0.04684 -0.05413,0.01859 -0.114627,0.01775 -0.17021,-0.0024 -0.06402,-0.02316 -0.12187,-0.07888 -0.147945,-0.142481 -0.01006,-0.02448 -0.0204,-0.06895 -0.01604,-0.06895 z"
         id="path7"
         inkscape:label="paint_icon" /><path
         style="fill:#000000;stroke-width:1"
         d="m -23.941844,3.1077438 c 0.01282,-0.065075 0.07032,-0.1148537 0.166537,-0.1442458 0.114583,-0.035002 0.265543,-0.060118 0.517801,-0.086159 0.06864,-0.00709 0.153701,-0.016258 0.189029,-0.020383 0.228391,-0.026664 0.36358,-0.068394 0.437109,-0.1349351 l 0.02182,-0.019743 -9.69e-4,0.4270522 -9.68e-4,0.4270522 -0.0086,0.019137 c -0.01017,0.022545 -0.03801,0.049947 -0.06103,0.060134 -0.01106,0.00488 -0.03467,0.00894 -0.07379,0.012695 -0.03167,0.00303 -0.05796,0.00505 -0.05843,0.00449 -4.73e-4,-5.584e-4 -0.01746,-0.034884 -0.03773,-0.076268 -0.02028,-0.041381 -0.04724,-0.090892 -0.0599,-0.1100166 -0.05548,-0.083745 -0.130574,-0.1405092 -0.220399,-0.1665851 -0.01804,-0.00524 -0.02198,-0.00811 -0.03007,-0.021929 -0.02883,-0.049198 -0.08573,-0.072283 -0.165572,-0.067177 -0.04776,0.00305 -0.07887,0.010472 -0.08724,0.020808 -0.0097,0.012019 -0.0084,0.031373 0.003,0.042736 0.0092,0.00923 0.01028,0.0094 0.03762,0.00626 0.01548,-0.00177 0.04713,-0.00315 0.07034,-0.0031 0.03564,1.205e-4 0.04449,0.00134 0.05688,0.00787 0.01865,0.00981 0.02521,0.017173 0.03438,0.038554 0.0091,0.021035 0.01619,0.025821 0.05371,0.035789 0.04034,0.010718 0.09811,0.040054 0.125003,0.063463 0.05277,0.045951 0.06884,0.071291 0.151901,0.2395817 0.09759,0.1977343 0.146788,0.2775552 0.232351,0.3769704 0.01203,0.01398 0.02129,0.025845 0.02059,0.026368 -0.0039,0.00284 -0.09769,-0.00982 -0.145581,-0.019635 -0.164347,-0.033667 -0.299737,-0.099976 -0.399164,-0.1954992 -0.0667,-0.064078 -0.114619,-0.1369701 -0.141594,-0.2153741 -0.0089,-0.025869 -0.0193,-0.037063 -0.03446,-0.037063 -0.02661,0 -0.05369,-0.031642 -0.07015,-0.082002 -0.0084,-0.025837 -0.01006,-0.038424 -0.01198,-0.091762 -0.0021,-0.059253 -0.0026,-0.062104 -0.01084,-0.068821 -0.01269,-0.010259 -0.02849,-0.00895 -0.0408,0.00336 -0.0085,0.00854 -0.01084,0.014821 -0.01308,0.035597 -0.01176,0.109783 0.03908,0.2349296 0.105778,0.2604029 0.01533,0.00586 0.01712,0.008 0.02698,0.032502 0.0058,0.014428 0.01106,0.027296 0.01162,0.028598 5.69e-4,0.00131 -0.0035,0.00348 -0.0092,0.00483 -0.0056,0.00135 -0.05524,0.015641 -0.110236,0.031745 -0.05498,0.016103 -0.125184,0.03487 -0.155995,0.041704 -0.03081,0.00684 -0.06879,0.016511 -0.0844,0.021504 l -0.02837,0.00909 -9.68e-4,-0.2935443 -9.68e-4,-0.2935444 -0.01028,-0.00886 c -0.01664,-0.014309 -0.02965,-0.0119 -0.05007,0.0093 -0.01987,0.020616 -0.02835,0.023728 -0.05871,0.021531 -0.026,-0.00186 -0.04197,-0.011683 -0.05851,-0.035928 -0.02404,-0.03526 -0.03107,-0.071903 -0.02223,-0.1165482 z m 0.278696,0.068639 c 0.002,0.00372 0.01232,0.012086 0.02294,0.018615 0.02423,0.014877 0.09229,0.06527 0.140452,0.104003 0.238347,0.1916797 0.474902,0.4318207 0.547272,0.5555676 0.0183,0.031313 0.02537,0.037664 0.04183,0.037664 0.0233,0 0.03885,-0.022864 0.0295,-0.0434 -0.0068,-0.015 -0.05017,-0.080295 -0.07108,-0.1070897 -0.104929,-0.1344213 -0.290971,-0.3167855 -0.483296,-0.4737337 -0.113454,-0.092586 -0.18066,-0.1392313 -0.200603,-0.1392313 -0.02343,0 -0.03839,0.026359 -0.02701,0.047606 z m -0.265133,0.1300963 c 0.02197,0.014305 0.0533,0.021665 0.08321,0.019546 0.01429,-0.00104 0.02888,-0.00305 0.0324,-0.0045 0.0061,-0.00254 0.0064,0.01785 0.0064,0.3980555 v 0.4007239 l -0.0083,-0.0024 c -0.02404,-0.007 -0.05652,-0.025616 -0.07471,-0.042823 -0.02399,-0.022662 -0.03634,-0.042383 -0.04591,-0.073179 -0.0066,-0.021091 -0.0069,-0.039527 -0.0069,-0.3632952 V 3.2975241 Z m 1.191313,-0.8457246 c 0.05222,0 0.07161,0.00624 0.0964,0.031023 0.03496,0.034956 0.03841,0.071674 0.01176,0.1246478 -0.0139,0.027621 -0.04208,0.057662 -0.07289,0.077731 -0.02262,0.014727 -0.06273,0.034543 -0.06991,0.034543 -0.0018,0 -0.0032,-0.059797 -0.0032,-0.1339713 V 2.460755 Z"
         id="path9"
         inkscape:label="write_icon" /></g></g></svg>
